{
.appVersion = "3099";
DisplayStrings = (
"aáâäàåã",
"na+/minus ×÷",
"/fraction ½¼¾"
);
classes = (
{
automatic = 1;
code = "A Aacute Acircumflex Adieresis Agrave Aring Atilde AE B C Ccedilla D Eth E Eacute Ecircumflex Edieresis Egrave F G H I Iacute Icircumflex Idieresis Igrave J K L M N Ntilde O Oacute Ocircumflex Odieresis Ograve Oslash Otilde OE P Thorn Q R S Scaron T U Uacute Ucircumflex Udieresis Ugrave V W X Y Yacute Ydieresis Z Zcaron";
name = Uppercase;
}
);
copyright = "Copyright 2019 The Expletus Sans Project Authors (https://github.com/mjlagattuta/Expletus-Sans), with Reserved Font Name 'Expletus Sans'.";
customParameters = (
{
name = openTypeOS2Panose;
value = (
2,
0,
0,
0,
0,
0,
0,
0,
0,
0
);
},
{
name = openTypeOS2StrikeoutPosition;
value = 250;
},
{
name = openTypeOS2StrikeoutSize;
value = 50;
},
{
name = openTypeOS2SubscriptXOffset;
value = 0;
},
{
name = openTypeOS2SubscriptXSize;
value = 700;
},
{
name = openTypeOS2SubscriptYOffset;
value = 140;
},
{
name = openTypeOS2SubscriptYSize;
value = 650;
},
{
name = openTypeOS2SuperscriptXOffset;
value = 0;
},
{
name = openTypeOS2SuperscriptXSize;
value = 700;
},
{
name = openTypeOS2SuperscriptYOffset;
value = 477;
},
{
name = openTypeOS2SuperscriptYSize;
value = 650;
},
{
name = fsType;
value = (
);
},
{
name = blueFuzz;
value = 1;
},
{
name = blueScale;
value = 0.03963;
},
{
name = blueShift;
value = 7;
},
{
name = "Variable Font Origin";
value = "3BBF7C5C-CA4C-45AB-AE18-0528A0ACCA90";
},
{
name = "Enforce Compatibility Check";
value = 1;
},
{
name = "Use Typo Metrics";
value = 1;
},
{
name = "Disable Last Change";
value = 1;
},
{
name = licenseURL;
value = "https://scripts.sil.org/OFL";
},
{
name = license;
value = "This Font Software is licensed under the SIL Open Font License, Version 1.1. This license is available with a FAQ at: https://scripts.sil.org/OFL";
},
{
name = vendorID;
value = pyrs;
},
{
name = trademark;
value = "Expletus Sans is a trademark of Designtown.";
},
{
name = Axes;
value = (

glyphs = (
{
color = 6;
glyphname = A;
layers = (
{
anchors = (
{
name = bottom;
position = "{680, 0}";
},
{
name = ogonek;
position = "{1304, 0}";
},
{
name = top;
position = "{866, 1454}";
}
);
layerId = "3BBF7C5C-CA4C-45AB-AE18-0528A0ACCA90";
paths = (
{
closed = 1;
nodes = (
"260 0 LINE",
"422 348 LINE",
"926 348 LINE",
"908 424 OFFCURVE",
"870 492 OFFCURVE",
"774 492 CURVE SMOOTH",
"504 492 LINE",
"478 488 LINE",
"506 530 LINE",
"808 1172 LINE",
"830 1230 LINE",
"836 1172 LINE",
"1100 0 LINE",
"1304 0 LINE",
"958 1454 LINE {name = hr00;}",
"772 1454 LINE",
"70 0 LINE"
);
}
);
width = 1374;
},
{
anchors = (
{
name = bottom;
position = "{716, 0}";
},
{
name = ogonek;
position = "{1384, 0}";
},
{
name = top;
position = "{900, 1454}";
}
);
layerId = "5E1C92F4-866D-4CC0-BA00-538F5374015A";
paths = (
{
closed = 1;
nodes = (
"342 0 LINE",
"486 318 LINE {name = hr00;}",
"920 318 LINE",
"902 406 OFFCURVE",
"862 524 OFFCURVE",
"746 524 CURVE SMOOTH",
"594 524 LINE",
"562 520 LINE",
"592 560 LINE",
"826 1078 LINE",
"852 1156 LINE",
"860 1082 LINE",
"1088 0 LINE",
"1384 0 LINE",
"1040 1454 LINE",
"760 1454 LINE",
"60 0 LINE"
);
}
);
width = 1444;
}
);
unicode = 0041;
userData = {
com.typemytype.robofont.guides = (
{
angle = 90;
isGlobal = 0;
magnetic = 5;
x = 255;
y = 0;
}
);
};
},
{
color = 6;
glyphname = AE;
layers = (
{
anchors = (
{
name = bottom;
position = "{940, 0}";
},
{
name = top;
position = "{1120, 1454}";
}
);
layerId = "3BBF7C5C-CA4C-45AB-AE18-0528A0ACCA90";
paths = (
{
closed = 1;
nodes = (
"240 0 LINE",
"456 348 LINE",
"978 348 LINE",
"960 424 OFFCURVE",
"922 492 OFFCURVE",
"826 492 CURVE SMOOTH",
"570 492 LINE",
"532 488 LINE",
"566 530 LINE",
"990 1210 LINE",
"1030 1290 LINE",
"1024 1210 LINE {name = hr00;}",
"1066 0 LINE",
"1828 0 LINE",
"1844 144 LINE",
"1236 144 LINE",
"1200 1310 LINE",
"1848 1310 LINE",
"1866 1454 LINE",
"958 1454 LINE",
"42 0 LINE"
);
},
{
closed = 1;
nodes = (
"1792 692 LINE",
"1810 832 LINE",
"1470 832 LINE",
"1374 832 OFFCURVE",
"1322 768 OFFCURVE",
"1288 692 CURVE"
);
}
);
width = 1950;
},
{
anchors = (
{
name = bottom;
position = "{928, 0}";
},
{
name = top;
position = "{1112, 1454}";
}
);
layerId = "5E1C92F4-866D-4CC0-BA00-538F5374015A";
paths = (
{
closed = 1;
nodes = (
"282 0 LINE",
"474 318 LINE {name = hr00;}",
"930 318 LINE",
"912 406 OFFCURVE",
"872 524 OFFCURVE",
"756 524 CURVE SMOOTH",
"622 524 LINE",
"580 520 LINE",
"616 560 LINE",
"948 1108 LINE",
"984 1178 LINE",
"980 1104 LINE",
"1012 0 LINE",
"1830 0 LINE",
"1854 206 LINE",
"1272 206 LINE",
"1244 1248 LINE",
"1840 1248 LINE",
"1866 1454 LINE",
"922 1454 LINE",
"0 0 LINE"
);
},
{
closed = 1;
nodes = (
"1788 662 LINE",
"1814 864 LINE",
"1586 864 LINE SMOOTH",
"1448 864 OFFCURVE",
"1374 760 OFFCURVE",
"1332 662 CURVE"
);
}
);
width = 1950;
}
);
unicode = 00C6;
userData = {
com.typemytype.robofont.guides = (
{
angle = 90;
isGlobal = 0;
magnetic = 5;
x = 255;
y = 0;
}
);
};
},
{
color = 6;
glyphname = B;
layers = (
{
anchors = (
{
name = bottom;
position = "{602, 0}";
},
{
name = top;
position = "{782, 1454}";
}
);
layerId = "3BBF7C5C-CA4C-45AB-AE18-0528A0ACCA90";
paths = (
{
closed = 1;
nodes = (
"1010 -24 OFFCURVE",
"1210 204 OFFCURVE",
"1236 410 CURVE SMOOTH",
"1254 570 OFFCURVE",
"1182 690 OFFCURVE",
"1040 762 CURVE",
"986 776 LINE",
"1048 804 LINE",
"1154 866 OFFCURVE",
"1222 998 OFFCURVE",
"1234 1094 CURVE",
"1260 1310 OFFCURVE",
"1114 1480 OFFCURVE",
"774 1480 CURVE SMOOTH",
"630 1480 OFFCURVE",
"504 1466 OFFCURVE",
"350 1436 CURVE",
"174 0 LINE",
"364 0 LINE {name = hr01;}",
"448 692 LINE",
"678 692 LINE SMOOTH",
"894 692 OFFCURVE",
"1056 602 OFFCURVE",
"1032 402 CURVE SMOOTH",
"1014 246 OFFCURVE",
"878 122 OFFCURVE",
"738 122 CURVE SMOOTH",
"702 122 OFFCURVE",
"680 124 OFFCURVE",
"648 128 CURVE",
"560 144 OFFCURVE",
"494 82 OFFCURVE",
"444 12 CURVE",
"560 -16 OFFCURVE",
"644 -24 OFFCURVE",
"720 -24 CURVE SMOOTH {name = hr02;}"
);
},
{
closed = 1;
nodes = (
"526 1320 LINE",
"598 1328 OFFCURVE",
"684 1332 OFFCURVE",
"756 1332 CURVE SMOOTH",
"958 1332 OFFCURVE",
"1052 1230 OFFCURVE",
"1036 1094 CURVE SMOOTH",
"1018 946 OFFCURVE",
"894 830 OFFCURVE",
"694 830 CURVE",
"464 830 LINE"
);
}
);
width = 1286;
},
{
anchors = (
{
name = bottom;
position = "{614, 0}";
},
{
name = top;
position = "{794, 1454}";
}
);
layerId = "5E1C92F4-866D-4CC0-BA00-538F5374015A";
paths = (
{
closed = 1;
nodes = (
"1062 -22 OFFCURVE",
"1284 204 OFFCURVE",
"1310 410 CURVE SMOOTH",
"1328 554 OFFCURVE",
"1238 710 OFFCURVE",
"1098 762 CURVE",
"1044 776 LINE",
"1106 804 LINE",
"1212 866 OFFCURVE",
"1292 972 OFFCURVE",
"1304 1070 CURVE",
"1334 1316 OFFCURVE",
"1162 1480 OFFCURVE",
"802 1480 CURVE SMOOTH",
"658 1480 OFFCURVE",
"556 1468 OFFCURVE",
"336 1432 CURVE",
"162 0 LINE",
"442 0 LINE {name = hr01;}",
"524 668 LINE",
"704 668 LINE SMOOTH",
"902 668 OFFCURVE",
"1034 570 OFFCURVE",
"1016 412 CURVE SMOOTH",
"998 266 OFFCURVE",
"888 184 OFFCURVE",
"750 180 CURVE SMOOTH",
"748 180 OFFCURVE",
"744 180 OFFCURVE",
"742 180 CURVE SMOOTH",
"634 180 OFFCURVE",
"562 82 OFFCURVE",
"520 12 CURVE",
"634 -16 OFFCURVE",
"674 -22 OFFCURVE",
"748 -22 CURVE SMOOTH {name = hr02;}"
);
},
{
closed = 1;
nodes = (
"596 1264 LINE",
"670 1274 OFFCURVE",
"706 1278 OFFCURVE",
"778 1278 CURVE SMOOTH",
"968 1278 OFFCURVE",
"1028 1162 OFFCURVE",
"1016 1068 CURVE SMOOTH",
"1000 942 OFFCURVE",
"864 856 OFFCURVE",
"726 856 CURVE",
"546 856 LINE"
);
}
);
width = 1354;
}
);
unicode = 0042;
},
{
color = 6;
glyphname = C;
layers = (
{
anchors = (
{
name = bottom;
position = "{734, 0}";
},
{
name = top;
position = "{954, 1454}";
}
);
layerId = "3BBF7C5C-CA4C-45AB-AE18-0528A0ACCA90";
paths = (
{
closed = 1;
nodes = (
"976 -24 OFFCURVE",
"1098 2 OFFCURVE",
"1230 68 CURVE",
"1194 198 LINE",
"1076 142 OFFCURVE",
"974 120 OFFCURVE",
"882 120 CURVE",
"606 120 OFFCURVE",
"392 362 OFFCURVE",
"436 724 CURVE SMOOTH",
"486 1132 OFFCURVE",
"754 1334 OFFCURVE",
"1030 1334 CURVE SMOOTH",
"1122 1334 OFFCURVE",
"1216 1320 OFFCURVE",
"1326 1282 CURVE",
"1394 1412 LINE",
"1278 1458 OFFCURVE",
"1160 1480 OFFCURVE",
"1048 1480 CURVE SMOOTH",
"638 1480 OFFCURVE",
"286 1172 OFFCURVE",
"232 724 CURVE SMOOTH",
"176 262 OFFCURVE",
"454 -24 OFFCURVE",
"864 -24 CURVE SMOOTH {name = hr00;}"
);
}
);
width = 1304;
},
{
anchors = (
{
name = bottom;
position = "{742, 0}";
},
{
name = top;
position = "{998, 1454}";
}
);
layerId = "5E1C92F4-866D-4CC0-BA00-538F5374015A";
paths = (
{
closed = 1;
nodes = (
"978 -24 OFFCURVE",
"1104 6 OFFCURVE",
"1230 68 CURVE",
"1178 250 LINE",
"1074 204 OFFCURVE",
"984 182 OFFCURVE",
"892 182 CURVE",
"574 182 OFFCURVE",
"454 452 OFFCURVE",
"488 728 CURVE",
"522 1004 OFFCURVE",
"708 1274 OFFCURVE",
"1026 1274 CURVE SMOOTH",
"1118 1274 OFFCURVE",
"1186 1262 OFFCURVE",
"1300 1228 CURVE",
"1394 1412 LINE",
"1274 1460 OFFCURVE",
"1162 1480 OFFCURVE",
"1050 1480 CURVE SMOOTH",
"568 1480 OFFCURVE",
"236 1144 OFFCURVE",
"184 728 CURVE",
"132 306 OFFCURVE",
"372 -24 OFFCURVE",
"866 -24 CURVE {name = hr00;}"
);
}
);
width = 1204;
}
);
unicode = 0043;
},
{
color = 6;
glyphname = D;
layers = (
{
anchors = (
{
name = bottom;
position = "{674, 0}";
},
{
name = center;
position = "{504, 712}";
},
{
name = top;
position = "{894, 1454}";
}
);
layerId = "3BBF7C5C-CA4C-45AB-AE18-0528A0ACCA90";
paths = (
{
closed = 1;
nodes = (
"1080 -24 OFFCURVE",
"1422 294 OFFCURVE",
"1474 730 CURVE SMOOTH",
"1532 1198 OFFCURVE",
"1280 1480 OFFCURVE",
"772 1480 CURVE SMOOTH",
"656 1480 OFFCURVE",
"482 1462 OFFCURVE",
"352 1432 CURVE",
"178 0 LINE",
"368 0 LINE {name = hr01;}",
"530 1320 LINE",
"594 1328 OFFCURVE",
"674 1334 OFFCURVE",
"754 1334 CURVE SMOOTH",
"1148 1334 OFFCURVE",
"1318 1116 OFFCURVE",
"1270 730 CURVE SMOOTH",
"1230 396 OFFCURVE",
"996 120 OFFCURVE",
"740 120 CURVE",
"708 120 OFFCURVE",
"692 120 OFFCURVE",
"650 124 CURVE SMOOTH",
"562 132 OFFCURVE",
"494 80 OFFCURVE",
"448 10 CURVE",
"560 -18 OFFCURVE",
"634 -24 OFFCURVE",
"724 -24 CURVE"
);
}
);
width = 1426;
},
{
anchors = (
{
name = bottom;
position = "{724, 0}";
},
{
name = center;
position = "{518, 712}";
},
{
name = top;
position = "{944, 1454}";
}
);
layerId = "5E1C92F4-866D-4CC0-BA00-538F5374015A";
paths = (
{
closed = 1;
nodes = (
"1160 -24 OFFCURVE",
"1502 308 OFFCURVE",
"1554 730 CURVE SMOOTH",
"1612 1204 OFFCURVE",
"1332 1480 OFFCURVE",
"800 1480 CURVE SMOOTH",
"684 1480 OFFCURVE",
"524 1466 OFFCURVE",
"340 1428 CURVE",
"166 0 LINE",
"448 0 LINE {name = hr01;}",
"602 1258 LINE",
"664 1268 OFFCURVE",
"724 1274 OFFCURVE",
"776 1274 CURVE SMOOTH",
"1162 1274 OFFCURVE",
"1292 1044 OFFCURVE",
"1252 730 CURVE SMOOTH",
"1220 464 OFFCURVE",
"1058 188 OFFCURVE",
"758 182 CURVE SMOOTH",
"754 182 OFFCURVE",
"752 182 OFFCURVE",
"748 182 CURVE SMOOTH",
"638 182 OFFCURVE",
"564 80 OFFCURVE",
"524 10 CURVE",
"636 -20 OFFCURVE",
"678 -24 OFFCURVE",
"752 -24 CURVE {name = hr02;}"
);
}
);
width = 1494;
}
);
unicode = 0044;
},
{
color = 6;
glyphname = E;
layers = (
{
anchors = (
{
name = bottom;
position = "{608, 0}";
},
{
name = ogonek;
position = "{1036, 0}";
},
{
name = top;
position = "{778, 1454}";
},
{
name = topleft;
position = "{156, 1454}";
}
);
layerId = "3BBF7C5C-CA4C-45AB-AE18-0528A0ACCA90";
paths = (
{
closed = 1;
nodes = (
"1036 0 LINE",
"1052 144 LINE",
"384 144 LINE",
"528 1310 LINE",
"1166 1310 LINE",
"1184 1454 LINE",
"356 1454 LINE {name = hr00;}",
"178 0 LINE"
);
},
{
closed = 1;
nodes = (
"1022 692 LINE",
"1040 832 LINE",
"718 832 LINE",
"622 832 OFFCURVE",
"566 768 OFFCURVE",
"528 692 CURVE"
);
}
);
width = 1154;
},
{
anchors = (
{
name = bottom;
position = "{618, 0}";
},
{
name = ogonek;
position = "{1070, 0}";
},
{
name = top;
position = "{780, 1454}";
},
{
name = topleft;
position = "{156, 1454}";
}
);
layerId = "5E1C92F4-866D-4CC0-BA00-538F5374015A";
paths = (
{
closed = 1;
nodes = (
"1070 0 LINE",
"1094 206 LINE",
"476 206 LINE",
"604 1248 LINE",
"1190 1248 LINE",
"1216 1454 LINE",
"344 1454 LINE {name = hr00;}",
"166 0 LINE"
);
},
{
closed = 1;
nodes = (
"1050 662 LINE",
"1076 864 LINE",
"834 864 LINE",
"718 864 OFFCURVE",
"646 750 OFFCURVE",
"608 662 CURVE"
);
}
);
width = 1176;
}
);
unicode = 0045;
},
{
color = 6;
glyphname = F;
layers = (
{
anchors = (
{
name = bottom;
position = "{274, 0}";
},
{
name = top;
position = "{770, 1454}";
}
);
layerId = "3BBF7C5C-CA4C-45AB-AE18-0528A0ACCA90";
paths = (
{
closed = 1;
nodes = (
"368 0 LINE",
"528 1310 LINE",
"1166 1310 LINE",
"1184 1454 LINE",
"356 1454 LINE {name = hr00;}",
"178 0 LINE"
);
},
{
closed = 1;
nodes = (
"1022 692 LINE",
"1040 832 LINE",
"718 832 LINE",
"622 832 OFFCURVE",
"566 768 OFFCURVE",
"528 692 CURVE"
);
}
);
width = 1146;
},
{
anchors = (
{
name = bottom;
position = "{310, 0}";
},
{
name = top;
position = "{780, 1454}";
}
);
layerId = "5E1C92F4-866D-4CC0-BA00-538F5374015A";
paths = (
{
closed = 1;
nodes = (
"452 0 LINE",
"604 1248 LINE",
"1190 1248 LINE",
"1216 1454 LINE",
"344 1454 LINE {name = hr00;}",
"166 0 LINE"
);
},
{
closed = 1;
nodes = (
"1050 662 LINE",
"1076 864 LINE",
"834 864 LINE",
"718 864 OFFCURVE",
"646 750 OFFCURVE",
"608 662 CURVE"
);
}
);
width = 1168;
}
);
unicode = 0046;
},
{
color = 6;
glyphname = G;
layers = (
{
anchors = (
{
name = bottom;
position = "{742, 0}";
},
{
name = top;
position = "{922, 1454}";
}
);
layerId = "3BBF7C5C-CA4C-45AB-AE18-0528A0ACCA90";
paths = (
{
closed = 1;
nodes = (
"930 -24 OFFCURVE",
"1082 -2 OFFCURVE",
"1236 74 CURVE",
"1310 674 LINE",
"1126 674 LINE",
"1062 154 LINE",
"970 126 OFFCURVE",
"892 120 OFFCURVE",
"834 120 CURVE SMOOTH",
"558 120 OFFCURVE",
"312 318 OFFCURVE",
"362 726 CURVE SMOOTH",
"412 1136 OFFCURVE",
"706 1334 OFFCURVE",
"982 1334 CURVE SMOOTH {name = hr00;}",
"1074 1334 OFFCURVE",
"1184 1324 OFFCURVE",
"1318 1262 CURVE",
"1386 1392 LINE",
"1254 1458 OFFCURVE",
"1114 1480 OFFCURVE",
"1000 1480 CURVE SMOOTH",
"590 1480 OFFCURVE",
"214 1176 OFFCURVE",
"158 726 CURVE SMOOTH",
"100 256 OFFCURVE",
"406 -24 OFFCURVE",
"816 -24 CURVE SMOOTH"
);
}
);
width = 1290;
},
{
anchors = (
{
name = bottom;
position = "{808, 0}";
},
{
name = top;
position = "{988, 1454}";
}
);
layerId = "5E1C92F4-866D-4CC0-BA00-538F5374015A";
paths = (
{
closed = 1;
nodes = (
"984 -24 OFFCURVE",
"1178 8 OFFCURVE",
"1332 74 CURVE",
"1406 674 LINE",
"1150 674 LINE",
"1092 204 LINE",
"1006 184 OFFCURVE",
"956 182 OFFCURVE",
"898 182 CURVE SMOOTH",
"580 182 OFFCURVE",
"442 450 OFFCURVE",
"476 726 CURVE SMOOTH",
"512 1016 OFFCURVE",
"720 1274 OFFCURVE",
"1038 1274 CURVE SMOOTH {name = hr00;}",
"1130 1274 OFFCURVE",
"1234 1258 OFFCURVE",
"1376 1200 CURVE",
"1474 1392 LINE",
"1330 1456 OFFCURVE",
"1174 1480 OFFCURVE",
"1062 1480 CURVE SMOOTH",
"574 1480 OFFCURVE",
"224 1146 OFFCURVE",
"172 726 CURVE SMOOTH",
"120 308 OFFCURVE",
"378 -24 OFFCURVE",
"872 -24 CURVE SMOOTH"
);
}
);
width = 1448;
}
);
unicode = 0047;
},
{
color = 6;
glyphname = H;
layers = (
{
anchors = (
{
name = bottom;
position = "{732, 0}";
},
{
name = center;
position = "{822, 728}";
},
{
name = top;
position = "{910, 1454}";
},
{
name = topleft;
position = "{156, 1454}";
}
);
layerId = "3BBF7C5C-CA4C-45AB-AE18-0528A0ACCA90";
paths = (
{
closed = 1;
nodes = (
"1286 0 LINE",
"1464 1454 LINE",
"1274 1454 LINE",
"1198 832 LINE {name = hr00;}",
"716 832 LINE",
"622 832 OFFCURVE",
"566 768 OFFCURVE",
"528 692 CURVE",
"1180 692 LINE",
"1096 0 LINE"
);
},
{
closed = 1;
nodes = (
"368 0 LINE",
"546 1454 LINE",
"356 1454 LINE",
"178 0 LINE"
);
}
);
width = 1460;
},
{
anchors = (
{
name = bottom;
position = "{768, 0}";
},
{
name = center;
position = "{856, 728}";
},
{
name = top;
position = "{946, 1454}";
},
{
name = topleft;
position = "{156, 1454}";
}
);
layerId = "5E1C92F4-866D-4CC0-BA00-538F5374015A";
paths = (
{
closed = 1;
nodes = (
"1364 0 LINE",
"1542 1454 LINE",
"1260 1454 LINE",
"1188 866 LINE",
"834 866 LINE",
"718 866 OFFCURVE",
"644 748 OFFCURVE",
"608 660 CURVE {name = hr00;}",
"1162 660 LINE",
"1082 0 LINE"
);
},
{
closed = 1;
nodes = (
"452 0 LINE",
"630 1454 LINE",
"344 1454 LINE",
"166 0 LINE"
);
}
);
width = 1528;
}
);
unicode = 0048;
},
{
color = 6;
glyphname = I;
layers = (
{
anchors = (
{
name = bottom;
position = "{270, 0}";
},
{
name = ogonek;
position = "{362, 0}";
},
{
name = top;
position = "{448, 1454}";
},
{
name = topleft;
position = "{156, 1454}";
}
);
layerId = "3BBF7C5C-CA4C-45AB-AE18-0528A0ACCA90";
paths = (
{
closed = 1;
nodes = (
"362 0 LINE {name = hr00;}",
"540 1454 LINE",
"356 1454 LINE",
"178 0 LINE"
);
}
);
width = 540;
},
{
anchors = (
{
name = bottom;
position = "{306, 0}";
},
{
name = ogonek;
position = "{444, 0}";
},
{
name = top;
position = "{484, 1454}";
},
{
name = topleft;
position = "{156, 1454}";
}
);
layerId = "5E1C92F4-866D-4CC0-BA00-538F5374015A";
paths = (
{
closed = 1;
nodes = (
"444 0 LINE {name = hr00;}",
"622 1454 LINE",
"344 1454 LINE",
"166 0 LINE"
);
}
);
width = 612;
}
);
unicode = 0049;
},
{
color = 6;
glyphname = J;
layers = (
{
anchors = (
{
name = bottom;
position = "{238, -380}";
},
{
name = top;
position = "{604, 1454}";
}
);
layerId = "3BBF7C5C-CA4C-45AB-AE18-0528A0ACCA90";
paths = (
{
closed = 1;
nodes = (
"320 -228 OFFCURVE",
"510 -94 OFFCURVE",
"552 256 CURVE {name = hr00;}",
"700 1454 LINE",
"508 1454 LINE",
"360 256 LINE",
"322 -58 OFFCURVE",
"170 -148 OFFCURVE",
"-48 -314 CURVE",
"18 -416 LINE"
);
}
);
width = 688;
},
{
anchors = (
{
name = bottom;
position = "{292, -400}";
},
{
name = top;
position = "{616, 1454}";
}
);
layerId = "5E1C92F4-866D-4CC0-BA00-538F5374015A";
paths = (
{
closed = 1;
nodes = (
"386 -238 OFFCURVE",
"564 -116 OFFCURVE",
"610 256 CURVE {name = hr00;}",
"758 1454 LINE",
"474 1454 LINE",
"326 256 LINE",
"292 -20 OFFCURVE",
"164 -116 OFFCURVE",
"-54 -280 CURVE",
"52 -444 LINE"
);
}
);
width = 738;
}
);
unicode = 004A;
},
{
color = 6;
glyphname = K;
layers = (
{
anchors = (
{
name = bottom;
position = "{682, 0}";
},
{
name = top;
position = "{848, 1454}";
}
);
layerId = "3BBF7C5C-CA4C-45AB-AE18-0528A0ACCA90";
paths = (
{
closed = 1;
nodes = (
"1282 0 LINE",
"870 866 LINE {name = hr00;}",
"1394 1454 LINE",
"1178 1454 LINE",
"634 824 LINE SMOOTH",
"540 714 OFFCURVE",
"506 566 OFFCURVE",
"532 486 CURVE",
"716 694 LINE",
"738 730 LINE",
"748 694 LINE",
"1052 0 LINE"
);
},
{
closed = 1;
nodes = (
"368 0 LINE",
"546 1454 LINE",
"356 1454 LINE",
"178 0 LINE"
);
}
);
width = 1322;
},
{
anchors = (
{
name = bottom;
position = "{730, 0}";
},
{
name = top;
position = "{902, 1454}";
}
);
layerId = "5E1C92F4-866D-4CC0-BA00-538F5374015A";
paths = (
{
closed = 1;
nodes = (
"1386 0 LINE",
"974 872 LINE {name = hr00;}",
"1494 1454 LINE",
"1180 1454 LINE",
"794 994 LINE SMOOTH",
"684 866 OFFCURVE",
"600 664 OFFCURVE",
"624 486 CURVE",
"770 648 LINE",
"800 692 LINE",
"808 644 LINE",
"1058 0 LINE"
);
},
{
closed = 1;
nodes = (
"452 0 LINE",
"630 1454 LINE",
"344 1454 LINE",
"166 0 LINE"
);
}
);
width = 1418;
}
);
unicode = 004B;
userData = {
com.typemytype.robofont.guides = (
{
angle = 0;
isGlobal = 0;
magnetic = 5;
x = 0;
y = 352;
}
);
};
},
{
color = 6;
glyphname = L;
layers = (
{
anchors = (
{
name = bottom;
position = "{578, 0}";
},
{
name = center;
position = "{364, 728}";
},
{
name = top;
position = "{452, 1454}";
},
{
name = topright;
position = "{1116, 1454}";
}
);
layerId = "3BBF7C5C-CA4C-45AB-AE18-0528A0ACCA90";
paths = (
{
closed = 1;
nodes = (
"976 0 LINE",
"994 146 LINE",
"386 146 LINE",
"548 1454 LINE",
"356 1454 LINE {name = hr00;}",
"178 0 LINE"
);
}
);
width = 1040;
},
{
anchors = (
{
name = bottom;
position = "{570, 0}";
},
{
name = center;
position = "{398, 728}";
},
{
name = top;
position = "{486, 1454}";
},
{
name = topright;
position = "{1138, 1454}";
}
);
layerId = "5E1C92F4-866D-4CC0-BA00-538F5374015A";
paths = (
{
closed = 1;
nodes = (
"976 0 LINE",
"1000 208 LINE",
"476 208 LINE",
"630 1454 LINE",
"342 1454 LINE {name = hr00;}",
"164 0 LINE"
);
}
);
width = 1062;
}
);
unicode = 004C;
},
{
color = 6;
glyphname = M;
layers = (
{
anchors = (
{
name = bottom;
position = "{948, 0}";
},
{
name = top;
position = "{1120, 1454}";
}
);
layerId = "3BBF7C5C-CA4C-45AB-AE18-0528A0ACCA90";
paths = (
{
closed = 1;
nodes = (
"318 0 LINE",
"572 1166 LINE",
"588 1250 LINE",
"604 1166 LINE",
"862 20 LINE",
"1040 20 LINE",
"1576 1164 LINE",
"1610 1250 LINE",
"1606 1164 LINE",
"1578 0 LINE",
"1760 0 LINE",
"1778 1454 LINE",
"1532 1454 LINE",
"998 286 LINE",
"976 224 LINE",
"970 286 LINE",
"724 1454 LINE",
"478 1454 LINE {name = hr00;}",
"138 0 LINE"
);
}
);
width = 1898;
},
{
anchors = (
{
name = bottom;
position = "{980, 0}";
},
{
name = top;
position = "{1156, 1454}";
}
);
layerId = "5E1C92F4-866D-4CC0-BA00-538F5374015A";
paths = (
{
closed = 1;
nodes = (
"410 0 LINE",
"618 1098 LINE",
"636 1192 LINE",
"648 1098 LINE",
"836 20 LINE",
"1130 20 LINE",
"1578 1096 LINE",
"1614 1192 LINE",
"1608 1096 LINE",
"1552 0 LINE",
"1814 0 LINE",
"1856 1454 LINE",
"1492 1454 LINE",
"1038 332 LINE",
"1012 260 LINE",
"1008 332 LINE",
"828 1454 LINE",
"466 1454 LINE {name = hr00;}",
"148 0 LINE"
);
}
);
width = 1964;
}
);
unicode = 004D;
userData = {
com.typemytype.robofont.guides = (
{
angle = 0;
isGlobal = 0;
magnetic = 5;
x = 0;
y = 191;
}
);
};
},
{
color = 6;
glyphname = N;
layers = (
{
anchors = (
{
name = bottom;
position = "{752, 0}";
},
{
name = top;
position = "{940, 1454}";
}
);
layerId = "3BBF7C5C-CA4C-45AB-AE18-0528A0ACCA90";
paths = (
{
closed = 1;
nodes = (
"370 0 LINE",
"512 1162 LINE",
"516 1230 LINE",
"536 1162 LINE {name = hr00;}",
"1122 0 LINE",
"1292 0 LINE",
"1470 1454 LINE",
"1302 1454 LINE",
"1164 330 LINE",
"1158 260 LINE",
"1144 326 LINE",
"576 1454 LINE",
"386 1454 LINE",
"208 0 LINE"
);
}
);
width = 1498;
},
{
anchors = (
{
name = bottom;
position = "{770, 0}";
},
{
name = top;
position = "{962, 1454}";
}
);
layerId = "5E1C92F4-866D-4CC0-BA00-538F5374015A";
paths = (
{
closed = 1;
nodes = (
"432 0 LINE",
"556 1022 LINE",
"560 1090 LINE",
"584 1018 LINE {name = hr00;}",
"1102 0 LINE",
"1354 0 LINE",
"1532 1454 LINE",
"1280 1454 LINE",
"1160 476 LINE",
"1154 396 LINE",
"1136 476 LINE",
"642 1454 LINE",
"366 1454 LINE",
"188 0 LINE"
);
}
);
width = 1556;
}
);
unicode = 004E;
userData = {
com.typemytype.robofont.guides = (
{
angle = 0;
isGlobal = 0;
magnetic = 5;
x = 0;
y = 579;
},
{
angle = 0;
isGlobal = 0;
magnetic = 5;
x = 0;
y = 148;
}
);
};
},
{
color = 6;
glyphname = O;
layers = (
{
anchors = (
{
name = bottom;
position = "{764, 0}";
},
{
name = center;
position = "{852, 728}";
},
{
name = ogonek;
position = "{1362, 0}";
},
{
name = top;
position = "{942, 1454}";
},
{
name = topleft;
position = "{236, 1454}";
},
{
name = topright;
position = "{1658, 1454}";
}
);
layerId = "3BBF7C5C-CA4C-45AB-AE18-0528A0ACCA90";
paths = (
{
closed = 1;
nodes = (
"1122 -28 OFFCURVE",
"1470 266 OFFCURVE",
"1526 728 CURVE",
"1576 1140 OFFCURVE",
"1380 1484 OFFCURVE",
"946 1484 CURVE",
"634 1484 OFFCURVE",
"242 1238 OFFCURVE",
"178 728 CURVE {name = hr00;}",
"120 256 OFFCURVE",
"386 -28 OFFCURVE",
"760 -28 CURVE SMOOTH"
);
},
{
closed = 1;
nodes = (
"508 116 OFFCURVE",
"338 366 OFFCURVE",
"382 728 CURVE",
"428 1104 OFFCURVE",
"670 1338 OFFCURVE",
"928 1338 CURVE SMOOTH",
"1186 1338 OFFCURVE",
"1368 1104 OFFCURVE",
"1322 728 CURVE",
"1280 386 OFFCURVE",
"1060 116 OFFCURVE",
"778 116 CURVE"
);
}
);
width = 1582;
},
{
anchors = (
{
name = bottom;
position = "{808, 0}";
},
{
name = center;
position = "{898, 728}";
},
{
name = ogonek;
position = "{1358, 20}";
},
{
name = top;
position = "{988, 1454}";
},
{
name = topleft;
position = "{156, 1454}";
},
{
name = topright;
position = "{1654, 1454}";
}
);
layerId = "5E1C92F4-866D-4CC0-BA00-538F5374015A";
paths = (
{
closed = 1;
nodes = (
"1270 -28 OFFCURVE",
"1572 336 OFFCURVE",
"1620 728 CURVE",
"1664 1082 OFFCURVE",
"1514 1484 OFFCURVE",
"992 1484 CURVE",
"534 1484 OFFCURVE",
"226 1146 OFFCURVE",
"174 728 CURVE",
"122 298 OFFCURVE",
"344 -28 OFFCURVE",
"806 -28 CURVE"
);
},
{
closed = 1;
nodes = (
"554 178 OFFCURVE",
"444 452 OFFCURVE",
"478 728 CURVE",
"514 1024 OFFCURVE",
"690 1278 OFFCURVE",
"966 1278 CURVE {name = hr00;}",
"1230 1278 OFFCURVE",
"1356 1042 OFFCURVE",
"1318 728 CURVE",
"1276 378 OFFCURVE",
"1050 178 OFFCURVE",
"830 178 CURVE"
);
}
);
width = 1578;
}
);
unicode = 004F;
},
{
color = 10;
glyphname = Oacute;
layers = (
{
components = (
{
name = O;
},
{
name = acutecomb.case;
transform = "{1, 0, 0, 1, 648, 0}";
}
);
layerId = "3BBF7C5C-CA4C-45AB-AE18-0528A0ACCA90";
width = 1582;
},
{
components = (
{
name = O;
},
{
name = acutecomb.case;
transform = "{1, 0, 0, 1, 664, 0}";
}
);
layerId = "5E1C92F4-866D-4CC0-BA00-538F5374015A";
width = 1578;
},
{
associatedMasterId = "3BBF7C5C-CA4C-45AB-AE18-0528A0ACCA90";
layerId = "9BCA219E-FFF1-4F33-9C14-A195ADA51289";
name = "Aug 21 18, 16:19";
paths = (
{
closed = 1;
nodes = (
"1122 -28 OFFCURVE",
"1470 266 OFFCURVE",
"1526 728 CURVE",
"1584 1198 OFFCURVE",
"1324 1484 OFFCURVE",
"946 1484 CURVE SMOOTH",
"586 1484 OFFCURVE",
"236 1190 OFFCURVE",
"178 728 CURVE SMOOTH",
"120 256 OFFCURVE",
"386 -28 OFFCURVE",
"760 -28 CURVE SMOOTH"
);
},
{
closed = 1;
nodes = (
"522 116 OFFCURVE",
"336 348 OFFCURVE",
"382 728 CURVE SMOOTH",
"428 1104 OFFCURVE",
"670 1338 OFFCURVE",
"928 1338 CURVE SMOOTH",
"1186 1338 OFFCURVE",
"1368 1104 OFFCURVE",
"1322 728 CURVE",
"1276 348 OFFCURVE",
"1036 116 OFFCURVE",
"778 116 CURVE SMOOTH"
);
},
{
closed = 1;
nodes = (
"944 1516 OFFCURVE",
"1018 1526 OFFCURVE",
"1080 1584 CURVE",
"1280 1780 LINE",
"1086 1780 LINE {name = hr01;}",
"878 1532 LINE"
);
}
);
width = 1582;
},
{
associatedMasterId = "5E1C92F4-866D-4CC0-BA00-538F5374015A";
layerId = "889A9DB2-A39B-4882-B3D1-6F318E28366E";
name = "Aug 21 18, 16:19";
paths = (
{
closed = 1;
nodes = (
"1178 -28 OFFCURVE",
"1518 290 OFFCURVE",
"1572 728 CURVE SMOOTH",
"1626 1168 OFFCURVE",
"1394 1484 OFFCURVE",
"944 1484 CURVE",
"502 1484 OFFCURVE",
"180 1164 OFFCURVE",
"126 728 CURVE",
"72 286 OFFCURVE",
"306 -28 OFFCURVE",
"758 -28 CURVE"
);
},
{
closed = 1;
nodes = (
"506 178 OFFCURVE",
"396 452 OFFCURVE",
"430 728 CURVE",
"466 1024 OFFCURVE",
"642 1278 OFFCURVE",
"918 1278 CURVE",
"1194 1278 OFFCURVE",
"1306 1024 OFFCURVE",
"1270 728 CURVE SMOOTH",
"1236 452 OFFCURVE",
"1058 178 OFFCURVE",
"782 178 CURVE {name = hr00;}"
);
},
{
closed = 1;
nodes = (
"912 1512 OFFCURVE",
"1060 1526 OFFCURVE",
"1152 1616 CURVE",
"1316 1780 LINE",
"1050 1780 LINE",
"846 1530 LINE"
);
}
);
width = 1582;
}
);
unicode = 00D3;
},
{
color = 6;
glyphname = OE;
layers = (
{
anchors = (
{
name = bottom;
position = "{1094, 0}";
},
{
name = top;
position = "{1272, 1454}";
}
);
layerId = "3BBF7C5C-CA4C-45AB-AE18-0528A0ACCA90";
paths = (
{
closed = 1;
nodes = (
"826 -28 OFFCURVE",
"952 0 OFFCURVE",
"1060 0 CURVE",
"1858 0 LINE",
"1874 144 LINE",
"1206 144 LINE",
"1350 1310 LINE",
"1988 1310 LINE",
"2006 1454 LINE",
"1238 1454 LINE {name = hr01;}",
"1138 1454 OFFCURVE",
"1022 1484 OFFCURVE",
"946 1484 CURVE SMOOTH",
"586 1484 OFFCURVE",
"236 1190 OFFCURVE",
"178 728 CURVE SMOOTH",
"120 256 OFFCURVE",
"386 -28 OFFCURVE",
"760 -28 CURVE"
);
},
{
closed = 1;
nodes = (
"522 116 OFFCURVE",
"336 348 OFFCURVE",
"382 728 CURVE SMOOTH",
"428 1104 OFFCURVE",
"670 1338 OFFCURVE",
"928 1338 CURVE",
"996 1338 OFFCURVE",
"1088 1324 OFFCURVE",
"1158 1300 CURVE",
"1018 154 LINE",
"930 126 OFFCURVE",
"846 116 OFFCURVE",
"778 116 CURVE SMOOTH"
);
},
{
closed = 1;
nodes = (
"1844 692 LINE",
"1862 832 LINE",
"1540 832 LINE",
"1444 832 OFFCURVE",
"1388 768 OFFCURVE",
"1350 692 CURVE"
);
}
);
width = 1976;
},
{
anchors = (
{
name = bottom;
position = "{1144, 0}";
},
{
name = top;
position = "{1322, 1454}";
}
);
layerId = "5E1C92F4-866D-4CC0-BA00-538F5374015A";
paths = (
{
closed = 1;
nodes = (
"902 -28 OFFCURVE",
"996 0 OFFCURVE",
"1128 0 CURVE SMOOTH",
"1906 0 LINE",
"1930 206 LINE",
"1312 206 LINE",
"1440 1248 LINE",
"2026 1248 LINE",
"2052 1454 LINE",
"1306 1454 LINE SMOOTH {name = hr01;}",
"1184 1454 OFFCURVE",
"1100 1484 OFFCURVE",
"992 1484 CURVE SMOOTH",
"550 1484 OFFCURVE",
"228 1164 OFFCURVE",
"174 728 CURVE SMOOTH",
"120 286 OFFCURVE",
"354 -28 OFFCURVE",
"806 -28 CURVE SMOOTH {name = hr02;}"
);
},
{
closed = 1;
nodes = (
"554 178 OFFCURVE",
"444 452 OFFCURVE",
"478 728 CURVE SMOOTH",
"514 1024 OFFCURVE",
"690 1278 OFFCURVE",
"966 1278 CURVE SMOOTH",
"1036 1278 OFFCURVE",
"1098 1266 OFFCURVE",
"1154 1244 CURVE",
"1026 210 LINE",
"966 188 OFFCURVE",
"900 178 OFFCURVE",
"830 178 CURVE SMOOTH"
);
},
{
closed = 1;
nodes = (
"1886 662 LINE",
"1912 864 LINE",
"1670 864 LINE SMOOTH",
"1554 864 OFFCURVE",
"1482 750 OFFCURVE",
"1444 662 CURVE"
);
}
);
width = 2012;
}
);
leftMetricsKey = O;
rightMetricsKey = E;
unicode = 0152;
},
{
color = 6;
glyphname = P;
layers = (
{
anchors = (
{
name = bottom;
position = "{274, 0}";
},
{
name = top;
position = "{774, 1454}";
}
);
layerId = "3BBF7C5C-CA4C-45AB-AE18-0528A0ACCA90";
paths = (
{
closed = 1;
nodes = (
"368 0 LINE",
"530 1322 LINE",
"602 1330 OFFCURVE",
"676 1334 OFFCURVE",
"750 1334 CURVE SMOOTH",
"930 1334 OFFCURVE",
"1062 1208 OFFCURVE",
"1040 1040 CURVE",
"1020 870 OFFCURVE",
"852 748 OFFCURVE",
"714 748 CURVE SMOOTH",
"630 748 OFFCURVE",
"562 694 OFFCURVE",
"524 626 CURVE",
"596 606 OFFCURVE",
"664 604 OFFCURVE",
"722 610 CURVE SMOOTH",
"964 630 OFFCURVE",
"1212 784 OFFCURVE",
"1242 1040 CURVE SMOOTH {name = hr00;}",
"1272 1282 OFFCURVE",
"1090 1480 OFFCURVE",
"768 1480 CURVE",
"622 1480 OFFCURVE",
"508 1470 OFFCURVE",
"354 1440 CURVE",
"178 0 LINE"
);
}
);
width = 1218;
},
{
anchors = (
{
name = bottom;
position = "{310, 0}";
},
{
name = top;
position = "{760, 1454}";
}
);
layerId = "5E1C92F4-866D-4CC0-BA00-538F5374015A";
paths = (
{
closed = 1;
nodes = (
"454 0 LINE",
"608 1264 LINE",
"682 1272 OFFCURVE",
"706 1276 OFFCURVE",
"778 1276 CURVE SMOOTH",
"944 1276 OFFCURVE",
"1042 1164 OFFCURVE",
"1024 1026 CURVE",
"1010 896 OFFCURVE",
"906 788 OFFCURVE",
"794 778 CURVE SMOOTH",
"704 770 OFFCURVE",
"640 672 OFFCURVE",
"600 596 CURVE",
"672 574 OFFCURVE",
"740 572 OFFCURVE",
"800 578 CURVE SMOOTH",
"1040 600 OFFCURVE",
"1286 760 OFFCURVE",
"1318 1026 CURVE SMOOTH {name = hr00;}",
"1354 1308 OFFCURVE",
"1126 1482 OFFCURVE",
"802 1482 CURVE",
"658 1482 OFFCURVE",
"562 1472 OFFCURVE",
"342 1436 CURVE",
"166 0 LINE"
);
}
);
width = 1286;
}
);
unicode = 0050;
},
{
color = 6;
glyphname = Thorn;
layers = (
{
anchors = (
{
name = bottom;
position = "{276, 0}";
},
{
name = top;
position = "{454, 1454}";
}
);
layerId = "3BBF7C5C-CA4C-45AB-AE18-0528A0ACCA90";
paths = (
{
closed = 1;
nodes = (
"368 0 LINE",
"490 1008 LINE",
"564 1016 OFFCURVE",
"638 1020 OFFCURVE",
"712 1020 CURVE SMOOTH",
"892 1020 OFFCURVE",
"1022 894 OFFCURVE",
"1002 726 CURVE SMOOTH",
"982 556 OFFCURVE",
"814 434 OFFCURVE",
"676 434 CURVE SMOOTH",
"592 434 OFFCURVE",
"524 380 OFFCURVE",
"486 312 CURVE",
"556 292 OFFCURVE",
"624 290 OFFCURVE",
"684 296 CURVE SMOOTH",
"926 316 OFFCURVE",
"1172 470 OFFCURVE",
"1204 726 CURVE SMOOTH {name = hr00;}",
"1234 968 OFFCURVE",
"1052 1166 OFFCURVE",
"730 1166 CURVE SMOOTH",
"650 1166 OFFCURVE",
"580 1162 OFFCURVE",
"508 1154 CURVE",
"546 1454 LINE",
"362 1454 LINE",
"184 0 LINE"
);
}
);
width = 1218;
},
{
anchors = (
{
name = bottom;
position = "{278, 0}";
},
{
name = top;
position = "{456, 1454}";
}
);
layerId = "5E1C92F4-866D-4CC0-BA00-538F5374015A";
paths = (
{
closed = 1;
nodes = (
"414 0 LINE",
"532 976 LINE",
"606 984 OFFCURVE",
"630 988 OFFCURVE",
"702 988 CURVE SMOOTH",
"868 988 OFFCURVE",
"966 876 OFFCURVE",
"948 728 CURVE SMOOTH",
"932 588 OFFCURVE",
"828 480 OFFCURVE",
"716 470 CURVE SMOOTH",
"626 462 OFFCURVE",
"562 364 OFFCURVE",
"522 288 CURVE",
"594 266 OFFCURVE",
"662 264 OFFCURVE",
"722 270 CURVE SMOOTH",
"962 292 OFFCURVE",
"1208 452 OFFCURVE",
"1242 728 CURVE SMOOTH {name = hr00;}",
"1278 1022 OFFCURVE",
"1052 1194 OFFCURVE",
"728 1194 CURVE SMOOTH",
"668 1194 OFFCURVE",
"616 1192 OFFCURVE",
"558 1188 CURVE",
"592 1454 LINE",
"320 1454 LINE",
"142 0 LINE"
);
}
);
width = 1218;
}
);
unicode = 00DE;
},
{
color = 6;
glyphname = Q;
layers = (
{
anchors = (
{
name = bottom;
position = "{774, 0}";
},
{
name = top;
position = "{958, 1454}";
}
);
layerId = "3BBF7C5C-CA4C-45AB-AE18-0528A0ACCA90";
paths = (
{
closed = 1;
nodes = (
"878 -28 OFFCURVE",
"986 6 OFFCURVE",
"1106 86 CURVE",
"1068 134 OFFCURVE",
"980 152 OFFCURVE",
"908 134 CURVE SMOOTH",
"866 124 OFFCURVE",
"836 118 OFFCURVE",
"788 118 CURVE",
"526 118 OFFCURVE",
"350 356 OFFCURVE",
"396 728 CURVE SMOOTH",
"442 1104 OFFCURVE",
"688 1338 OFFCURVE",
"944 1338 CURVE SMOOTH",
"1202 1338 OFFCURVE",
"1382 1104 OFFCURVE",
"1336 728 CURVE",
"1322 612 OFFCURVE",
"1290 492 OFFCURVE",
"1218 384 CURVE",
"1198 336 LINE",
"1176 374 LINE",
"1002 582 LINE",
"882 476 LINE",
"1314 -26 LINE",
"1434 78 LINE {name = hr00;}",
"1302 232 LINE",
"1448 408 OFFCURVE",
"1518 546 OFFCURVE",
"1540 728 CURVE",
"1598 1198 OFFCURVE",
"1340 1484 OFFCURVE",
"962 1484 CURVE SMOOTH",
"602 1484 OFFCURVE",
"252 1190 OFFCURVE",
"194 728 CURVE SMOOTH",
"138 268 OFFCURVE",
"390 -28 OFFCURVE",
"770 -28 CURVE"
);
}
);
width = 1576;
},
{
anchors = (
{
name = bottom;
position = "{788, 0}";
},
{
name = top;
position = "{988, 1454}";
}
);
layerId = "5E1C92F4-866D-4CC0-BA00-538F5374015A";
paths = (
{
closed = 1;
nodes = (
"876 -28 OFFCURVE",
"984 4 OFFCURVE",
"1088 68 CURVE",
"1052 116 OFFCURVE",
"980 182 OFFCURVE",
"892 182 CURVE SMOOTH",
"868 182 OFFCURVE",
"826 178 OFFCURVE",
"808 178 CURVE {name = hr02;}",
"554 178 OFFCURVE",
"444 452 OFFCURVE",
"478 728 CURVE",
"514 1024 OFFCURVE",
"690 1278 OFFCURVE",
"966 1278 CURVE",
"1242 1278 OFFCURVE",
"1354 1024 OFFCURVE",
"1318 728 CURVE SMOOTH",
"1308 638 OFFCURVE",
"1278 536 OFFCURVE",
"1232 452 CURVE",
"1214 400 LINE",
"1194 442 LINE",
"1054 606 LINE",
"882 452 LINE",
"1314 -52 LINE {name = hr01;}",
"1486 100 LINE",
"1376 228 LINE",
"1502 366 OFFCURVE",
"1598 546 OFFCURVE",
"1620 728 CURVE SMOOTH",
"1674 1168 OFFCURVE",
"1442 1484 OFFCURVE",
"992 1484 CURVE",
"550 1484 OFFCURVE",
"228 1164 OFFCURVE",
"174 728 CURVE",
"120 286 OFFCURVE",
"354 -28 OFFCURVE",
"784 -28 CURVE"
);
}
);
width = 1562;
}
);
unicode = 0051;
userData = {
com.typemytype.robofont.guides = (
{
angle = 0;
isGlobal = 0;
magnetic = 5;
x = 0;
y = 204;
}
);
};
},
{
color = 6;
glyphname = R;
layers = (
{
anchors = (
{
name = bottom;
position = "{644, 0}";
},
{
name = top;
position = "{794, 1454}";
}
);
layerId = "3BBF7C5C-CA4C-45AB-AE18-0528A0ACCA90";
paths = (
{
closed = 1;
nodes = (
"368 0 LINE",
"528 1318 LINE",
"628 1336 OFFCURVE",
"678 1336 OFFCURVE",
"752 1336 CURVE SMOOTH",
"932 1336 OFFCURVE",
"1062 1212 OFFCURVE",
"1042 1054 CURVE SMOOTH",
"1022 890 OFFCURVE",
"856 772 OFFCURVE",
"718 768 CURVE SMOOTH",
"634 766 OFFCURVE",
"564 714 OFFCURVE",
"526 646 CURVE",
"580 632 OFFCURVE",
"718 626 OFFCURVE",
"742 632 CURVE",
"942 552 OFFCURVE",
"894 230 OFFCURVE",
"972 0 CURVE",
"1172 0 LINE",
"1082 270 OFFCURVE",
"1130 532 OFFCURVE",
"950 664 CURVE",
"912 680 LINE",
"962 696 LINE",
"1110 766 OFFCURVE",
"1224 890 OFFCURVE",
"1244 1052 CURVE SMOOTH {name = hr00;}",
"1272 1286 OFFCURVE",
"1090 1482 OFFCURVE",
"768 1482 CURVE SMOOTH",
"622 1482 OFFCURVE",
"508 1466 OFFCURVE",
"354 1436 CURVE",
"178 0 LINE"
);
}
);
width = 1296;
},
{
anchors = (
{
name = bottom;
position = "{688, 0}";
},
{
name = top;
position = "{836, 1454}";
}
);
layerId = "5E1C92F4-866D-4CC0-BA00-538F5374015A";
paths = (
{
closed = 1;
nodes = (
"454 0 LINE",
"608 1264 LINE",
"682 1272 OFFCURVE",
"706 1276 OFFCURVE",
"778 1276 CURVE SMOOTH",
"934 1276 OFFCURVE",
"1044 1174 OFFCURVE",
"1026 1036 CURVE SMOOTH",
"1010 906 OFFCURVE",
"908 810 OFFCURVE",
"798 800 CURVE SMOOTH",
"706 792 OFFCURVE",
"642 692 OFFCURVE",
"602 616 CURVE",
"668 596 OFFCURVE",
"732 594 OFFCURVE",
"788 598 CURVE",
"924 482 OFFCURVE",
"892 204 OFFCURVE",
"962 0 CURVE",
"1256 0 LINE",
"1168 256 OFFCURVE",
"1206 504 OFFCURVE",
"1062 642 CURVE",
"1020 664 LINE",
"1080 686 LINE",
"1206 758 OFFCURVE",
"1300 878 OFFCURVE",
"1320 1036 CURVE SMOOTH {name = hr00;}",
"1354 1318 OFFCURVE",
"1116 1482 OFFCURVE",
"802 1482 CURVE SMOOTH",
"658 1482 OFFCURVE",
"562 1472 OFFCURVE",
"342 1436 CURVE",
"166 0 LINE"
);
}
);
width = 1368;
}
);
unicode = 0052;
},
{
color = 6;
glyphname = S;
layers = (
{
anchors = (
{
name = bottom;
position = "{524, 0}";
},
{
name = top;
position = "{720, 1454}";
}
);
layerId = "3BBF7C5C-CA4C-45AB-AE18-0528A0ACCA90";
paths = (
{
closed = 1;
nodes = (
"834 -24 OFFCURVE",
"1028 164 OFFCURVE",
"1052 362 CURVE SMOOTH",
"1108 816 OFFCURVE",
"428 804 OFFCURVE",
"466 1118 CURVE SMOOTH",
"480 1234 OFFCURVE",
"574 1334 OFFCURVE",
"724 1334 CURVE {name = hr00;}",
"798 1334 OFFCURVE",
"898 1324 OFFCURVE",
"1008 1290 CURVE",
"1078 1420 LINE",
"946 1462 OFFCURVE",
"836 1480 OFFCURVE",
"722 1480 CURVE",
"482 1480 OFFCURVE",
"298 1318 OFFCURVE",
"274 1118 CURVE SMOOTH",
"218 666 OFFCURVE",
"896 708 OFFCURVE",
"854 366 CURVE SMOOTH",
"836 228 OFFCURVE",
"714 120 OFFCURVE",
"526 120 CURVE",
"434 120 OFFCURVE",
"306 142 OFFCURVE",
"194 196 CURVE",
"126 66 LINE",
"254 0 OFFCURVE",
"416 -24 OFFCURVE",
"530 -24 CURVE"
);
}
);
width = 1108;
},
{
anchors = (
{
name = bottom;
position = "{548, 0}";
},
{
name = top;
position = "{728, 1454}";
}
);
layerId = "5E1C92F4-866D-4CC0-BA00-538F5374015A";
paths = (
{
closed = 1;
nodes = (
"852 -26 OFFCURVE",
"1076 118 OFFCURVE",
"1108 376 CURVE SMOOTH",
"1164 840 OFFCURVE",
"484 852 OFFCURVE",
"518 1124 CURVE SMOOTH",
"528 1214 OFFCURVE",
"614 1280 OFFCURVE",
"734 1280 CURVE {name = hr00;}",
"822 1280 OFFCURVE",
"914 1266 OFFCURVE",
"1028 1232 CURVE",
"1124 1414 LINE",
"964 1468 OFFCURVE",
"862 1480 OFFCURVE",
"740 1480 CURVE",
"502 1480 OFFCURVE",
"286 1362 OFFCURVE",
"254 1100 CURVE SMOOTH",
"200 664 OFFCURVE",
"878 660 OFFCURVE",
"842 370 CURVE SMOOTH",
"830 266 OFFCURVE",
"716 180 OFFCURVE",
"574 180 CURVE",
"472 180 OFFCURVE",
"346 202 OFFCURVE",
"210 270 CURVE",
"112 84 LINE",
"284 0 OFFCURVE",
"434 -26 OFFCURVE",
"548 -26 CURVE"
);
}
);
width = 1154;
}
);
unicode = 0053;
},
{
color = 6;
glyphname = T;
layers = (
{
anchors = (
{
name = bottom;
position = "{540, 0}";
},
{
name = center;
position = "{628, 728}";
},
{
name = top;
position = "{720, 1454}";
}
);
layerId = "3BBF7C5C-CA4C-45AB-AE18-0528A0ACCA90";
paths = (
{
closed = 1;
nodes = (
"636 0 LINE",
"796 1310 LINE",
"1222 1310 LINE",
"1240 1454 LINE",
"198 1454 LINE",
"180 1310 LINE {name = hr00;}",
"604 1310 LINE",
"444 0 LINE"
);
}
);
width = 1088;
},
{
anchors = (
{
name = bottom;
position = "{532, 0}";
},
{
name = center;
position = "{620, 728}";
},
{
name = top;
position = "{710, 1454}";
}
);
layerId = "5E1C92F4-866D-4CC0-BA00-538F5374015A";
paths = (
{
closed = 1;
nodes = (
"674 0 LINE",
"826 1248 LINE",
"1206 1248 LINE",
"1232 1454 LINE",
"188 1454 LINE",
"162 1248 LINE {name = hr00;}",
"542 1248 LINE",
"390 0 LINE"
);
}
);
width = 1068;
}
);
unicode = 0054;
},
{
color = 6;
glyphname = U;
layers = (
{
anchors = (
{
name = bottom;
position = "{694, 0}";
},
{
name = ogonek;
position = "{1188, 0}";
},
{
name = top;
position = "{872, 1454}";
},
{
name = topright;
position = "{1464, 1454}";
}
);
layerId = "3BBF7C5C-CA4C-45AB-AE18-0528A0ACCA90";
paths = (
{
closed = 1;
nodes = (
"1008 -28 OFFCURVE",
"1256 198 OFFCURVE",
"1296 536 CURVE SMOOTH",
"1410 1454 LINE",
"1222 1454 LINE",
"1104 504 LINE SMOOTH",
"1076 268 OFFCURVE",
"920 116 OFFCURVE",
"708 116 CURVE SMOOTH",
"496 116 OFFCURVE",
"376 268 OFFCURVE",
"404 504 CURVE SMOOTH",
"522 1454 LINE",
"334 1454 LINE",
"220 536 LINE SMOOTH",
"180 198 OFFCURVE",
"350 -28 OFFCURVE",
"690 -28 CURVE SMOOTH {name = hr00;}"
);
}
);
width = 1388;
},
{
anchors = (
{
name = bottom;
position = "{748, 0}";
},
{
name = ogonek;
position = "{1246, 0}";
},
{
name = top;
position = "{926, 1454}";
},
{
name = topright;
position = "{1530, 1454}";
}
);
layerId = "5E1C92F4-866D-4CC0-BA00-538F5374015A";
paths = (
{
closed = 1;
nodes = (
"1102 -28 OFFCURVE",
"1352 202 OFFCURVE",
"1396 556 CURVE SMOOTH",
"1506 1454 LINE",
"1226 1454 LINE",
"1112 526 LINE SMOOTH",
"1084 308 OFFCURVE",
"938 178 OFFCURVE",
"768 178 CURVE SMOOTH",
"596 178 OFFCURVE",
"484 308 OFFCURVE",
"512 526 CURVE SMOOTH",
"626 1454 LINE",
"344 1454 LINE",
"234 556 LINE SMOOTH",
"186 178 OFFCURVE",
"386 -28 OFFCURVE",
"744 -28 CURVE SMOOTH {name = hr00;}"
);
}
);
width = 1454;
}
);
unicode = 0055;
},
{
color = 6;
glyphname = V;
layers = (
{
anchors = (
{
name = bottom;
position = "{636, 0}";
},
{
name = top;
position = "{816, 1454}";
}
);
layerId = "3BBF7C5C-CA4C-45AB-AE18-0528A0ACCA90";
paths = (
{
closed = 1;
nodes = (
"736 0 LINE",
"1420 1454 LINE",
"1222 1454 LINE",
"684 258 LINE",
"660 194 LINE",
"654 260 LINE",
"410 1454 LINE",
"204 1454 LINE",
"536 0 LINE {name = hr00;}"
);
}
);
width = 1260;
},
{
anchors = (
{
name = bottom;
position = "{674, 0}";
},
{
name = top;
position = "{854, 1454}";
}
);
layerId = "5E1C92F4-866D-4CC0-BA00-538F5374015A";
paths = (
{
closed = 1;
nodes = (
"820 0 LINE",
"1504 1454 LINE",
"1210 1454 LINE",
"732 348 LINE",
"708 274 LINE",
"704 350 LINE",
"498 1454 LINE",
"194 1454 LINE",
"526 0 LINE {name = hr00;}"
);
}
);
width = 1334;
}
);
unicode = 0056;
userData = {
com.typemytype.robofont.guides = (
{
angle = 0;
isGlobal = 0;
magnetic = 5;
x = 0;
y = 143;
}
);
};
},
{
color = 6;
glyphname = W;
layers = (
{
anchors = (
{
name = bottom;
position = "{978, 0}";
},
{
name = top;
position = "{1158, 1454}";
}
);
layerId = "3BBF7C5C-CA4C-45AB-AE18-0528A0ACCA90";
paths = (
{
closed = 1;
nodes = (
"664 0 LINE",
"1098 1136 LINE",
"1124 1216 LINE",
"1130 1132 LINE",
"1290 0 LINE",
"1514 0 LINE",
"2082 1454 LINE",
"1894 1454 LINE",
"1454 268 LINE",
"1424 174 LINE",
"1416 272 LINE",
"1258 1434 LINE {name = hr00;}",
"1054 1434 LINE",
"600 274 LINE",
"566 176 LINE",
"562 274 LINE",
"412 1454 LINE",
"220 1454 LINE",
"432 0 LINE"
);
}
);
width = 1944;
},
{
anchors = (
{
name = bottom;
position = "{1064, 0}";
},
{
name = top;
position = "{1244, 1454}";
}
);
layerId = "5E1C92F4-866D-4CC0-BA00-538F5374015A";
paths = (
{
closed = 1;
nodes = (
"762 0 LINE",
"1176 1072 LINE",
"1202 1152 LINE",
"1210 1070 LINE",
"1364 0 LINE",
"1646 0 LINE",
"2234 1454 LINE",
"1962 1454 LINE",
"1560 384 LINE",
"1530 276 LINE",
"1524 388 LINE",
"1398 1434 LINE {name = hr00;}",
"1084 1434 LINE",
"694 386 LINE",
"658 276 LINE",
"656 386 LINE",
"518 1454 LINE",
"240 1454 LINE",
"474 0 LINE"
);
}
);
width = 2118;
}
);
unicode = 0057;
userData = {
com.typemytype.robofont.guides = (
{
angle = 0;
isGlobal = 0;
magnetic = 5;
x = 0;
y = 152;
},
{
angle = 0;
isGlobal = 0;
magnetic = 5;
x = 0;
y = 522;
}
);
};
},
{
color = 6;
glyphname = X;
layers = (
{
anchors = (
{
name = bottom;
position = "{620, 0}";
},
{
name = top;
position = "{808, 1454}";
}
);
layerId = "3BBF7C5C-CA4C-45AB-AE18-0528A0ACCA90";
paths = (
{
closed = 1;
nodes = (
"1180 0 LINE",
"822 754 LINE",
"1332 1454 LINE",
"1120 1454 LINE",
"756 924 LINE",
"734 874 LINE",
"722 924 LINE",
"494 1454 LINE",
"272 1454 LINE {name = hr00;}",
"964 0 LINE"
);
},
{
closed = 1;
nodes = (
"274 0 LINE",
"556 420 LINE",
"614 500 OFFCURVE",
"586 598 OFFCURVE",
"548 660 CURVE",
"68 0 LINE"
);
}
);
width = 1252;
},
{
anchors = (
{
name = bottom;
position = "{658, 0}";
},
{
name = top;
position = "{838, 1454}";
}
);
layerId = "5E1C92F4-866D-4CC0-BA00-538F5374015A";
paths = (
{
closed = 1;
nodes = (
"1260 0 LINE",
"894 736 LINE",
"1416 1454 LINE",
"1102 1454 LINE",
"796 976 LINE",
"774 914 LINE",
"760 976 LINE",
"574 1454 LINE",
"258 1454 LINE {name = hr00;}",
"950 0 LINE"
);
},
{
closed = 1;
nodes = (
"364 0 LINE",
"560 290 LINE",
"644 414 OFFCURVE",
"574 582 OFFCURVE",
"532 650 CURVE",
"58 0 LINE"
);
}
);
width = 1322;
}
);
unicode = 0058;
userData = {
com.typemytype.robofont.guides = (
{
angle = 0;
isGlobal = 0;
magnetic = 5;
x = 0;
y = 457;
}
);
};
},
{
color = 6;
glyphname = Y;
layers = (
{
anchors = (
{
name = bottom;
position = "{648, 0}";
},
{
name = top;
position = "{816, 1454}";
},
{
name = topleft;
position = "{156, 1454}";
}
);
layerId = "3BBF7C5C-CA4C-45AB-AE18-0528A0ACCA90";
paths = (
{
closed = 1;
nodes = (
"740 0 LINE",
"822 674 LINE {name = hr00;}",
"450 1454 LINE",
"234 1454 LINE",
"628 618 LINE",
"554 0 LINE"
);
},
{
closed = 1;
nodes = (
"1402 1454 LINE",
"1192 1454 LINE",
"884 1004 LINE",
"818 910 OFFCURVE",
"846 814 OFFCURVE",
"888 752 CURVE"
);
}
);
width = 1320;
},
{
anchors = (
{
name = bottom;
position = "{690, 0}";
},
{
name = top;
position = "{858, 1454}";
},
{
name = topleft;
position = "{156, 1454}";
}
);
layerId = "5E1C92F4-866D-4CC0-BA00-538F5374015A";
paths = (
{
closed = 1;
nodes = (
"828 0 LINE",
"910 678 LINE {name = hr00;}",
"540 1454 LINE",
"228 1454 LINE",
"630 644 LINE",
"552 0 LINE"
);
},
{
closed = 1;
nodes = (
"1490 1454 LINE",
"1182 1454 LINE",
"952 1114 LINE",
"868 986 OFFCURVE",
"936 822 OFFCURVE",
"980 754 CURVE"
);
}
);
width = 1398;
}
);
unicode = 0059;
},
{
color = 6;
glyphname = Z;
layers = (
{
anchors = (
{
name = bottom;
position = "{694, 0}";
},
{
name = top;
position = "{898, 1454}";
}
);
layerId = "3BBF7C5C-CA4C-45AB-AE18-0528A0ACCA90";
paths = (
{
closed = 1;
nodes = (
"1216 0 LINE",
"1232 144 LINE",
"452 144 LINE",
"408 138 LINE",
"442 168 LINE",
"1364 1378 LINE",
"1374 1454 LINE",
"436 1454 LINE {name = hr00;}",
"418 1310 LINE",
"1086 1310 LINE",
"1134 1316 LINE",
"1098 1282 LINE",
"178 76 LINE",
"170 0 LINE"
);
}
);
width = 1196;
},
{
anchors = (
{
name = bottom;
position = "{640, 0}";
},
{
name = top;
position = "{850, 1454}";
}
);
layerId = "5E1C92F4-866D-4CC0-BA00-538F5374015A";
paths = (
{
closed = 1;
nodes = (
"1186 0 LINE",
"1210 206 LINE",
"494 206 LINE",
"448 200 LINE",
"484 230 LINE",
"1332 1336 LINE",
"1346 1454 LINE",
"334 1454 LINE {name = hr00;}",
"308 1252 LINE",
"940 1252 LINE",
"990 1258 LINE",
"954 1224 LINE",
"108 118 LINE",
"94 0 LINE"
);
}
);
width = 1224;
}
);
unicode = 005A;
userData = {
com.typemytype.robofont.guides = (
{
angle = 0;
isGlobal = 0;
magnetic = 5;
x = 0;
y = 38;
},
{
angle = 0;
isGlobal = 0;
magnetic = 5;
x = 0;
y = 689;
},
{
angle = 90;
isGlobal = 0;
magnetic = 5;
x = 385;
y = 0;
}
);
};
},
{
color = 6;
glyphname = a;
layers = (
{
anchors = (
{
name = bottom;
position = "{534, 0}";
},
{
name = ogonek;
position = "{1014, 10}";
},
{
name = top;
position = "{726, 1034}";
}
);
layerId = "3BBF7C5C-CA4C-45AB-AE18-0528A0ACCA90";
paths = (
{
closed = 1;
nodes = (
"592 0 OFFCURVE",
"668 28 OFFCURVE",
"736 76 CURVE",
"692 134 OFFCURVE",
"638 150 OFFCURVE",
"580 142 CURVE SMOOTH",
"396 112 OFFCURVE",
"328 286 OFFCURVE",
"356 512 CURVE SMOOTH",
"388 768 OFFCURVE",
"538 910 OFFCURVE",
"738 910 CURVE SMOOTH",
"798 910 OFFCURVE",
"848 904 OFFCURVE",
"908 888 CURVE",
"822 194 LINE SMOOTH",
"810 90 OFFCURVE",
"840 24 OFFCURVE",
"878 0 CURVE",
"1014 10 LINE",
"1006 80 OFFCURVE",
"1004 192 OFFCURVE",
"1024 352 CURVE {name = hr00;}",
"1102 990 LINE",
"970 1036 OFFCURVE",
"868 1054 OFFCURVE",
"756 1054 CURVE SMOOTH",
"446 1054 OFFCURVE",
"200 838 OFFCURVE",
"160 512 CURVE SMOOTH",
"120 186 OFFCURVE",
"294 -42 OFFCURVE",
"532 -10 CURVE SMOOTH"
);
}
);
width = 1130;
},
{
anchors = (
{
name = bottom;
position = "{570, 0}";
},
{
name = ogonek;
position = "{1100, 0}";
},
{
name = top;
position = "{770, 1034}";
}
);
layerId = "5E1C92F4-866D-4CC0-BA00-538F5374015A";
paths = (
{
closed = 1;
nodes = (
"566 -14 OFFCURVE",
"652 20 OFFCURVE",
"732 64 CURVE",
"690 138 OFFCURVE",
"656 200 OFFCURVE",
"578 194 CURVE SMOOTH {name = hr01;}",
"442 184 OFFCURVE",
"432 352 OFFCURVE",
"448 480 CURVE SMOOTH",
"474 700 OFFCURVE",
"590 852 OFFCURVE",
"772 852 CURVE SMOOTH",
"800 852 OFFCURVE",
"848 848 OFFCURVE",
"900 836 CURVE",
"824 210 LINE SMOOTH",
"812 112 OFFCURVE",
"854 18 OFFCURVE",
"886 0 CURVE",
"1100 0 LINE",
"1088 94 OFFCURVE",
"1090 178 OFFCURVE",
"1100 252 CURVE",
"1192 998 LINE",
"998 1048 OFFCURVE",
"898 1058 OFFCURVE",
"786 1058 CURVE SMOOTH",
"428 1058 OFFCURVE",
"188 798 OFFCURVE",
"150 480 CURVE SMOOTH",
"120 242 OFFCURVE",
"244 -32 OFFCURVE",
"498 -18 CURVE SMOOTH"
);
}
);
width = 1226;
}
);
unicode = 0061;
},
{
color = 6;
glyphname = ae;
layers = (
{
anchors = (
{
name = bottom;
position = "{838, 0}";
},
{
name = top;
position = "{974, 1034}";
}
);
layerId = "3BBF7C5C-CA4C-45AB-AE18-0528A0ACCA90";
paths = (
{
closed = 1;
nodes = (
"610 -20 OFFCURVE",
"774 90 OFFCURVE",
"850 262 CURVE",
"884 104 OFFCURVE",
"1032 -20 OFFCURVE",
"1198 -20 CURVE SMOOTH",
"1294 -20 OFFCURVE",
"1420 -2 OFFCURVE",
"1556 64 CURVE",
"1524 196 LINE",
"1402 138 OFFCURVE",
"1328 124 OFFCURVE",
"1236 124 CURVE SMOOTH",
"1054 124 OFFCURVE",
"938 286 OFFCURVE",
"968 524 CURVE SMOOTH",
"998 770 OFFCURVE",
"1130 910 OFFCURVE",
"1298 910 CURVE SMOOTH",
"1428 910 OFFCURVE",
"1514 788 OFFCURVE",
"1476 634 CURVE {name = hr00;}",
"1222 634 LINE",
"1126 634 OFFCURVE",
"1074 576 OFFCURVE",
"1036 500 CURVE",
"1616 500 LINE",
"1740 786 OFFCURVE",
"1610 1054 OFFCURVE",
"1336 1054 CURVE SMOOTH",
"1176 1054 OFFCURVE",
"1016 962 OFFCURVE",
"934 838 CURVE",
"896 964 OFFCURVE",
"784 1054 OFFCURVE",
"630 1054 CURVE SMOOTH",
"542 1054 OFFCURVE",
"444 1042 OFFCURVE",
"308 986 CURVE",
"338 862 LINE",
"440 896 OFFCURVE",
"504 910 OFFCURVE",
"576 910 CURVE SMOOTH",
"758 910 OFFCURVE",
"816 800 OFFCURVE",
"796 642 CURVE SMOOTH",
"782 524 LINE",
"750 268 OFFCURVE",
"636 124 OFFCURVE",
"468 124 CURVE SMOOTH",
"366 124 OFFCURVE",
"312 194 OFFCURVE",
"322 276 CURVE SMOOTH",
"332 350 OFFCURVE",
"376 422 OFFCURVE",
"556 450 CURVE SMOOTH",
"664 466 OFFCURVE",
"706 556 OFFCURVE",
"720 604 CURVE",
"304 556 OFFCURVE",
"148 466 OFFCURVE",
"124 264 CURVE SMOOTH",
"104 102 OFFCURVE",
"216 -20 OFFCURVE",
"424 -20 CURVE SMOOTH"
);
}
);
width = 1700;
},
{
anchors = (
{
name = bottom;
position = "{810, 0}";
},
{
name = top;
position = "{956, 1034}";
}
);
layerId = "5E1C92F4-866D-4CC0-BA00-538F5374015A";
paths = (
{
closed = 1;
nodes = (
"544 -26 OFFCURVE",
"736 52 OFFCURVE",
"842 242 CURVE",
"870 114 OFFCURVE",
"1010 -26 OFFCURVE",
"1198 -26 CURVE SMOOTH",
"1322 -26 OFFCURVE",
"1450 0 OFFCURVE",
"1602 68 CURVE",
"1554 254 LINE",
"1432 202 OFFCURVE",
"1346 180 OFFCURVE",
"1254 180 CURVE SMOOTH",
"1086 180 OFFCURVE",
"988 314 OFFCURVE",
"1016 544 CURVE SMOOTH",
"1044 772 OFFCURVE",
"1180 866 OFFCURVE",
"1290 866 CURVE SMOOTH",
"1412 866 OFFCURVE",
"1468 756 OFFCURVE",
"1436 634 CURVE",
"1258 634 LINE SMOOTH",
"1190 634 OFFCURVE",
"1122 562 OFFCURVE",
"1082 470 CURVE",
"1642 470 LINE",
"1802 814 OFFCURVE",
"1624 1060 OFFCURVE",
"1328 1060 CURVE SMOOTH {name = hr02;}",
"1190 1060 OFFCURVE",
"1028 974 OFFCURVE",
"936 840 CURVE",
"878 982 OFFCURVE",
"754 1056 OFFCURVE",
"628 1056 CURVE SMOOTH {name = hr01;}",
"534 1056 OFFCURVE",
"396 1034 OFFCURVE",
"272 980 CURVE",
"318 804 LINE",
"416 838 OFFCURVE",
"492 850 OFFCURVE",
"558 850 CURVE SMOOTH",
"698 850 OFFCURVE",
"766 760 OFFCURVE",
"750 622 CURVE SMOOTH",
"738 530 LINE SMOOTH",
"712 324 OFFCURVE",
"610 180 OFFCURVE",
"470 180 CURVE SMOOTH",
"400 180 OFFCURVE",
"350 232 OFFCURVE",
"358 302 CURVE SMOOTH",
"366 368 OFFCURVE",
"418 424 OFFCURVE",
"520 440 CURVE",
"604 456 OFFCURVE",
"652 532 OFFCURVE",
"678 626 CURVE",
"252 594 OFFCURVE",
"108 442 OFFCURVE",
"86 276 CURVE",
"64 88 OFFCURVE",
"196 -26 OFFCURVE",
"410 -26 CURVE SMOOTH"
);
}
);
width = 1700;
}
);
unicode = 00E6;
},
{
color = 6;
glyphname = b;
layers = (
{
anchors = (
{
name = bottom;
position = "{538, 0}";
},
{
name = top;
position = "{444, 1516}";
}
);
layerId = "3BBF7C5C-CA4C-45AB-AE18-0528A0ACCA90";
paths = (
{
closed = 1;
nodes = (
"850 -20 OFFCURVE",
"1082 204 OFFCURVE",
"1122 522 CURVE SMOOTH",
"1164 870 OFFCURVE",
"976 1056 OFFCURVE",
"758 1044 CURVE SMOOTH",
"698 1042 OFFCURVE",
"610 1018 OFFCURVE",
"538 980 CURVE {name = hr00;}",
"576 920 OFFCURVE",
"626 890 OFFCURVE",
"686 896 CURVE SMOOTH",
"856 916 OFFCURVE",
"958 786 OFFCURVE",
"926 522 CURVE SMOOTH",
"896 286 OFFCURVE",
"758 124 OFFCURVE",
"568 124 CURVE SMOOTH",
"508 124 OFFCURVE",
"432 132 OFFCURVE",
"370 156 CURVE",
"536 1502 LINE",
"352 1516 LINE",
"174 80 LINE",
"280 14 OFFCURVE",
"406 -20 OFFCURVE",
"550 -20 CURVE SMOOTH"
);
}
);
width = 1164;
},
{
anchors = (
{
name = bottom;
position = "{552, 0}";
},
{
name = top;
position = "{472, 1516}";
}
);
layerId = "5E1C92F4-866D-4CC0-BA00-538F5374015A";
paths = (
{
closed = 1;
nodes = (
"920 -30 OFFCURVE",
"1162 228 OFFCURVE",
"1204 554 CURVE SMOOTH",
"1232 794 OFFCURVE",
"1104 1066 OFFCURVE",
"850 1052 CURVE SMOOTH",
"782 1048 OFFCURVE",
"698 1028 OFFCURVE",
"618 992 CURVE",
"654 912 OFFCURVE",
"684 836 OFFCURVE",
"774 846 CURVE SMOOTH {name = hr00;}",
"906 858 OFFCURVE",
"920 682 OFFCURVE",
"906 554 CURVE SMOOTH",
"878 334 OFFCURVE",
"762 176 OFFCURVE",
"606 176 CURVE SMOOTH",
"552 176 OFFCURVE",
"508 180 OFFCURVE",
"448 196 CURVE",
"608 1502 LINE",
"332 1516 LINE",
"156 84 LINE",
"308 0 OFFCURVE",
"436 -30 OFFCURVE",
"582 -30 CURVE SMOOTH"
);
}
);
width = 1220;
}
);
unicode = 0062;
},
{
color = 6;
glyphname = c;
layers = (
{
anchors = (
{
name = bottom;
position = "{496, 0}";
},
{
name = top;
position = "{626, 1034}";
}
);
layerId = "3BBF7C5C-CA4C-45AB-AE18-0528A0ACCA90";
paths = (
{
closed = 1;
nodes = (
"624 -20 OFFCURVE",
"726 -4 OFFCURVE",
"842 50 CURVE",
"808 182 LINE",
"710 140 OFFCURVE",
"638 124 OFFCURVE",
"580 124 CURVE SMOOTH",
"426 124 OFFCURVE",
"312 248 OFFCURVE",
"344 518 CURVE SMOOTH",
"378 786 OFFCURVE",
"524 910 OFFCURVE",
"676 910 CURVE SMOOTH",
"736 910 OFFCURVE",
"798 902 OFFCURVE",
"872 882 CURVE",
"934 1012 LINE",
"856 1042 OFFCURVE",
"766 1054 OFFCURVE",
"694 1054 CURVE SMOOTH",
"436 1054 OFFCURVE",
"190 864 OFFCURVE",
"146 518 CURVE SMOOTH",
"104 170 OFFCURVE",
"294 -20 OFFCURVE",
"562 -20 CURVE SMOOTH {name = hr00;}"
);
}
);
width = 854;
},
{
anchors = (
{
name = bottom;
position = "{514, 0}";
},
{
name = top;
position = "{634, 1034}";
}
);
layerId = "5E1C92F4-866D-4CC0-BA00-538F5374015A";
paths = (
{
closed = 1;
nodes = (
"660 -26 OFFCURVE",
"756 -4 OFFCURVE",
"866 44 CURVE",
"820 228 LINE",
"730 194 OFFCURVE",
"670 180 OFFCURVE",
"614 180 CURVE SMOOTH",
"470 180 OFFCURVE",
"388 308 OFFCURVE",
"414 518 CURVE SMOOTH",
"440 726 OFFCURVE",
"552 854 OFFCURVE",
"696 854 CURVE SMOOTH",
"740 854 OFFCURVE",
"804 846 OFFCURVE",
"866 830 CURVE",
"958 1016 LINE",
"882 1046 OFFCURVE",
"794 1060 OFFCURVE",
"722 1060 CURVE SMOOTH {name = hr00;}",
"444 1060 OFFCURVE",
"164 880 OFFCURVE",
"118 518 CURVE SMOOTH",
"72 134 OFFCURVE",
"310 -26 OFFCURVE",
"588 -26 CURVE SMOOTH"
);
}
);
width = 860;
}
);
unicode = 0063;
},
{
color = 6;
glyphname = d;
layers = (
{
anchors = (
{
name = bottom;
position = "{534, 0}";
},
{
name = center;
position = "{968, 1280}";
},
{
name = top;
position = "{1112, 1516}";
},
{
name = topright;
position = "{1340, 1516}";
}
);
layerId = "3BBF7C5C-CA4C-45AB-AE18-0528A0ACCA90";
paths = (
{
closed = 1;
nodes = (
"620 -20 OFFCURVE",
"744 12 OFFCURVE",
"838 106 CURVE",
"858 140 LINE",
"858 108 LINE",
"872 54 OFFCURVE",
"886 28 OFFCURVE",
"916 0 CURVE {name = hr01;}",
"1052 10 LINE",
"1044 80 OFFCURVE",
"1042 192 OFFCURVE",
"1062 352 CURVE SMOOTH",
"1204 1502 LINE",
"1020 1516 LINE",
"866 270 LINE",
"772 170 OFFCURVE",
"678 124 OFFCURVE",
"586 124 CURVE",
"410 124 OFFCURVE",
"334 290 OFFCURVE",
"364 522 CURVE",
"396 794 OFFCURVE",
"550 906 OFFCURVE",
"688 902 CURVE SMOOTH",
"782 900 OFFCURVE",
"846 946 OFFCURVE",
"890 1012 CURVE",
"820 1038 OFFCURVE",
"754 1046 OFFCURVE",
"694 1046 CURVE SMOOTH",
"456 1046 OFFCURVE",
"204 842 OFFCURVE",
"166 522 CURVE",
"128 216 OFFCURVE",
"258 -20 OFFCURVE",
"538 -20 CURVE {name = hr02;}"
);
}
);
width = 1196;
},
{
anchors = (
{
name = bottom;
position = "{556, 0}";
},
{
name = center;
position = "{978, 1270}";
},
{
name = top;
position = "{1126, 1516}";
},
{
name = topright;
position = "{1390, 1516}";
}
);
layerId = "5E1C92F4-866D-4CC0-BA00-538F5374015A";
paths = (
{
closed = 1;
nodes = (
"596 -26 OFFCURVE",
"680 2 OFFCURVE",
"794 96 CURVE",
"834 140 LINE",
"838 94 LINE",
"848 56 OFFCURVE",
"866 18 OFFCURVE",
"898 0 CURVE {name = hr01;}",
"1114 10 LINE",
"1102 104 OFFCURVE",
"1104 188 OFFCURVE",
"1114 262 CURVE",
"1266 1502 LINE",
"990 1516 LINE",
"842 320 LINE",
"746 224 OFFCURVE",
"670 180 OFFCURVE",
"594 180 CURVE",
"460 180 OFFCURVE",
"400 338 OFFCURVE",
"424 524 CURVE",
"446 712 OFFCURVE",
"520 846 OFFCURVE",
"686 856 CURVE SMOOTH",
"752 862 OFFCURVE",
"808 924 OFFCURVE",
"856 1016 CURVE",
"756 1046 OFFCURVE",
"700 1052 OFFCURVE",
"632 1052 CURVE SMOOTH",
"402 1052 OFFCURVE",
"162 806 OFFCURVE",
"128 524 CURVE",
"88 208 OFFCURVE",
"228 -26 OFFCURVE",
"518 -26 CURVE"
);
}
);
width = 1238;
}
);
unicode = 0064;
},
{
color = 6;
glyphname = eth;
layers = (
{
layerId = "3BBF7C5C-CA4C-45AB-AE18-0528A0ACCA90";
paths = (
{
closed = 1;
nodes = (
"816 -20 OFFCURVE",
"1064 170 OFFCURVE",
"1106 518 CURVE {name = hr00;}",
"1154 902 OFFCURVE",
"936 1212 OFFCURVE",
"850 1292 CURVE",
"1040 1378 LINE",
"1010 1466 LINE",
"772 1358 LINE",
"694 1420 OFFCURVE",
"600 1476 OFFCURVE",
"510 1520 CURVE",
"432 1404 LINE",
"500 1368 OFFCURVE",
"558 1334 OFFCURVE",
"614 1290 CURVE",
"404 1192 LINE",
"430 1106 LINE",
"696 1226 LINE",
"798 1140 OFFCURVE",
"842 1068 OFFCURVE",
"898 962 CURVE",
"830 1028 OFFCURVE",
"774 1054 OFFCURVE",
"686 1054 CURVE SMOOTH",
"432 1054 OFFCURVE",
"186 864 OFFCURVE",
"142 518 CURVE SMOOTH",
"100 170 OFFCURVE",
"290 -20 OFFCURVE",
"558 -20 CURVE SMOOTH"
);
},
{
closed = 1;
nodes = (
"422 124 OFFCURVE",
"308 248 OFFCURVE",
"340 518 CURVE SMOOTH",
"374 786 OFFCURVE",
"520 910 OFFCURVE",
"672 910 CURVE SMOOTH",
"824 910 OFFCURVE",
"942 786 OFFCURVE",
"908 518 CURVE SMOOTH",
"876 248 OFFCURVE",
"728 124 OFFCURVE",
"576 124 CURVE SMOOTH"
);
}
);
width = 1114;
},
{
layerId = "5E1C92F4-866D-4CC0-BA00-538F5374015A";
paths = (
{
closed = 1;
nodes = (
"858 -26 OFFCURVE",
"1124 210 OFFCURVE",
"1162 518 CURVE SMOOTH {name = hr00;}",
"1202 836 OFFCURVE",
"1078 1098 OFFCURVE",
"878 1288 CURVE",
"1046 1364 LINE",
"1002 1482 LINE",
"770 1376 LINE",
"692 1436 OFFCURVE",
"604 1484 OFFCURVE",
"512 1524 CURVE",
"408 1372 LINE",
"460 1346 OFFCURVE",
"512 1316 OFFCURVE",
"564 1284 CURVE",
"398 1208 LINE",
"438 1092 LINE",
"680 1200 LINE",
"742 1150 OFFCURVE",
"796 1092 OFFCURVE",
"838 1030 CURVE",
"794 1050 OFFCURVE",
"740 1060 OFFCURVE",
"694 1060 CURVE SMOOTH",
"394 1060 OFFCURVE",
"128 824 OFFCURVE",
"90 518 CURVE SMOOTH",
"50 184 OFFCURVE",
"260 -26 OFFCURVE",
"560 -26 CURVE SMOOTH"
);
},
{
closed = 1;
nodes = (
"428 178 OFFCURVE",
"364 330 OFFCURVE",
"386 518 CURVE SMOOTH",
"410 704 OFFCURVE",
"512 856 OFFCURVE",
"668 856 CURVE SMOOTH",
"824 856 OFFCURVE",
"888 704 OFFCURVE",
"864 518 CURVE SMOOTH",
"842 330 OFFCURVE",
"740 178 OFFCURVE",
"584 178 CURVE SMOOTH"
);
}
);
width = 1114;
}
);
unicode = 00F0;
},
{
color = 6;
glyphname = e;
layers = (
{
anchors = (
{
name = bottom;
position = "{566, 0}";
},
{
name = ogonek;
position = "{818, 0}";
},
{
name = top;
position = "{698, 1034}";
}
);
layerId = "3BBF7C5C-CA4C-45AB-AE18-0528A0ACCA90";
paths = (
{
closed = 1;
nodes = (
"688 -20 OFFCURVE",
"814 -2 OFFCURVE",
"950 64 CURVE",
"918 196 LINE",
"796 138 OFFCURVE",
"722 124 OFFCURVE",
"630 124 CURVE SMOOTH",
"448 124 OFFCURVE",
"332 286 OFFCURVE",
"362 524 CURVE SMOOTH",
"392 770 OFFCURVE",
"524 910 OFFCURVE",
"692 910 CURVE SMOOTH",
"822 910 OFFCURVE",
"908 788 OFFCURVE",
"870 634 CURVE {name = hr00;}",
"616 634 LINE",
"520 634 OFFCURVE",
"468 576 OFFCURVE",
"430 500 CURVE",
"1010 500 LINE",
"1134 786 OFFCURVE",
"1004 1054 OFFCURVE",
"730 1054 CURVE SMOOTH",
"428 1054 OFFCURVE",
"216 850 OFFCURVE",
"176 526 CURVE SMOOTH",
"138 212 OFFCURVE",
"298 -20 OFFCURVE",
"592 -20 CURVE SMOOTH"
);
}
);
width = 1088;
},
{
anchors = (
{
name = bottom;
position = "{590, 0}";
},
{
name = ogonek;
position = "{832, 0}";
},
{
name = top;
position = "{718, 1034}";
}
);
layerId = "5E1C92F4-866D-4CC0-BA00-538F5374015A";
paths = (
{
closed = 1;
nodes = (
"738 -26 OFFCURVE",
"866 0 OFFCURVE",
"1018 68 CURVE",
"970 254 LINE",
"848 202 OFFCURVE",
"762 180 OFFCURVE",
"670 180 CURVE SMOOTH",
"502 180 OFFCURVE",
"404 314 OFFCURVE",
"432 544 CURVE SMOOTH",
"460 772 OFFCURVE",
"596 866 OFFCURVE",
"706 866 CURVE SMOOTH",
"828 866 OFFCURVE",
"884 756 OFFCURVE",
"852 634 CURVE {name = hr00;}",
"674 634 LINE",
"606 634 OFFCURVE",
"538 562 OFFCURVE",
"498 470 CURVE",
"1058 470 LINE",
"1218 814 OFFCURVE",
"1040 1060 OFFCURVE",
"744 1060 CURVE SMOOTH",
"454 1060 OFFCURVE",
"196 864 OFFCURVE",
"154 534 CURVE SMOOTH",
"122 264 OFFCURVE",
"248 -26 OFFCURVE",
"614 -26 CURVE SMOOTH"
);
}
);
width = 1128;
}
);
unicode = 0065;
},
{
color = 6;
glyphname = f;
layers = (
{
anchors = (
{
name = bottom;
position = "{270, 0}";
},
{
name = top;
position = "{752, 1516}";
}
);
layerId = "3BBF7C5C-CA4C-45AB-AE18-0528A0ACCA90";
paths = (
{
closed = 1;
nodes = (
"356 0 LINE",
"492 1110 LINE SMOOTH",
"516 1310 OFFCURVE",
"646 1390 OFFCURVE",
"758 1390 CURVE SMOOTH",
"800 1390 OFFCURVE",
"850 1384 OFFCURVE",
"932 1352 CURVE",
"988 1474 LINE",
"900 1514 OFFCURVE",
"818 1526 OFFCURVE",
"752 1526 CURVE SMOOTH",
"508 1526 OFFCURVE",
"348 1354 OFFCURVE",
"314 1090 CURVE SMOOTH",
"308 1034 LINE",
"130 992 LINE",
"120 896 LINE {name = hr00;}",
"292 896 LINE",
"182 0 LINE"
);
},
{
closed = 1;
nodes = (
"828 896 LINE",
"844 1034 LINE",
"724 1034 LINE",
"628 1034 OFFCURVE",
"574 972 OFFCURVE",
"538 896 CURVE"
);
}
);
width = 780;
},
{
anchors = (
{
name = bottom;
position = "{342, 0}";
},
{
name = top;
position = "{816, 1516}";
}
);
layerId = "5E1C92F4-866D-4CC0-BA00-538F5374015A";
paths = (
{
closed = 1;
nodes = (
"474 0 LINE",
"606 1090 LINE SMOOTH",
"624 1228 OFFCURVE",
"710 1320 OFFCURVE",
"840 1320 CURVE SMOOTH",
"886 1320 OFFCURVE",
"934 1310 OFFCURVE",
"1010 1288 CURVE",
"1094 1466 LINE",
"994 1512 OFFCURVE",
"900 1526 OFFCURVE",
"834 1526 CURVE SMOOTH",
"566 1526 OFFCURVE",
"376 1352 OFFCURVE",
"342 1090 CURVE SMOOTH",
"336 1034 LINE",
"166 994 LINE",
"146 836 LINE",
"312 836 LINE {name = hr00;}",
"210 0 LINE"
);
},
{
closed = 1;
nodes = (
"932 836 LINE",
"956 1034 LINE",
"868 1034 LINE",
"752 1034 OFFCURVE",
"680 924 OFFCURVE",
"644 836 CURVE"
);
}
);
width = 874;
}
);
unicode = 0066;
},
{
color = 6;
glyphname = g;
layers = (
{
anchors = (
{
name = bottom;
position = "{472, -482}";
},
{
name = top;
position = "{732, 1034}";
}
);
layerId = "3BBF7C5C-CA4C-45AB-AE18-0528A0ACCA90";
paths = (
{
closed = 1;
nodes = (
"748 -500 OFFCURVE",
"954 -298 OFFCURVE",
"992 0 CURVE",
"1112 990 LINE",
"980 1036 OFFCURVE",
"878 1054 OFFCURVE",
"766 1054 CURVE SMOOTH",
"456 1054 OFFCURVE",
"210 838 OFFCURVE",
"170 512 CURVE {name = hr00;}",
"130 186 OFFCURVE",
"306 -44 OFFCURVE",
"544 -10 CURVE SMOOTH",
"604 -2 OFFCURVE",
"680 26 OFFCURVE",
"748 74 CURVE",
"704 132 OFFCURVE",
"650 148 OFFCURVE",
"592 140 CURVE SMOOTH",
"408 110 OFFCURVE",
"338 286 OFFCURVE",
"366 512 CURVE",
"398 768 OFFCURVE",
"548 910 OFFCURVE",
"748 910 CURVE SMOOTH",
"808 910 OFFCURVE",
"858 904 OFFCURVE",
"918 888 CURVE",
"806 -22 LINE",
"778 -250 OFFCURVE",
"626 -356 OFFCURVE",
"458 -356 CURVE SMOOTH",
"374 -356 OFFCURVE",
"280 -336 OFFCURVE",
"172 -280 CURVE",
"104 -416 LINE",
"228 -484 OFFCURVE",
"352 -500 OFFCURVE",
"456 -500 CURVE SMOOTH"
);
}
);
width = 1142;
},
{
anchors = (
{
name = bottom;
position = "{514, -482}";
},
{
name = top;
position = "{736, 1034}";
}
);
layerId = "5E1C92F4-866D-4CC0-BA00-538F5374015A";
paths = (
{
closed = 1;
nodes = (
"758 -500 OFFCURVE",
"1012 -366 OFFCURVE",
"1058 0 CURVE",
"1180 998 LINE",
"988 1048 OFFCURVE",
"888 1058 OFFCURVE",
"774 1058 CURVE SMOOTH",
"418 1058 OFFCURVE",
"178 798 OFFCURVE",
"140 480 CURVE",
"110 242 OFFCURVE",
"232 -32 OFFCURVE",
"488 -18 CURVE SMOOTH",
"556 -14 OFFCURVE",
"642 20 OFFCURVE",
"720 64 CURVE",
"680 138 OFFCURVE",
"646 200 OFFCURVE",
"566 194 CURVE SMOOTH",
"432 184 OFFCURVE",
"422 352 OFFCURVE",
"438 480 CURVE {name = hr00;}",
"464 700 OFFCURVE",
"580 852 OFFCURVE",
"762 852 CURVE SMOOTH",
"790 852 OFFCURVE",
"838 848 OFFCURVE",
"888 836 CURVE",
"782 -22 LINE",
"760 -206 OFFCURVE",
"622 -300 OFFCURVE",
"474 -300 CURVE SMOOTH",
"390 -300 OFFCURVE",
"300 -284 OFFCURVE",
"172 -230 CURVE",
"80 -416 LINE",
"228 -484 OFFCURVE",
"362 -500 OFFCURVE",
"466 -500 CURVE SMOOTH"
);
}
);
width = 1182;
}
);
unicode = 0067;
},
{
color = 6;
glyphname = h;
layers = (
{
anchors = (
{
name = bottom;
position = "{582, 0}";
},
{
name = center;
position = "{550, 1280}";
},
{
name = top;
position = "{444, 1516}";
}
);
layerId = "3BBF7C5C-CA4C-45AB-AE18-0528A0ACCA90";
paths = (
{
closed = 1;
nodes = (
"352 0 LINE",
"536 1502 LINE",
"352 1516 LINE",
"166 0 LINE {name = hr00;}"
);
},
{
closed = 1;
nodes = (
"1004 0 LINE",
"1092 732 LINE SMOOTH",
"1124 980 OFFCURVE",
"1006 1054 OFFCURVE",
"852 1054 CURVE SMOOTH",
"778 1054 OFFCURVE",
"690 1032 OFFCURVE",
"538 948 CURVE",
"586 890 OFFCURVE",
"646 876 OFFCURVE",
"726 894 CURVE SMOOTH",
"764 902 OFFCURVE",
"778 910 OFFCURVE",
"810 910 CURVE SMOOTH",
"888 910 OFFCURVE",
"914 844 OFFCURVE",
"904 752 CURVE",
"812 0 LINE"
);
}
);
width = 1164;
},
{
anchors = (
{
name = bottom;
position = "{608, 0}";
},
{
name = center;
position = "{566, 1270}";
},
{
name = top;
position = "{470, 1516}";
}
);
layerId = "5E1C92F4-866D-4CC0-BA00-538F5374015A";
paths = (
{
closed = 1;
nodes = (
"424 0 LINE",
"608 1502 LINE",
"332 1516 LINE",
"146 0 LINE {name = hr00;}"
);
},
{
closed = 1;
nodes = (
"1070 0 LINE",
"1160 738 LINE SMOOTH",
"1186 956 OFFCURVE",
"1060 1060 OFFCURVE",
"922 1060 CURVE SMOOTH",
"848 1060 OFFCURVE",
"754 1046 OFFCURVE",
"614 972 CURVE",
"644 900 OFFCURVE",
"678 834 OFFCURVE",
"738 838 CURVE SMOOTH",
"772 840 OFFCURVE",
"784 848 OFFCURVE",
"808 848 CURVE SMOOTH",
"868 848 OFFCURVE",
"890 800 OFFCURVE",
"882 734 CURVE",
"792 0 LINE"
);
}
);
width = 1216;
}
);
unicode = 0068;
},
{
color = 6;
glyphname = idotless;
layers = (
{
anchors = (
{
name = bottom;
position = "{256, 0}";
},
{
name = ogonek;
position = "{352, 0}";
},
{
name = top;
position = "{382, 1034}";
}
);
layerId = "3BBF7C5C-CA4C-45AB-AE18-0528A0ACCA90";
paths = (
{
closed = 1;
nodes = (
"352 0 LINE",
"478 1034 LINE",
"286 1034 LINE",
"160 0 LINE {name = hr00;}"
);
}
);
width = 512;
},
{
anchors = (
{
name = bottom;
position = "{280, 0}";
},
{
name = ogonek;
position = "{420, 0}";
},
{
name = top;
position = "{406, 1034}";
}
);
layerId = "5E1C92F4-866D-4CC0-BA00-538F5374015A";
paths = (
{
closed = 1;
nodes = (
"420 0 LINE",
"546 1034 LINE",
"266 1034 LINE",
"140 0 LINE {name = hr00;}"
);
}
);
width = 560;
}
);
unicode = 0131;
},
{
color = 6;
glyphname = j;
layers = (
{
layerId = "3BBF7C5C-CA4C-45AB-AE18-0528A0ACCA90";
paths = (
{
closed = 1;
nodes = (
"298 -286 OFFCURVE",
"374 -134 OFFCURVE",
"400 78 CURVE",
"518 1034 LINE",
"328 1034 LINE {name = hr01;}",
"210 78 LINE SMOOTH",
"188 -110 OFFCURVE",
"142 -202 OFFCURVE",
"-96 -390 CURVE",
"-24 -496 LINE"
);
},
{
closed = 1;
nodes = (
"516 1214 OFFCURVE",
"574 1264 OFFCURVE",
"582 1334 CURVE SMOOTH",
"592 1406 OFFCURVE",
"546 1458 OFFCURVE",
"474 1458 CURVE SMOOTH",
"404 1458 OFFCURVE",
"350 1406 OFFCURVE",
"340 1334 CURVE",
"332 1264 OFFCURVE",
"374 1214 OFFCURVE",
"444 1214 CURVE SMOOTH"
);
}
);
width = 558;
},
{
layerId = "5E1C92F4-866D-4CC0-BA00-538F5374015A";
paths = (
{
closed = 1;
nodes = (
"318 -294 OFFCURVE",
"424 -156 OFFCURVE",
"454 96 CURVE",
"570 1034 LINE",
"292 1034 LINE",
"176 96 LINE SMOOTH",
"152 -100 OFFCURVE",
"104 -182 OFFCURVE",
"-112 -352 CURVE",
"-12 -498 LINE"
);
},
{
closed = 1;
nodes = (
"542 1170 OFFCURVE",
"624 1242 OFFCURVE",
"634 1334 CURVE SMOOTH",
"646 1428 OFFCURVE",
"584 1502 OFFCURVE",
"490 1502 CURVE SMOOTH {name = hr01;}",
"398 1502 OFFCURVE",
"316 1428 OFFCURVE",
"304 1334 CURVE SMOOTH",
"294 1242 OFFCURVE",
"356 1170 OFFCURVE",
"448 1170 CURVE SMOOTH"
);
}
);
width = 590;
}
);
unicode = 006A;
},
{
color = 6;
glyphname = k;
layers = (
{
anchors = (
{
name = bottom;
position = "{612, 0}";
},
{
name = top;
position = "{444, 1516}";
}
);
layerId = "3BBF7C5C-CA4C-45AB-AE18-0528A0ACCA90";
paths = (
{
closed = 1;
nodes = (
"1114 0 LINE",
"806 670 LINE",
"1166 1020 LINE",
"960 1034 LINE",
"588 656 LINE SMOOTH",
"502 570 OFFCURVE",
"476 444 OFFCURVE",
"496 366 CURVE",
"636 504 LINE",
"672 540 LINE",
"690 498 LINE",
"902 0 LINE"
);
},
{
closed = 1;
nodes = (
"352 0 LINE {name = hr00;}",
"536 1502 LINE",
"352 1516 LINE",
"166 0 LINE"
);
}
);
width = 1162;
},
{
anchors = (
{
name = bottom;
position = "{652, 0}";
},
{
name = top;
position = "{470, 1516}";
}
);
layerId = "5E1C92F4-866D-4CC0-BA00-538F5374015A";
paths = (
{
closed = 1;
nodes = (
"1212 0 LINE",
"896 676 LINE",
"1260 1020 LINE",
"954 1034 LINE",
"748 816 LINE SMOOTH",
"636 698 OFFCURVE",
"554 544 OFFCURVE",
"562 360 CURVE",
"684 474 LINE",
"716 514 LINE",
"724 466 LINE",
"904 0 LINE"
);
},
{
closed = 1;
nodes = (
"424 0 LINE {name = hr00;}",
"608 1502 LINE",
"332 1516 LINE",
"146 0 LINE"
);
}
);
width = 1248;
}
);
unicode = 006B;
},
{
color = 6;
glyphname = l;
layers = (
{
anchors = (
{
name = bottom;
position = "{262, 0}";
},
{
name = center;
position = "{372, 900}";
},
{
name = top;
position = "{446, 1516}";
},
{
name = topright;
position = "{614, 1516}";
}
);
layerId = "3BBF7C5C-CA4C-45AB-AE18-0528A0ACCA90";
paths = (
{
closed = 1;
nodes = (
"352 0 LINE {name = hr00;}",
"536 1502 LINE",
"356 1516 LINE",
"170 0 LINE"
);
}
);
width = 508;
},
{
anchors = (
{
name = bottom;
position = "{290, 0}";
},
{
name = center;
position = "{400, 900}";
},
{
name = top;
position = "{474, 1516}";
},
{
name = topright;
position = "{712, 1516}";
}
);
layerId = "5E1C92F4-866D-4CC0-BA00-538F5374015A";
paths = (
{
closed = 1;
nodes = (
"428 0 LINE {name = hr00;}",
"612 1502 LINE",
"336 1516 LINE",
"150 0 LINE"
);
}
);
width = 564;
}
);
unicode = 006C;
},
{
color = 6;
glyphname = m;
layers = (
{
anchors = (
{
name = bottom;
position = "{910, 0}";
},
{
name = top;
position = "{1032, 1034}";
}
);
layerId = "3BBF7C5C-CA4C-45AB-AE18-0528A0ACCA90";
paths = (
{
closed = 1;
nodes = (
"1648 0 LINE",
"1736 732 LINE SMOOTH",
"1768 980 OFFCURVE",
"1638 1054 OFFCURVE",
"1480 1054 CURVE SMOOTH",
"1408 1054 OFFCURVE",
"1308 1032 OFFCURVE",
"1156 948 CURVE",
"1204 890 OFFCURVE",
"1268 876 OFFCURVE",
"1348 894 CURVE SMOOTH",
"1386 902 OFFCURVE",
"1410 910 OFFCURVE",
"1442 910 CURVE SMOOTH",
"1526 910 OFFCURVE",
"1558 844 OFFCURVE",
"1548 752 CURVE",
"1456 0 LINE"
);
},
{
closed = 1;
nodes = (
"362 0 LINE",
"460 814 LINE SMOOTH",
"470 894 OFFCURVE",
"466 962 OFFCURVE",
"410 1034 CURVE",
"264 1024 LINE",
"274 930 OFFCURVE",
"272 846 OFFCURVE",
"264 772 CURVE SMOOTH",
"170 0 LINE"
);
},
{
closed = 1;
nodes = (
"1006 0 LINE",
"1094 732 LINE SMOOTH",
"1126 980 OFFCURVE",
"1004 1054 OFFCURVE",
"848 1054 CURVE SMOOTH",
"776 1054 OFFCURVE",
"684 1034 OFFCURVE",
"532 950 CURVE",
"580 892 OFFCURVE",
"640 878 OFFCURVE",
"722 896 CURVE SMOOTH",
"756 904 OFFCURVE",
"776 910 OFFCURVE",
"808 910 CURVE SMOOTH {name = hr01;}",
"886 910 OFFCURVE",
"916 844 OFFCURVE",
"906 752 CURVE",
"814 0 LINE"
);
}
);
width = 1804;
},
{
anchors = (
{
name = bottom;
position = "{928, 0}";
},
{
name = top;
position = "{1056, 1034}";
}
);
layerId = "5E1C92F4-866D-4CC0-BA00-538F5374015A";
paths = (
{
closed = 1;
nodes = (
"1704 0 LINE",
"1794 738 LINE SMOOTH",
"1820 956 OFFCURVE",
"1688 1060 OFFCURVE",
"1550 1060 CURVE SMOOTH",
"1456 1060 OFFCURVE",
"1360 1034 OFFCURVE",
"1206 974 CURVE",
"1234 902 OFFCURVE",
"1278 832 OFFCURVE",
"1342 836 CURVE SMOOTH",
"1376 838 OFFCURVE",
"1406 848 OFFCURVE",
"1430 848 CURVE SMOOTH",
"1504 848 OFFCURVE",
"1524 800 OFFCURVE",
"1516 734 CURVE",
"1426 0 LINE"
);
},
{
closed = 1;
nodes = (
"430 0 LINE",
"528 814 LINE SMOOTH",
"538 894 OFFCURVE",
"534 962 OFFCURVE",
"478 1034 CURVE",
"244 1024 LINE",
"254 930 OFFCURVE",
"252 846 OFFCURVE",
"244 772 CURVE SMOOTH",
"150 0 LINE"
);
},
{
closed = 1;
nodes = (
"1068 0 LINE",
"1158 738 LINE SMOOTH",
"1184 956 OFFCURVE",
"1066 1060 OFFCURVE",
"928 1060 CURVE SMOOTH",
"834 1060 OFFCURVE",
"744 1034 OFFCURVE",
"592 976 CURVE",
"620 904 OFFCURVE",
"660 834 OFFCURVE",
"724 838 CURVE SMOOTH {name = hr01;}",
"756 840 OFFCURVE",
"780 848 OFFCURVE",
"804 848 CURVE SMOOTH",
"872 848 OFFCURVE",
"886 800 OFFCURVE",
"878 734 CURVE",
"788 0 LINE"
);
}
);
width = 1860;
}
);
unicode = 006D;
},
{
color = 6;
glyphname = n;
layers = (
{
anchors = (
{
name = bottom;
position = "{594, 0}";
},
{
name = top;
position = "{726, 1034}";
}
);
layerId = "3BBF7C5C-CA4C-45AB-AE18-0528A0ACCA90";
paths = (
{
closed = 1;
nodes = (
"1018 0 LINE",
"1106 732 LINE SMOOTH",
"1138 980 OFFCURVE",
"1008 1054 OFFCURVE",
"848 1054 CURVE SMOOTH",
"776 1054 OFFCURVE",
"684 1032 OFFCURVE",
"532 948 CURVE",
"580 890 OFFCURVE",
"644 876 OFFCURVE",
"724 894 CURVE SMOOTH",
"760 902 OFFCURVE",
"780 910 OFFCURVE",
"812 910 CURVE SMOOTH {name = hr01;}",
"894 910 OFFCURVE",
"928 844 OFFCURVE",
"918 752 CURVE",
"826 0 LINE"
);
},
{
closed = 1;
nodes = (
"362 0 LINE",
"460 814 LINE SMOOTH",
"470 894 OFFCURVE",
"466 962 OFFCURVE",
"410 1034 CURVE",
"264 1024 LINE",
"274 930 OFFCURVE",
"272 846 OFFCURVE",
"264 772 CURVE SMOOTH",
"170 0 LINE"
);
}
);
width = 1192;
},
{
anchors = (
{
name = bottom;
position = "{570, 0}";
},
{
name = top;
position = "{692, 1034}";
}
);
layerId = "5E1C92F4-866D-4CC0-BA00-538F5374015A";
paths = (
{
closed = 1;
nodes = (
"1030 0 LINE",
"1120 738 LINE SMOOTH",
"1146 956 OFFCURVE",
"1020 1060 OFFCURVE",
"882 1060 CURVE SMOOTH",
"790 1060 OFFCURVE",
"692 1038 OFFCURVE",
"552 968 CURVE",
"582 904 OFFCURVE",
"614 832 OFFCURVE",
"678 836 CURVE {name = hr01;}",
"716 838 OFFCURVE",
"738 848 OFFCURVE",
"764 848 CURVE SMOOTH",
"832 848 OFFCURVE",
"850 800 OFFCURVE",
"842 734 CURVE",
"752 0 LINE"
);
},
{
closed = 1;
nodes = (
"386 0 LINE",
"484 814 LINE SMOOTH",
"494 894 OFFCURVE",
"488 962 OFFCURVE",
"432 1034 CURVE",
"198 1024 LINE",
"208 930 OFFCURVE",
"208 846 OFFCURVE",
"200 772 CURVE SMOOTH",
"106 0 LINE"
);
}
);
width = 1156;
}
);
unicode = 006E;
},
{
color = 6;
glyphname = o;
layers = (
{
anchors = (
{
name = bottom;
position = "{560, 0}";
},
{
name = center;
position = "{624, 518}";
},
{
name = ogonek;
position = "{956, 0}";
},
{
name = top;
position = "{688, 1034}";
},
{
name = topright;
position = "{1156, 1034}";
}
);
layerId = "3BBF7C5C-CA4C-45AB-AE18-0528A0ACCA90";
paths = (
{
closed = 1;
nodes = (
"816 -20 OFFCURVE",
"1064 170 OFFCURVE",
"1106 518 CURVE SMOOTH",
"1144 818 OFFCURVE",
"996 1054 OFFCURVE",
"690 1054 CURVE",
"454 1054 OFFCURVE",
"188 884 OFFCURVE",
"142 518 CURVE SMOOTH {name = hr00;}",
"100 170 OFFCURVE",
"290 -20 OFFCURVE",
"558 -20 CURVE SMOOTH"
);
},
{
closed = 1;
nodes = (
"394 124 OFFCURVE",
"312 286 OFFCURVE",
"340 518 CURVE SMOOTH",
"374 786 OFFCURVE",
"520 910 OFFCURVE",
"672 910 CURVE",
"824 910 OFFCURVE",
"942 786 OFFCURVE",
"908 518 CURVE SMOOTH",
"882 304 OFFCURVE",
"770 124 OFFCURVE",
"576 124 CURVE"
);
}
);
width = 1132;
},
{
anchors = (
{
name = bottom;
position = "{602, 0}";
},
{
name = center;
position = "{666, 518}";
},
{
name = ogonek;
position = "{1036, 0}";
},
{
name = top;
position = "{730, 1034}";
},
{
name = topright;
position = "{1244, 1034}";
}
);
layerId = "5E1C92F4-866D-4CC0-BA00-538F5374015A";
paths = (
{
closed = 1;
nodes = (
"864 -26 OFFCURVE",
"1160 178 OFFCURVE",
"1202 518 CURVE SMOOTH {name = hr00;}",
"1242 836 OFFCURVE",
"1052 1060 OFFCURVE",
"734 1060 CURVE",
"504 1060 OFFCURVE",
"176 894 OFFCURVE",
"130 518 CURVE SMOOTH",
"88 170 OFFCURVE",
"318 -26 OFFCURVE",
"600 -26 CURVE"
);
},
{
closed = 1;
nodes = (
"478 178 OFFCURVE",
"402 318 OFFCURVE",
"426 518 CURVE SMOOTH",
"450 704 OFFCURVE",
"552 856 OFFCURVE",
"708 856 CURVE SMOOTH",
"864 856 OFFCURVE",
"928 704 OFFCURVE",
"904 518 CURVE SMOOTH",
"882 330 OFFCURVE",
"780 178 OFFCURVE",
"624 178 CURVE"
);
}
);
width = 1220;
}
);
unicode = 006F;
},
{
color = 6;
glyphname = oe;
layers = (
{
anchors = (
{
name = bottom;
position = "{940, 0}";
},
{
name = top;
position = "{1068, 1034}";
}
);
layerId = "3BBF7C5C-CA4C-45AB-AE18-0528A0ACCA90";
paths = (
{
closed = 1;
nodes = (
"704 -20 OFFCURVE",
"854 66 OFFCURVE",
"952 212 CURVE",
"970 240 LINE",
"982 214 LINE",
"1050 74 OFFCURVE",
"1166 -20 OFFCURVE",
"1326 -20 CURVE SMOOTH",
"1422 -20 OFFCURVE",
"1548 -2 OFFCURVE",
"1684 64 CURVE",
"1652 196 LINE",
"1530 138 OFFCURVE",
"1456 124 OFFCURVE",
"1364 124 CURVE SMOOTH",
"1184 124 OFFCURVE",
"1068 282 OFFCURVE",
"1094 518 CURVE {name = hr00;}",
"1132 776 OFFCURVE",
"1262 910 OFFCURVE",
"1426 910 CURVE SMOOTH",
"1556 910 OFFCURVE",
"1642 788 OFFCURVE",
"1604 634 CURVE",
"1350 634 LINE SMOOTH",
"1254 634 OFFCURVE",
"1202 576 OFFCURVE",
"1164 500 CURVE",
"1744 500 LINE",
"1868 786 OFFCURVE",
"1738 1054 OFFCURVE",
"1464 1054 CURVE SMOOTH",
"1298 1054 OFFCURVE",
"1146 974 OFFCURVE",
"1052 830 CURVE",
"1036 804 LINE",
"1026 830 LINE",
"960 988 OFFCURVE",
"840 1054 OFFCURVE",
"690 1054 CURVE SMOOTH",
"432 1054 OFFCURVE",
"186 864 OFFCURVE",
"142 518 CURVE SMOOTH",
"100 170 OFFCURVE",
"290 -20 OFFCURVE",
"558 -20 CURVE SMOOTH"
);
},
{
closed = 1;
nodes = (
"422 124 OFFCURVE",
"308 248 OFFCURVE",
"340 518 CURVE SMOOTH",
"374 786 OFFCURVE",
"520 910 OFFCURVE",
"672 910 CURVE SMOOTH",
"820 910 OFFCURVE",
"936 792 OFFCURVE",
"908 518 CURVE",
"868 242 OFFCURVE",
"724 124 OFFCURVE",
"576 124 CURVE SMOOTH"
);
}
);
width = 1822;
},
{
anchors = (
{
name = bottom;
position = "{978, 0}";
},
{
name = top;
position = "{1106, 1034}";
}
);
layerId = "5E1C92F4-866D-4CC0-BA00-538F5374015A";
paths = (
{
closed = 1;
nodes = (
"742 -26 OFFCURVE",
"890 62 OFFCURVE",
"984 172 CURVE",
"1012 216 LINE",
"1024 170 LINE",
"1080 58 OFFCURVE",
"1214 -26 OFFCURVE",
"1378 -26 CURVE SMOOTH",
"1502 -26 OFFCURVE",
"1630 0 OFFCURVE",
"1782 68 CURVE",
"1734 254 LINE",
"1612 202 OFFCURVE",
"1526 180 OFFCURVE",
"1434 180 CURVE SMOOTH",
"1266 180 OFFCURVE",
"1168 314 OFFCURVE",
"1196 544 CURVE SMOOTH",
"1224 772 OFFCURVE",
"1360 866 OFFCURVE",
"1470 866 CURVE SMOOTH",
"1592 866 OFFCURVE",
"1648 756 OFFCURVE",
"1616 634 CURVE {name = hr00;}",
"1438 634 LINE",
"1370 634 OFFCURVE",
"1302 562 OFFCURVE",
"1262 470 CURVE",
"1822 470 LINE",
"1982 814 OFFCURVE",
"1804 1060 OFFCURVE",
"1508 1060 CURVE SMOOTH",
"1366 1060 OFFCURVE",
"1212 996 OFFCURVE",
"1110 876 CURVE",
"1080 828 LINE",
"1066 874 LINE",
"1000 996 OFFCURVE",
"868 1060 OFFCURVE",
"734 1060 CURVE SMOOTH",
"434 1060 OFFCURVE",
"168 824 OFFCURVE",
"130 518 CURVE SMOOTH",
"90 184 OFFCURVE",
"300 -26 OFFCURVE",
"600 -26 CURVE SMOOTH"
);
},
{
closed = 1;
nodes = (
"468 178 OFFCURVE",
"404 330 OFFCURVE",
"426 518 CURVE SMOOTH",
"450 704 OFFCURVE",
"552 856 OFFCURVE",
"708 856 CURVE SMOOTH",
"864 856 OFFCURVE",
"928 704 OFFCURVE",
"904 518 CURVE SMOOTH",
"882 330 OFFCURVE",
"780 178 OFFCURVE",
"624 178 CURVE SMOOTH"
);
}
);
width = 1892;
}
);
leftMetricsKey = o;
rightMetricsKey = e;
unicode = 0153;
},
{
color = 6;
glyphname = p;
layers = (
{
anchors = (
{
name = bottom;
position = "{210, -482}";
},
{
name = top;
position = "{742, 1034}";
}
);
layerId = "3BBF7C5C-CA4C-45AB-AE18-0528A0ACCA90";
paths = (
{
closed = 1;
nodes = (
"302 -482 LINE",
"454 764 LINE",
"550 864 OFFCURVE",
"644 910 OFFCURVE",
"734 910 CURVE",
"912 910 OFFCURVE",
"986 744 OFFCURVE",
"958 512 CURVE",
"924 242 OFFCURVE",
"770 128 OFFCURVE",
"634 132 CURVE SMOOTH",
"542 134 OFFCURVE",
"478 88 OFFCURVE",
"432 22 CURVE",
"500 -4 OFFCURVE",
"568 -12 OFFCURVE",
"628 -12 CURVE SMOOTH",
"868 -12 OFFCURVE",
"1116 192 OFFCURVE",
"1156 512 CURVE",
"1194 818 OFFCURVE",
"1064 1054 OFFCURVE",
"784 1054 CURVE {name = hr02;}",
"700 1054 OFFCURVE",
"578 1022 OFFCURVE",
"484 930 CURVE",
"462 894 LINE",
"462 926 LINE",
"452 980 OFFCURVE",
"436 1006 OFFCURVE",
"406 1034 CURVE {name = hr01;}",
"270 1024 LINE",
"278 954 OFFCURVE",
"280 842 OFFCURVE",
"260 682 CURVE SMOOTH",
"120 -468 LINE"
);
}
);
width = 1196;
},
{
anchors = (
{
name = bottom;
position = "{226, -482}";
},
{
name = top;
position = "{808, 1034}";
}
);
layerId = "5E1C92F4-866D-4CC0-BA00-538F5374015A";
paths = (
{
closed = 1;
nodes = (
"364 -482 LINE",
"510 714 LINE",
"604 810 OFFCURVE",
"682 854 OFFCURVE",
"760 854 CURVE",
"892 854 OFFCURVE",
"952 696 OFFCURVE",
"930 510 CURVE",
"906 322 OFFCURVE",
"832 188 OFFCURVE",
"664 178 CURVE SMOOTH",
"598 174 OFFCURVE",
"544 110 OFFCURVE",
"498 18 CURVE",
"598 -12 OFFCURVE",
"652 -18 OFFCURVE",
"720 -18 CURVE SMOOTH",
"950 -18 OFFCURVE",
"1190 228 OFFCURVE",
"1226 510 CURVE",
"1264 826 OFFCURVE",
"1124 1060 OFFCURVE",
"836 1060 CURVE",
"756 1060 OFFCURVE",
"672 1030 OFFCURVE",
"554 932 CURVE",
"518 892 LINE",
"518 932 LINE",
"506 972 OFFCURVE",
"488 1014 OFFCURVE",
"456 1034 CURVE {name = hr01;}",
"240 1024 LINE",
"250 930 OFFCURVE",
"248 846 OFFCURVE",
"240 772 CURVE",
"88 -468 LINE"
);
}
);
width = 1242;
}
);
unicode = 0070;
},
{
color = 6;
glyphname = thorn;
layers = (
{
anchors = (
{
name = bottom;
position = "{212, -482}";
},
{
name = top;
position = "{458, 1516}";
}
);
layerId = "3BBF7C5C-CA4C-45AB-AE18-0528A0ACCA90";
paths = (
{
closed = 1;
nodes = (
"302 -482 LINE",
"362 16 LINE",
"436 -12 OFFCURVE",
"488 -20 OFFCURVE",
"560 -20 CURVE SMOOTH",
"860 -20 OFFCURVE",
"1092 204 OFFCURVE",
"1132 522 CURVE SMOOTH",
"1174 870 OFFCURVE",
"992 1046 OFFCURVE",
"774 1046 CURVE SMOOTH",
"714 1046 OFFCURVE",
"624 1026 OFFCURVE",
"550 992 CURVE",
"586 930 OFFCURVE",
"634 898 OFFCURVE",
"694 902 CURVE SMOOTH",
"866 912 OFFCURVE",
"968 786 OFFCURVE",
"936 522 CURVE SMOOTH",
"906 286 OFFCURVE",
"768 124 OFFCURVE",
"578 124 CURVE SMOOTH",
"518 124 OFFCURVE",
"442 132 OFFCURVE",
"380 156 CURVE",
"548 1516 LINE",
"368 1516 LINE {name = hr00;}",
"122 -482 LINE"
);
}
);
width = 1196;
},
{
anchors = (
{
name = bottom;
position = "{218, -482}";
},
{
name = top;
position = "{464, 1516}";
}
);
layerId = "5E1C92F4-866D-4CC0-BA00-538F5374015A";
paths = (
{
closed = 1;
nodes = (
"350 -482 LINE",
"408 -16 LINE",
"458 -26 OFFCURVE",
"512 -30 OFFCURVE",
"568 -30 CURVE SMOOTH",
"906 -30 OFFCURVE",
"1148 228 OFFCURVE",
"1190 554 CURVE SMOOTH",
"1218 794 OFFCURVE",
"1092 1052 OFFCURVE",
"838 1052 CURVE SMOOTH",
"770 1052 OFFCURVE",
"684 1036 OFFCURVE",
"604 1004 CURVE",
"634 922 OFFCURVE",
"660 846 OFFCURVE",
"750 850 CURVE SMOOTH",
"884 856 OFFCURVE",
"906 682 OFFCURVE",
"892 554 CURVE SMOOTH",
"864 334 OFFCURVE",
"748 176 OFFCURVE",
"592 176 CURVE SMOOTH",
"538 176 OFFCURVE",
"494 180 OFFCURVE",
"434 196 CURVE",
"596 1516 LINE",
"332 1516 LINE {name = hr00;}",
"86 -482 LINE"
);
}
);
width = 1196;
}
);
unicode = 00FE;
},
{
color = 6;
glyphname = q;
layers = (
{
anchors = (
{
name = bottom;
position = "{844, -482}";
},
{
name = top;
position = "{766, 1034}";
}
);
layerId = "3BBF7C5C-CA4C-45AB-AE18-0528A0ACCA90";
paths = (
{
closed = 1;
nodes = (
"934 -482 LINE",
"1114 990 LINE",
"982 1036 OFFCURVE",
"880 1054 OFFCURVE",
"768 1054 CURVE SMOOTH",
"458 1054 OFFCURVE",
"212 838 OFFCURVE",
"172 512 CURVE SMOOTH",
"132 186 OFFCURVE",
"310 -44 OFFCURVE",
"548 -10 CURVE SMOOTH",
"608 -2 OFFCURVE",
"684 26 OFFCURVE",
"752 74 CURVE {name = hr00;}",
"708 132 OFFCURVE",
"654 150 OFFCURVE",
"596 140 CURVE SMOOTH",
"412 110 OFFCURVE",
"340 286 OFFCURVE",
"368 512 CURVE SMOOTH",
"400 768 OFFCURVE",
"550 910 OFFCURVE",
"750 910 CURVE SMOOTH",
"810 910 OFFCURVE",
"860 904 OFFCURVE",
"920 888 CURVE",
"754 -468 LINE"
);
}
);
width = 1164;
},
{
anchors = (
{
name = bottom;
position = "{874, -482}";
},
{
name = top;
position = "{788, 1034}";
}
);
layerId = "5E1C92F4-866D-4CC0-BA00-538F5374015A";
paths = (
{
closed = 1;
nodes = (
"1010 -482 LINE",
"1192 998 LINE",
"998 1048 OFFCURVE",
"898 1058 OFFCURVE",
"786 1058 CURVE SMOOTH",
"428 1058 OFFCURVE",
"188 798 OFFCURVE",
"150 480 CURVE SMOOTH",
"120 242 OFFCURVE",
"244 -32 OFFCURVE",
"498 -18 CURVE SMOOTH",
"566 -14 OFFCURVE",
"652 20 OFFCURVE",
"732 64 CURVE",
"690 138 OFFCURVE",
"656 200 OFFCURVE",
"578 194 CURVE SMOOTH {name = hr00;}",
"442 184 OFFCURVE",
"432 352 OFFCURVE",
"448 480 CURVE SMOOTH",
"474 700 OFFCURVE",
"590 852 OFFCURVE",
"772 852 CURVE SMOOTH",
"800 852 OFFCURVE",
"848 848 OFFCURVE",
"900 836 CURVE",
"740 -468 LINE"
);
}
);
width = 1210;
}
);
unicode = 0071;
},
{
color = 6;
glyphname = r;
layers = (
{
anchors = (
{
name = bottom;
position = "{264, 0}";
},
{
name = top;
position = "{560, 1034}";
}
);
layerId = "3BBF7C5C-CA4C-45AB-AE18-0528A0ACCA90";
paths = (
{
closed = 1;
nodes = (
"352 0 LINE",
"418 552 LINE SMOOTH",
"448 792 OFFCURVE",
"592 888 OFFCURVE",
"716 888 CURVE SMOOTH",
"740 888 OFFCURVE",
"770 886 OFFCURVE",
"810 876 CURVE",
"854 1032 LINE",
"818 1042 OFFCURVE",
"788 1048 OFFCURVE",
"758 1048 CURVE SMOOTH {name = hr01;}",
"650 1048 OFFCURVE",
"534 976 OFFCURVE",
"470 874 CURVE",
"450 838 LINE",
"454 874 LINE",
"450 938 OFFCURVE",
"442 990 OFFCURVE",
"406 1034 CURVE",
"266 1024 LINE",
"276 930 OFFCURVE",
"270 796 OFFCURVE",
"254 674 CURVE SMOOTH {name = hr02;}",
"174 0 LINE"
);
}
);
width = 782;
},
{
anchors = (
{
name = bottom;
position = "{264, 0}";
},
{
name = top;
position = "{546, 1034}";
}
);
layerId = "5E1C92F4-866D-4CC0-BA00-538F5374015A";
paths = (
{
closed = 1;
nodes = (
"394 0 LINE",
"452 482 LINE SMOOTH",
"476 680 OFFCURVE",
"576 824 OFFCURVE",
"712 824 CURVE SMOOTH",
"744 824 OFFCURVE",
"776 820 OFFCURVE",
"828 804 CURVE",
"888 1030 LINE",
"842 1046 OFFCURVE",
"802 1054 OFFCURVE",
"760 1054 CURVE SMOOTH {name = hr01;}",
"674 1054 OFFCURVE",
"572 992 OFFCURVE",
"506 886 CURVE",
"480 838 LINE",
"482 886 LINE",
"480 954 OFFCURVE",
"458 1016 OFFCURVE",
"438 1034 CURVE",
"224 1024 LINE",
"236 930 OFFCURVE",
"234 846 OFFCURVE",
"226 772 CURVE SMOOTH {name = hr02;}",
"132 0 LINE"
);
}
);
width = 782;
}
);
unicode = 0072;
},
{
color = 6;
glyphname = s;
layers = (
{
anchors = (
{
name = bottom;
position = "{398, 0}";
},
{
name = top;
position = "{558, 1034}";
}
);
layerId = "3BBF7C5C-CA4C-45AB-AE18-0528A0ACCA90";
paths = (
{
closed = 1;
nodes = (
"610 -20 OFFCURVE",
"784 112 OFFCURVE",
"804 264 CURVE SMOOTH",
"846 610 OFFCURVE",
"356 570 OFFCURVE",
"384 784 CURVE SMOOTH",
"394 866 OFFCURVE",
"466 910 OFFCURVE",
"558 910 CURVE SMOOTH",
"614 910 OFFCURVE",
"686 898 OFFCURVE",
"766 870 CURVE",
"828 1000 LINE",
"720 1040 OFFCURVE",
"632 1052 OFFCURVE",
"556 1052 CURVE SMOOTH",
"348 1052 OFFCURVE",
"218 912 OFFCURVE",
"204 784 CURVE SMOOTH",
"162 450 OFFCURVE",
"652 492 OFFCURVE",
"624 274 CURVE SMOOTH",
"614 186 OFFCURVE",
"548 124 OFFCURVE",
"428 124 CURVE SMOOTH",
"344 124 OFFCURVE",
"238 146 OFFCURVE",
"144 196 CURVE {name = hr00;}",
"78 64 LINE",
"226 -12 OFFCURVE",
"332 -20 OFFCURVE",
"434 -20 CURVE SMOOTH"
);
}
);
width = 832;
},
{
anchors = (
{
name = bottom;
position = "{416, 0}";
},
{
name = top;
position = "{578, 1034}";
}
);
layerId = "5E1C92F4-866D-4CC0-BA00-538F5374015A";
paths = (
{
closed = 1;
nodes = (
"654 -20 OFFCURVE",
"844 102 OFFCURVE",
"868 296 CURVE SMOOTH",
"906 606 OFFCURVE",
"420 596 OFFCURVE",
"442 766 CURVE SMOOTH",
"448 822 OFFCURVE",
"500 854 OFFCURVE",
"576 854 CURVE SMOOTH",
"644 854 OFFCURVE",
"696 848 OFFCURVE",
"796 820 CURVE",
"882 1000 LINE",
"758 1042 OFFCURVE",
"672 1052 OFFCURVE",
"582 1052 CURVE SMOOTH",
"308 1052 OFFCURVE",
"192 882 OFFCURVE",
"176 754 CURVE SMOOTH",
"136 438 OFFCURVE",
"624 464 OFFCURVE",
"602 286 CURVE SMOOTH",
"596 236 OFFCURVE",
"546 186 OFFCURVE",
"448 186 CURVE SMOOTH",
"364 186 OFFCURVE",
"272 202 OFFCURVE",
"154 250 CURVE {name = hr00;}",
"66 64 LINE",
"236 -10 OFFCURVE",
"364 -20 OFFCURVE",
"468 -20 CURVE SMOOTH"
);
}
);
width = 872;
}
);
unicode = 0073;
},
{
color = 6;
glyphname = germandbls;
layers = (
{
anchors = (
{
name = bottom;
position = "{606, 0}";
},
{
name = top;
position = "{768, 1516}";
}
);
layerId = "3BBF7C5C-CA4C-45AB-AE18-0528A0ACCA90";
paths = (
{
closed = 1;
nodes = (
"954 -24 OFFCURVE",
"1106 108 OFFCURVE",
"1126 262 CURVE SMOOTH",
"1164 578 OFFCURVE",
"818 588 OFFCURVE",
"844 802 CURVE SMOOTH",
"854 880 OFFCURVE",
"910 924 OFFCURVE",
"1008 968 CURVE",
"1068 1048 OFFCURVE",
"1094 1106 OFFCURVE",
"1104 1176 CURVE SMOOTH",
"1126 1362 OFFCURVE",
"1010 1526 OFFCURVE",
"762 1526 CURVE SMOOTH",
"518 1526 OFFCURVE",
"348 1354 OFFCURVE",
"314 1090 CURVE SMOOTH",
"182 0 LINE",
"356 0 LINE {name = hr01;}",
"492 1110 LINE SMOOTH",
"516 1310 OFFCURVE",
"656 1390 OFFCURVE",
"768 1390 CURVE SMOOTH",
"872 1390 OFFCURVE",
"960 1302 OFFCURVE",
"946 1176 CURVE SMOOTH",
"942 1142 OFFCURVE",
"934 1112 OFFCURVE",
"922 1082 CURVE",
"768 1022 OFFCURVE",
"678 918 OFFCURVE",
"664 802 CURVE SMOOTH",
"626 498 OFFCURVE",
"974 490 OFFCURVE",
"946 272 CURVE SMOOTH",
"936 182 OFFCURVE",
"864 120 OFFCURVE",
"784 120 CURVE SMOOTH",
"726 120 OFFCURVE",
"650 134 OFFCURVE",
"566 174 CURVE",
"504 50 LINE",
"622 -14 OFFCURVE",
"704 -24 OFFCURVE",
"784 -24 CURVE SMOOTH {name = hr02;}"
);
}
);
width = 1134;
},
{
anchors = (
{
name = bottom;
position = "{592, 0}";
},
{
name = top;
position = "{774, 1516}";
}
);
layerId = "5E1C92F4-866D-4CC0-BA00-538F5374015A";
paths = (
{
closed = 1;
nodes = (
"954 -24 OFFCURVE",
"1136 86 OFFCURVE",
"1160 282 CURVE SMOOTH",
"1200 612 OFFCURVE",
"854 628 OFFCURVE",
"876 802 CURVE SMOOTH",
"884 870 OFFCURVE",
"936 916 OFFCURVE",
"1030 952 CURVE",
"1090 1032 OFFCURVE",
"1124 1106 OFFCURVE",
"1134 1176 CURVE SMOOTH",
"1160 1386 OFFCURVE",
"1022 1526 OFFCURVE",
"774 1526 CURVE SMOOTH",
"530 1526 OFFCURVE",
"306 1386 OFFCURVE",
"268 1088 CURVE SMOOTH",
"134 -2 LINE",
"402 0 LINE",
"538 1110 LINE SMOOTH",
"554 1246 OFFCURVE",
"648 1326 OFFCURVE",
"764 1326 CURVE SMOOTH",
"866 1326 OFFCURVE",
"926 1262 OFFCURVE",
"916 1176 CURVE SMOOTH",
"912 1146 OFFCURVE",
"908 1122 OFFCURVE",
"898 1092 CURVE",
"752 1038 OFFCURVE",
"646 918 OFFCURVE",
"632 802 CURVE SMOOTH",
"592 486 OFFCURVE",
"938 458 OFFCURVE",
"916 288 CURVE SMOOTH",
"908 226 OFFCURVE",
"850 184 OFFCURVE",
"778 184 CURVE SMOOTH",
"738 184 OFFCURVE",
"674 194 OFFCURVE",
"596 230 CURVE {name = hr00;}",
"504 50 LINE",
"622 -14 OFFCURVE",
"704 -24 OFFCURVE",
"784 -24 CURVE SMOOTH"
);
}
);
width = 1134;
}
);
unicode = 00DF;
},
{
color = 6;
glyphname = t;
layers = (
{
anchors = (
{
name = bottom;
position = "{460, 0}";
},
{
name = center;
position = "{454, 598}";
},
{
name = top;
position = "{450, 1298}";
},
{
name = topright;
position = "{902, 1298}";
}
);
layerId = "3BBF7C5C-CA4C-45AB-AE18-0528A0ACCA90";
paths = (
{
closed = 1;
nodes = (
"602 -22 OFFCURVE",
"646 -12 OFFCURVE",
"752 22 CURVE",
"724 148 LINE",
"650 126 OFFCURVE",
"608 118 OFFCURVE",
"556 118 CURVE SMOOTH",
"458 118 OFFCURVE",
"406 222 OFFCURVE",
"424 360 CURVE",
"546 1354 LINE",
"362 1298 LINE",
"330 1034 LINE",
"140 986 LINE",
"130 896 LINE",
"314 896 LINE {name = hr00;}",
"250 382 LINE",
"218 128 OFFCURVE",
"320 -22 OFFCURVE",
"538 -22 CURVE SMOOTH"
);
},
{
closed = 1;
nodes = (
"844 896 LINE",
"860 1034 LINE",
"578 1034 LINE",
"594 958 OFFCURVE",
"636 896 OFFCURVE",
"730 896 CURVE"
);
}
);
width = 852;
},
{
anchors = (
{
name = bottom;
position = "{524, 0}";
},
{
name = center;
position = "{512, 552}";
},
{
name = top;
position = "{496, 1280}";
},
{
name = topright;
position = "{954, 1280}";
}
);
layerId = "5E1C92F4-866D-4CC0-BA00-538F5374015A";
paths = (
{
closed = 1;
nodes = (
"662 -26 OFFCURVE",
"738 -6 OFFCURVE",
"842 28 CURVE",
"806 210 LINE",
"736 186 OFFCURVE",
"688 180 OFFCURVE",
"650 180 CURVE SMOOTH",
"556 180 OFFCURVE",
"502 260 OFFCURVE",
"520 396 CURVE SMOOTH",
"638 1366 LINE",
"364 1280 LINE",
"334 1034 LINE",
"164 994 LINE",
"144 836 LINE",
"310 836 LINE {name = hr00;}",
"256 396 LINE",
"222 124 OFFCURVE",
"342 -26 OFFCURVE",
"596 -26 CURVE SMOOTH"
);
},
{
closed = 1;
nodes = (
"932 836 LINE",
"956 1034 LINE",
"666 1034 LINE",
"682 946 OFFCURVE",
"726 836 OFFCURVE",
"842 836 CURVE"
);
}
);
width = 910;
}
);
unicode = 0074;
},
{
color = 6;
glyphname = u;
layers = (
{
anchors = (
{
name = bottom;
position = "{564, 0}";
},
{
name = ogonek;
position = "{1012, 10}";
},
{
name = top;
position = "{696, 1034}";
},
{
name = topright;
position = "{1198, 1034}";
}
);
layerId = "3BBF7C5C-CA4C-45AB-AE18-0528A0ACCA90";
paths = (
{
closed = 1;
nodes = (
"500 -20 OFFCURVE",
"596 2 OFFCURVE",
"748 86 CURVE",
"698 144 OFFCURVE",
"634 158 OFFCURVE",
"554 140 CURVE SMOOTH",
"518 132 OFFCURVE",
"498 124 OFFCURVE",
"466 124 CURVE SMOOTH {name = hr01;}",
"382 124 OFFCURVE",
"352 190 OFFCURVE",
"364 282 CURVE SMOOTH",
"456 1034 LINE",
"268 1034 LINE",
"178 302 LINE SMOOTH",
"148 54 OFFCURVE",
"270 -20 OFFCURVE",
"428 -20 CURVE SMOOTH"
);
},
{
closed = 1;
nodes = (
"1012 10 LINE",
"998 104 OFFCURVE",
"1000 188 OFFCURVE",
"1010 262 CURVE SMOOTH",
"1104 1034 LINE",
"918 1034 LINE",
"818 220 LINE SMOOTH",
"808 140 OFFCURVE",
"814 72 OFFCURVE",
"870 0 CURVE"
);
}
);
width = 1174;
},
{
anchors = (
{
name = bottom;
position = "{586, 0}";
},
{
name = ogonek;
position = "{1090, 10}";
},
{
name = top;
position = "{730, 1034}";
},
{
name = topright;
position = "{1250, 1034}";
}
);
layerId = "5E1C92F4-866D-4CC0-BA00-538F5374015A";
paths = (
{
closed = 1;
nodes = (
"498 -26 OFFCURVE",
"594 -4 OFFCURVE",
"736 66 CURVE",
"704 130 OFFCURVE",
"672 202 OFFCURVE",
"610 198 CURVE {name = hr01;}",
"572 196 OFFCURVE",
"550 186 OFFCURVE",
"524 186 CURVE SMOOTH",
"456 186 OFFCURVE",
"438 234 OFFCURVE",
"446 300 CURVE SMOOTH",
"536 1034 LINE",
"258 1034 LINE",
"168 296 LINE SMOOTH",
"140 78 OFFCURVE",
"268 -26 OFFCURVE",
"406 -26 CURVE SMOOTH"
);
},
{
closed = 1;
nodes = (
"1090 10 LINE",
"1078 104 OFFCURVE",
"1078 188 OFFCURVE",
"1088 262 CURVE SMOOTH",
"1182 1034 LINE",
"902 1034 LINE",
"802 220 LINE SMOOTH",
"792 140 OFFCURVE",
"800 72 OFFCURVE",
"854 0 CURVE"
);
}
);
width = 1226;
}
);
unicode = 0075;
},
{
color = 6;
glyphname = v;
layers = (
{
anchors = (
{
name = bottom;
position = "{518, 0}";
},
{
name = top;
position = "{648, 1034}";
}
);
layerId = "3BBF7C5C-CA4C-45AB-AE18-0528A0ACCA90";
paths = (
{
closed = 1;
nodes = (
"616 0 LINE",
"1124 1020 LINE",
"938 1034 LINE",
"564 228 LINE",
"544 178 LINE",
"534 228 LINE",
"358 1034 LINE",
"158 1034 LINE",
"420 0 LINE {name = hr00;}"
);
}
);
width = 1032;
},
{
anchors = (
{
name = bottom;
position = "{550, 0}";
},
{
name = top;
position = "{678, 1034}";
}
);
layerId = "5E1C92F4-866D-4CC0-BA00-538F5374015A";
paths = (
{
closed = 1;
nodes = (
"698 0 LINE",
"1204 1020 LINE",
"922 1034 LINE",
"602 302 LINE",
"580 242 LINE",
"574 302 LINE",
"432 1034 LINE",
"138 1034 LINE",
"400 0 LINE {name = hr00;}"
);
}
);
width = 1094;
}
);
unicode = 0076;
userData = {
com.typemytype.robofont.guides = (
{
angle = 0;
isGlobal = 0;
magnetic = 5;
x = 0;
y = 130;
}
);
};
},
{
color = 6;
glyphname = w;
layers = (
{
anchors = (
{
name = bottom;
position = "{878, 0}";
},
{
name = top;
position = "{976, 1034}";
}
);
layerId = "3BBF7C5C-CA4C-45AB-AE18-0528A0ACCA90";
paths = (
{
closed = 1;
nodes = (
"1314 0 LINE",
"1798 1020 LINE",
"1614 1034 LINE",
"1260 228 LINE",
"1240 178 LINE",
"1232 228 LINE",
"1076 1034 LINE",
"876 1034 LINE",
"1114 0 LINE"
);
},
{
closed = 1;
nodes = (
"642 0 LINE {name = hr00;}",
"846 380 LINE",
"906 506 OFFCURVE",
"890 650 OFFCURVE",
"838 716 CURVE",
"596 228 LINE",
"576 178 LINE",
"568 228 LINE",
"412 1034 LINE",
"212 1034 LINE",
"452 0 LINE"
);
}
);
width = 1720;
},
{
anchors = (
{
name = bottom;
position = "{882, 0}";
},
{
name = top;
position = "{984, 1034}";
}
);
layerId = "5E1C92F4-866D-4CC0-BA00-538F5374015A";
paths = (
{
closed = 1;
nodes = (
"1366 0 LINE",
"1848 1020 LINE",
"1566 1034 LINE",
"1270 302 LINE",
"1248 242 LINE",
"1242 302 LINE",
"1124 1034 LINE",
"828 1034 LINE",
"1068 0 LINE {name = hr00;}"
);
},
{
closed = 1;
nodes = (
"696 0 LINE",
"790 174 LINE",
"884 346 OFFCURVE",
"852 578 OFFCURVE",
"802 694 CURVE",
"606 302 LINE",
"584 242 LINE",
"578 302 LINE",
"460 1034 LINE",
"166 1034 LINE",
"404 0 LINE"
);
}
);
width = 1744;
}
);
unicode = 0077;
userData = {
com.typemytype.robofont.guides = (
{
angle = 0;
isGlobal = 0;
magnetic = 5;
x = 0;
y = 135;
}
);
};
},
{
color = 6;
glyphname = x;
layers = (
{
anchors = (
{
name = bottom;
position = "{488, 0}";
},
{
name = top;
position = "{628, 1034}";
}
);
layerId = "3BBF7C5C-CA4C-45AB-AE18-0528A0ACCA90";
paths = (
{
closed = 1;
nodes = (
"946 0 LINE",
"650 526 LINE",
"1040 1020 LINE",
"856 1034 LINE",
"594 676 LINE",
"574 634 LINE",
"568 676 LINE",
"398 1034 LINE",
"188 1034 LINE",
"466 518 LINE",
"560 344 OFFCURVE",
"648 174 OFFCURVE",
"738 0 CURVE {name = hr00;}"
);
},
{
closed = 1;
nodes = (
"238 0 LINE",
"398 208 LINE",
"464 292 OFFCURVE",
"452 386 OFFCURVE",
"406 450 CURVE",
"44 0 LINE"
);
}
);
width = 998;
},
{
anchors = (
{
name = bottom;
position = "{500, 0}";
},
{
name = top;
position = "{638, 1034}";
}
);
layerId = "5E1C92F4-866D-4CC0-BA00-538F5374015A";
paths = (
{
closed = 1;
nodes = (
"1006 0 LINE",
"706 512 LINE",
"1100 1020 LINE",
"808 1034 LINE",
"614 744 LINE",
"594 702 LINE",
"586 744 LINE",
"466 1034 LINE",
"148 1034 LINE {name = hr00;}",
"432 500 LINE",
"522 334 OFFCURVE",
"612 166 OFFCURVE",
"694 0 CURVE"
);
},
{
closed = 1;
nodes = (
"306 0 LINE",
"396 136 LINE",
"466 250 OFFCURVE",
"410 376 OFFCURVE",
"366 440 CURVE",
"4 0 LINE"
);
}
);
width = 1028;
}
);
unicode = 0078;
userData = {
com.typemytype.robofont.guides = (
{
angle = 0;
isGlobal = 0;
magnetic = 5;
x = 0;
y = 340;
}
);
};
},
{
color = 6;
glyphname = y;
layers = (
{
anchors = (
{
name = bottom;
position = "{870, 0}";
},
{
name = top;
position = "{662, 1034}";
}
);
layerId = "3BBF7C5C-CA4C-45AB-AE18-0528A0ACCA90";
paths = (
{
closed = 1;
nodes = (
"430 -490 OFFCURVE",
"524 -260 OFFCURVE",
"664 22 CURVE",
"1148 1020 LINE",
"960 1034 LINE",
"532 74 LINE",
"418 -164 OFFCURVE",
"352 -348 OFFCURVE",
"198 -348 CURVE",
"160 -348 OFFCURVE",
"120 -342 OFFCURVE",
"76 -330 CURVE",
"12 -462 LINE",
"66 -480 OFFCURVE",
"126 -490 OFFCURVE",
"180 -492 CURVE"
);
},
{
closed = 1;
nodes = (
"476 86 OFFCURVE",
"520 230 OFFCURVE",
"490 358 CURVE {name = hr00;}",
"354 1034 LINE",
"158 1034 LINE",
"408 20 LINE"
);
}
);
width = 1058;
},
{
anchors = (
{
name = bottom;
position = "{966, 0}";
},
{
name = top;
position = "{700, 1034}";
}
);
layerId = "5E1C92F4-866D-4CC0-BA00-538F5374015A";
paths = (
{
closed = 1;
nodes = (
"466 -496 OFFCURVE",
"564 -322 OFFCURVE",
"740 22 CURVE",
"1222 1020 LINE",
"944 1034 LINE",
"530 74 LINE",
"422 -164 OFFCURVE",
"358 -292 OFFCURVE",
"218 -292 CURVE {name = hr00;}",
"180 -292 OFFCURVE",
"146 -290 OFFCURVE",
"100 -278 CURVE",
"14 -458 LINE",
"76 -486 OFFCURVE",
"138 -494 OFFCURVE",
"192 -496 CURVE"
);
},
{
closed = 1;
nodes = (
"486 140 OFFCURVE",
"570 388 OFFCURVE",
"538 562 CURVE",
"456 1034 LINE",
"156 1034 LINE",
"404 26 LINE"
);
}
);
width = 1200;
}
);
unicode = 0079;
userData = {
com.typemytype.robofont.guides = (
{
angle = 0;
isGlobal = 0;
magnetic = 5;
x = 0;
y = 130;
}
);
};
},
{
color = 6;
glyphname = z;
layers = (
{
anchors = (
{
name = bottom;
position = "{460, 0}";
},
{
name = top;
position = "{606, 1034}";
}
);
layerId = "3BBF7C5C-CA4C-45AB-AE18-0528A0ACCA90";
paths = (
{
closed = 1;
nodes = (
"848 0 LINE",
"864 136 LINE",
"350 136 LINE",
"302 130 LINE",
"340 164 LINE",
"952 958 LINE",
"962 1034 LINE",
"262 1034 LINE {name = hr00;}",
"246 902 LINE",
"690 902 LINE",
"732 908 LINE",
"698 874 LINE",
"78 76 LINE",
"70 0 LINE"
);
}
);
width = 896;
},
{
anchors = (
{
name = bottom;
position = "{478, 0}";
},
{
name = top;
position = "{606, 1034}";
}
);
layerId = "5E1C92F4-866D-4CC0-BA00-538F5374015A";
paths = (
{
closed = 1;
nodes = (
"870 0 LINE",
"894 196 LINE",
"450 196 LINE",
"404 190 LINE",
"438 224 LINE",
"978 916 LINE",
"992 1034 LINE",
"240 1034 LINE {name = hr00;}",
"216 842 LINE",
"608 842 LINE",
"652 848 LINE",
"616 814 LINE",
"74 118 LINE",
"60 0 LINE"
);
}
);
width = 948;
}
);
unicode = 007A;
userData = {
com.typemytype.robofont.guides = (
{
angle = 0;
isGlobal = 0;
magnetic = 5;
x = 0;
y = 479;
},
{
angle = 0;
isGlobal = 0;
magnetic = 5;
x = 0;
y = 38;
}
);
};
},
{
color = 6;
glyphname = ordfeminine;
layers = (
{
layerId = "3BBF7C5C-CA4C-45AB-AE18-0528A0ACCA90";
paths = (
{
closed = 1;
nodes = (
"466 590 OFFCURVE",
"524 604 OFFCURVE",
"604 676 CURVE",
"622 700 LINE",
"620 676 LINE",
"628 646 OFFCURVE",
"638 620 OFFCURVE",
"664 604 CURVE",
"764 604 LINE",
"758 654 OFFCURVE",
"756 732 OFFCURVE",
"770 844 CURVE {name = hr00;}",
"796 1044 LINE",
"818 1232 OFFCURVE",
"722 1342 OFFCURVE",
"544 1342 CURVE SMOOTH",
"482 1342 OFFCURVE",
"412 1334 OFFCURVE",
"318 1294 CURVE",
"338 1202 LINE",
"408 1226 OFFCURVE",
"454 1236 OFFCURVE",
"504 1236 CURVE SMOOTH",
"632 1236 OFFCURVE",
"672 1164 OFFCURVE",
"658 1054 CURVE",
"626 798 LINE",
"564 726 OFFCURVE",
"492 696 OFFCURVE",
"430 696 CURVE SMOOTH",
"358 696 OFFCURVE",
"324 740 OFFCURVE",
"330 798 CURVE SMOOTH",
"338 850 OFFCURVE",
"366 898 OFFCURVE",
"492 918 CURVE SMOOTH",
"566 928 OFFCURVE",
"596 998 OFFCURVE",
"606 1030 CURVE",
"314 998 OFFCURVE",
"204 930 OFFCURVE",
"186 788 CURVE SMOOTH",
"172 676 OFFCURVE",
"254 590 OFFCURVE",
"400 590 CURVE SMOOTH"
);
}
);
width = 1054;
},
{
layerId = "5E1C92F4-866D-4CC0-BA00-538F5374015A";
paths = (
{
closed = 1;
nodes = (
"456 590 OFFCURVE",
"532 622 OFFCURVE",
"588 676 CURVE",
"606 700 LINE",
"606 676 LINE",
"614 646 OFFCURVE",
"624 624 OFFCURVE",
"644 604 CURVE",
"784 604 LINE",
"778 654 OFFCURVE",
"776 732 OFFCURVE",
"790 844 CURVE {name = hr00;}",
"816 1044 LINE",
"838 1232 OFFCURVE",
"744 1342 OFFCURVE",
"534 1342 CURVE SMOOTH",
"472 1342 OFFCURVE",
"392 1334 OFFCURVE",
"298 1294 CURVE",
"324 1176 LINE",
"384 1198 OFFCURVE",
"442 1206 OFFCURVE",
"492 1206 CURVE SMOOTH",
"588 1206 OFFCURVE",
"652 1164 OFFCURVE",
"638 1054 CURVE",
"608 802 LINE",
"552 742 OFFCURVE",
"488 716 OFFCURVE",
"426 716 CURVE SMOOTH",
"374 716 OFFCURVE",
"346 752 OFFCURVE",
"350 798 CURVE SMOOTH",
"356 846 OFFCURVE",
"390 882 OFFCURVE",
"470 896 CURVE SMOOTH",
"544 910 OFFCURVE",
"576 996 OFFCURVE",
"586 1028 CURVE",
"294 996 OFFCURVE",
"182 920 OFFCURVE",
"166 788 CURVE SMOOTH",
"150 662 OFFCURVE",
"244 590 OFFCURVE",
"374 590 CURVE SMOOTH"
);
}
);
width = 1054;
}
);
unicode = 00AA;
},
{
color = 6;
glyphname = ordmasculine;
layers = (
{
layerId = "3BBF7C5C-CA4C-45AB-AE18-0528A0ACCA90";
paths = (
{
closed = 1;
nodes = (
"696 588 OFFCURVE",
"856 734 OFFCURVE",
"884 966 CURVE",
"914 1218 OFFCURVE",
"772 1342 OFFCURVE",
"592 1342 CURVE",
"382 1342 OFFCURVE",
"234 1174 OFFCURVE",
"208 966 CURVE",
"180 736 OFFCURVE",
"298 588 OFFCURVE",
"500 588 CURVE {name = hr00;}"
);
},
{
closed = 1;
nodes = (
"402 698 OFFCURVE",
"332 788 OFFCURVE",
"354 966 CURVE",
"370 1104 OFFCURVE",
"448 1234 OFFCURVE",
"578 1234 CURVE",
"724 1234 OFFCURVE",
"756 1094 OFFCURVE",
"740 966 CURVE",
"722 824 OFFCURVE",
"640 698 OFFCURVE",
"512 698 CURVE"
);
}
);
width = 860;
},
{
layerId = "5E1C92F4-866D-4CC0-BA00-538F5374015A";
paths = (
{
closed = 1;
nodes = (
"744 588 OFFCURVE",
"880 766 OFFCURVE",
"904 966 CURVE SMOOTH",
"930 1184 OFFCURVE",
"828 1342 OFFCURVE",
"592 1342 CURVE {name = hr00;}",
"360 1342 OFFCURVE",
"214 1174 OFFCURVE",
"188 966 CURVE SMOOTH",
"158 724 OFFCURVE",
"282 588 OFFCURVE",
"500 588 CURVE SMOOTH"
);
},
{
closed = 1;
nodes = (
"394 728 OFFCURVE",
"358 838 OFFCURVE",
"374 966 CURVE SMOOTH",
"390 1104 OFFCURVE",
"466 1204 OFFCURVE",
"574 1204 CURVE SMOOTH",
"688 1204 OFFCURVE",
"736 1106 OFFCURVE",
"720 966 CURVE SMOOTH",
"702 828 OFFCURVE",
"632 728 OFFCURVE",
"516 728 CURVE"
);
}
);
width = 860;
}
);
unicode = 00BA;
},
{
color = 6;
glyphname = zero;
layers = (
{
layerId = "3BBF7C5C-CA4C-45AB-AE18-0528A0ACCA90";
paths = (
{
closed = 1;
nodes = (
"948 -32 OFFCURVE",
"1224 214 OFFCURVE",
"1282 698 CURVE SMOOTH",
"1338 1144 OFFCURVE",
"1160 1432 OFFCURVE",
"830 1432 CURVE SMOOTH",
"500 1432 OFFCURVE",
"256 1142 OFFCURVE",
"200 698 CURVE SMOOTH",
"147 247 OFFCURVE",
"329 -32 OFFCURVE",
"654 -32 CURVE SMOOTH"
);
},
{
closed = 1;
nodes = (
"454 112 OFFCURVE",
"352 330 OFFCURVE",
"396 698 CURVE SMOOTH",
"442 1066 OFFCURVE",
"600 1288 OFFCURVE",
"816 1288 CURVE SMOOTH",
"1030 1288 OFFCURVE",
"1132 1066 OFFCURVE",
"1086 698 CURVE SMOOTH",
"1042 330 OFFCURVE",
"884 112 OFFCURVE",
"670 112 CURVE SMOOTH"
);
}
);
width = 1322;
},
{
layerId = "5E1C92F4-866D-4CC0-BA00-538F5374015A";
paths = (
{
closed = 1;
nodes = (
"1052 -38 OFFCURVE",
"1288 314 OFFCURVE",
"1334 698 CURVE SMOOTH {name = hr00;}",
"1378 1054 OFFCURVE",
"1252 1438 OFFCURVE",
"834 1438 CURVE SMOOTH",
"470 1438 OFFCURVE",
"204 1140 OFFCURVE",
"150 698 CURVE SMOOTH",
"94 240 OFFCURVE",
"300 -38 OFFCURVE",
"652 -38 CURVE SMOOTH"
);
},
{
closed = 1;
nodes = (
"484 166 OFFCURVE",
"414 374 OFFCURVE",
"454 698 CURVE SMOOTH",
"494 1024 OFFCURVE",
"612 1234 OFFCURVE",
"808 1234 CURVE SMOOTH",
"1002 1234 OFFCURVE",
"1070 1024 OFFCURVE",
"1030 698 CURVE SMOOTH",
"990 374 OFFCURVE",
"872 166 OFFCURVE",
"678 166 CURVE SMOOTH"
);
}
);
width = 1420;
}
);
unicode = 0030;
},
{
color = 6;
glyphname = one;
layers = (
{
layerId = "3BBF7C5C-CA4C-45AB-AE18-0528A0ACCA90";
paths = (
{
closed = 1;
nodes = (
"480 0 LINE",
"652 1402 LINE",
"578 1402 LINE",
"134 1178 LINE",
"188 1052 LINE",
"432 1174 LINE",
"288 0 LINE {name = hr00;}"
);
}
);
width = 638;
},
{
layerId = "5E1C92F4-866D-4CC0-BA00-538F5374015A";
paths = (
{
closed = 1;
nodes = (
"514 0 LINE",
"686 1402 LINE",
"578 1402 LINE",
"102 1162 LINE",
"168 1002 LINE",
"394 1112 LINE",
"258 0 LINE {name = hr00;}"
);
}
);
width = 638;
}
);
unicode = 0031;
},
{
color = 6;
glyphname = two;
layers = (
{
layerId = "3BBF7C5C-CA4C-45AB-AE18-0528A0ACCA90";
paths = (
{
closed = 1;
nodes = (
"964 0 LINE",
"982 160 LINE",
"398 160 LINE",
"354 152 LINE",
"388 186 LINE",
"582 446 OFFCURVE",
"1030 740 OFFCURVE",
"1070 1060 CURVE SMOOTH {name = hr00;}",
"1098 1290 OFFCURVE",
"922 1420 OFFCURVE",
"682 1420 CURVE SMOOTH",
"574 1420 OFFCURVE",
"464 1404 OFFCURVE",
"334 1338 CURVE",
"366 1204 LINE",
"482 1262 OFFCURVE",
"568 1276 OFFCURVE",
"642 1276 CURVE",
"782 1276 OFFCURVE",
"890 1188 OFFCURVE",
"872 1038 CURVE",
"840 774 OFFCURVE",
"440 508 OFFCURVE",
"122 76 CURVE",
"114 0 LINE"
);
}
);
width = 1028;
},
{
layerId = "5E1C92F4-866D-4CC0-BA00-538F5374015A";
paths = (
{
closed = 1;
nodes = (
"1010 0 LINE",
"1036 218 LINE",
"516 218 LINE",
"470 212 LINE",
"506 248 LINE",
"712 466 OFFCURVE",
"1084 784 OFFCURVE",
"1116 1044 CURVE SMOOTH {name = hr00;}",
"1144 1282 OFFCURVE",
"968 1426 OFFCURVE",
"658 1426 CURVE SMOOTH",
"566 1426 OFFCURVE",
"446 1406 OFFCURVE",
"306 1344 CURVE",
"356 1160 LINE",
"460 1204 OFFCURVE",
"552 1222 OFFCURVE",
"614 1222 CURVE",
"744 1222 OFFCURVE",
"832 1150 OFFCURVE",
"816 1024 CURVE",
"786 770 OFFCURVE",
"246 380 OFFCURVE",
"102 118 CURVE",
"88 0 LINE"
);
}
);
width = 1134;
}
);
unicode = 0032;
},
{
color = 6;
glyphname = three;
layers = (
{
layerId = "3BBF7C5C-CA4C-45AB-AE18-0528A0ACCA90";
paths = (
{
closed = 1;
nodes = (
"686 -22 OFFCURVE",
"918 184 OFFCURVE",
"946 414 CURVE SMOOTH",
"968 596 OFFCURVE",
"858 722 OFFCURVE",
"736 768 CURVE",
"692 778 LINE",
"744 794 LINE",
"878 862 OFFCURVE",
"970 980 OFFCURVE",
"986 1108 CURVE SMOOTH {name = hr00;}",
"1008 1290 OFFCURVE",
"866 1424 OFFCURVE",
"636 1424 CURVE SMOOTH",
"528 1424 OFFCURVE",
"408 1406 OFFCURVE",
"278 1340 CURVE",
"312 1206 LINE",
"426 1264 OFFCURVE",
"522 1278 OFFCURVE",
"598 1278 CURVE SMOOTH",
"720 1278 OFFCURVE",
"800 1198 OFFCURVE",
"786 1076 CURVE",
"768 932 OFFCURVE",
"624 878 OFFCURVE",
"498 826 CURVE SMOOTH",
"390 784 LINE",
"394 676 LINE",
"620 676 OFFCURVE",
"774 618 OFFCURVE",
"750 418 CURVE SMOOTH",
"734 292 OFFCURVE",
"616 124 OFFCURVE",
"414 124 CURVE SMOOTH",
"288 124 OFFCURVE",
"180 168 OFFCURVE",
"130 202 CURVE",
"68 72 LINE",
"128 30 OFFCURVE",
"246 -22 OFFCURVE",
"398 -22 CURVE SMOOTH"
);
}
);
width = 1056;
},
{
layerId = "5E1C92F4-866D-4CC0-BA00-538F5374015A";
paths = (
{
closed = 1;
nodes = (
"702 -22 OFFCURVE",
"964 138 OFFCURVE",
"994 388 CURVE SMOOTH",
"1016 562 OFFCURVE",
"922 696 OFFCURVE",
"782 754 CURVE",
"736 764 LINE",
"790 784 LINE",
"936 868 OFFCURVE",
"1018 974 OFFCURVE",
"1034 1092 CURVE SMOOTH {name = hr00;}",
"1058 1302 OFFCURVE",
"878 1424 OFFCURVE",
"628 1424 CURVE SMOOTH",
"518 1424 OFFCURVE",
"392 1406 OFFCURVE",
"230 1342 CURVE",
"274 1156 LINE",
"404 1206 OFFCURVE",
"484 1220 OFFCURVE",
"560 1220 CURVE SMOOTH",
"666 1220 OFFCURVE",
"748 1170 OFFCURVE",
"738 1078 CURVE",
"724 964 OFFCURVE",
"608 900 OFFCURVE",
"416 822 CURVE SMOOTH",
"342 792 LINE",
"340 622 LINE",
"564 622 OFFCURVE",
"724 572 OFFCURVE",
"702 392 CURVE SMOOTH",
"684 256 OFFCURVE",
"534 182 OFFCURVE",
"394 182 CURVE SMOOTH",
"314 182 OFFCURVE",
"222 198 OFFCURVE",
"106 252 CURVE",
"18 70 LINE",
"138 14 OFFCURVE",
"266 -22 OFFCURVE",
"412 -22 CURVE SMOOTH"
);
}
);
width = 1056;
}
);
unicode = 0033;
},
{
color = 6;
glyphname = four;
layers = (
{
layerId = "3BBF7C5C-CA4C-45AB-AE18-0528A0ACCA90";
paths = (
{
closed = 1;
nodes = (
"918 0 LINE",
"956 312 LINE",
"1116 312 LINE",
"1132 454 LINE",
"972 454 LINE",
"1090 1402 LINE",
"916 1402 LINE {name = hr00;}",
"144 434 LINE",
"130 312 LINE",
"712 312 LINE",
"694 356 OFFCURVE",
"642 456 OFFCURVE",
"536 456 CURVE",
"352 456 LINE",
"320 452 LINE",
"346 474 LINE",
"852 1096 LINE",
"888 1146 LINE",
"878 1092 LINE",
"744 0 LINE"
);
}
);
width = 1190;
},
{
layerId = "5E1C92F4-866D-4CC0-BA00-538F5374015A";
paths = (
{
closed = 1;
nodes = (
"966 0 LINE",
"1000 282 LINE",
"1162 282 LINE",
"1186 484 LINE",
"1024 484 LINE",
"1138 1402 LINE",
"802 1402 LINE",
"104 476 LINE",
"80 282 LINE",
"662 282 LINE",
"646 372 OFFCURVE",
"602 484 OFFCURVE",
"486 484 CURVE {name = hr00;}",
"414 484 LINE",
"372 482 LINE",
"410 522 LINE",
"802 1046 LINE",
"838 1102 LINE",
"826 1036 LINE",
"700 0 LINE"
);
}
);
width = 1190;
}
);
unicode = 0034;
},
{
color = 6;
glyphname = five;
layers = (
{
layerId = "3BBF7C5C-CA4C-45AB-AE18-0528A0ACCA90";
paths = (
{
closed = 1;
nodes = (
"750 -22 OFFCURVE",
"952 184 OFFCURVE",
"980 414 CURVE SMOOTH",
"1006 628 OFFCURVE",
"882 838 OFFCURVE",
"552 838 CURVE",
"516 838 OFFCURVE",
"482 836 OFFCURVE",
"450 832 CURVE",
"408 826 LINE {name = hr00;}",
"416 866 LINE",
"492 1244 LINE",
"1022 1244 LINE",
"1042 1402 LINE",
"376 1402 LINE",
"232 656 LINE",
"312 680 OFFCURVE",
"424 696 OFFCURVE",
"492 696 CURVE",
"682 696 OFFCURVE",
"808 610 OFFCURVE",
"784 418 CURVE SMOOTH",
"768 292 OFFCURVE",
"678 124 OFFCURVE",
"446 124 CURVE SMOOTH",
"370 124 OFFCURVE",
"258 144 OFFCURVE",
"160 206 CURVE",
"98 76 LINE",
"176 16 OFFCURVE",
"328 -22 OFFCURVE",
"430 -22 CURVE SMOOTH"
);
}
);
width = 1070;
},
{
layerId = "5E1C92F4-866D-4CC0-BA00-538F5374015A";
paths = (
{
closed = 1;
nodes = (
"732 -24 OFFCURVE",
"998 156 OFFCURVE",
"1032 426 CURVE SMOOTH",
"1062 672 OFFCURVE",
"888 866 OFFCURVE",
"560 866 CURVE",
"544 866 OFFCURVE",
"522 866 OFFCURVE",
"496 864 CURVE",
"458 856 LINE",
"468 884 LINE {name = hr00;}",
"526 1184 LINE",
"1064 1184 LINE",
"1092 1402 LINE",
"330 1402 LINE",
"186 636 LINE",
"312 658 OFFCURVE",
"398 664 OFFCURVE",
"466 664 CURVE",
"642 664 OFFCURVE",
"756 580 OFFCURVE",
"738 430 CURVE SMOOTH",
"722 304 OFFCURVE",
"604 180 OFFCURVE",
"434 180 CURVE SMOOTH",
"360 180 OFFCURVE",
"268 200 OFFCURVE",
"136 254 CURVE",
"48 72 LINE",
"192 -6 OFFCURVE",
"308 -24 OFFCURVE",
"410 -24 CURVE SMOOTH"
);
}
);
width = 1074;
}
);
unicode = 0035;
},
{
color = 6;
glyphname = six;
layers = (
{
layerId = "3BBF7C5C-CA4C-45AB-AE18-0528A0ACCA90";
paths = (
{
closed = 1;
nodes = (
"948 -28 OFFCURVE",
"1156 202 OFFCURVE",
"1184 432 CURVE SMOOTH",
"1218 706 OFFCURVE",
"1062 854 OFFCURVE",
"822 854 CURVE SMOOTH",
"730 854 OFFCURVE",
"664 832 OFFCURVE",
"518 760 CURVE",
"550 726 OFFCURVE",
"630 676 OFFCURVE",
"732 700 CURVE",
"766 708 OFFCURVE",
"784 710 OFFCURVE",
"804 710 CURVE SMOOTH",
"924 710 OFFCURVE",
"1010 614 OFFCURVE",
"988 432 CURVE SMOOTH",
"966 248 OFFCURVE",
"844 116 OFFCURVE",
"688 116 CURVE SMOOTH",
"422 116 OFFCURVE",
"402 438 OFFCURVE",
"430 656 CURVE SMOOTH",
"474 1014 OFFCURVE",
"698 1268 OFFCURVE",
"980 1268 CURVE {name = hr00;}",
"1030 1268 OFFCURVE",
"1088 1260 OFFCURVE",
"1142 1234 CURVE",
"1202 1366 LINE",
"1134 1398 OFFCURVE",
"1064 1412 OFFCURVE",
"998 1412 CURVE",
"564 1412 OFFCURVE",
"278 1018 OFFCURVE",
"234 652 CURVE SMOOTH",
"192 324 OFFCURVE",
"272 -28 OFFCURVE",
"674 -28 CURVE SMOOTH"
);
}
);
width = 1308;
},
{
layerId = "5E1C92F4-866D-4CC0-BA00-538F5374015A";
paths = (
{
closed = 1;
nodes = (
"990 -32 OFFCURVE",
"1210 216 OFFCURVE",
"1238 448 CURVE SMOOTH",
"1272 732 OFFCURVE",
"1098 884 OFFCURVE",
"872 884 CURVE SMOOTH",
"806 884 OFFCURVE",
"710 866 OFFCURVE",
"586 806 CURVE",
"612 742 OFFCURVE",
"660 660 OFFCURVE",
"754 674 CURVE",
"778 678 OFFCURVE",
"802 680 OFFCURVE",
"816 680 CURVE SMOOTH",
"896 680 OFFCURVE",
"962 608 OFFCURVE",
"942 448 CURVE SMOOTH",
"924 294 OFFCURVE",
"812 170 OFFCURVE",
"694 170 CURVE SMOOTH",
"480 170 OFFCURVE",
"452 438 OFFCURVE",
"480 658 CURVE SMOOTH",
"518 964 OFFCURVE",
"692 1216 OFFCURVE",
"976 1216 CURVE {name = hr00;}",
"1028 1216 OFFCURVE",
"1090 1210 OFFCURVE",
"1168 1186 CURVE",
"1256 1372 LINE",
"1162 1404 OFFCURVE",
"1068 1420 OFFCURVE",
"1002 1420 CURVE",
"568 1420 OFFCURVE",
"236 1062 OFFCURVE",
"186 654 CURVE SMOOTH",
"140 284 OFFCURVE",
"272 -32 OFFCURVE",
"676 -32 CURVE SMOOTH"
);
}
);
width = 1250;
}
);
unicode = 0036;
},
{
color = 6;
glyphname = seven;
layers = (
{
layerId = "3BBF7C5C-CA4C-45AB-AE18-0528A0ACCA90";
paths = (
{
closed = 1;
nodes = (
"454 0 LINE",
"590 642 OFFCURVE",
"830 970 OFFCURVE",
"1082 1250 CURVE",
"1102 1402 LINE",
"248 1402 LINE",
"226 1236 LINE",
"854 1236 LINE",
"880 1236 LINE",
"862 1214 LINE",
"568 848 OFFCURVE",
"376 456 OFFCURVE",
"260 0 CURVE {name = hr00;}"
);
}
);
width = 1002;
},
{
layerId = "5E1C92F4-866D-4CC0-BA00-538F5374015A";
paths = (
{
closed = 1;
nodes = (
"500 0 LINE",
"636 622 OFFCURVE",
"846 928 OFFCURVE",
"1100 1208 CURVE",
"1124 1402 LINE",
"248 1402 LINE",
"220 1174 LINE",
"746 1174 LINE",
"796 1178 LINE",
"762 1148 LINE",
"482 790 OFFCURVE",
"326 456 OFFCURVE",
"210 0 CURVE {name = hr00;}"
);
}
);
width = 1006;
}
);
unicode = 0037;
},
{
color = 6;
glyphname = eight;
layers = (
{
layerId = "3BBF7C5C-CA4C-45AB-AE18-0528A0ACCA90";
paths = (
{
closed = 1;
nodes = (
"872 -28 OFFCURVE",
"1106 110 OFFCURVE",
"1136 356 CURVE SMOOTH",
"1158 528 OFFCURVE",
"1086 628 OFFCURVE",
"984 696 CURVE",
"956 714 LINE",
"978 736 LINE",
"1080 838 OFFCURVE",
"1164 940 OFFCURVE",
"1178 1062 CURVE SMOOTH",
"1206 1290 OFFCURVE",
"1030 1424 OFFCURVE",
"804 1424 CURVE SMOOTH",
"590 1424 OFFCURVE",
"368 1290 OFFCURVE",
"340 1062 CURVE SMOOTH",
"282 590 OFFCURVE",
"1000 704 OFFCURVE",
"956 356 CURVE SMOOTH",
"940 216 OFFCURVE",
"810 116 OFFCURVE",
"638 116 CURVE SMOOTH",
"474 116 OFFCURVE",
"360 214 OFFCURVE",
"380 380 CURVE SMOOTH",
"384 410 OFFCURVE",
"398 442 OFFCURVE",
"420 478 CURVE SMOOTH",
"466 548 OFFCURVE",
"450 630 OFFCURVE",
"414 694 CURVE",
"256 544 OFFCURVE",
"216 446 OFFCURVE",
"204 356 CURVE SMOOTH",
"174 110 OFFCURVE",
"364 -28 OFFCURVE",
"620 -28 CURVE SMOOTH"
);
},
{
closed = 1;
nodes = (
"662 854 OFFCURVE",
"500 906 OFFCURVE",
"520 1062 CURVE SMOOTH {name = hr00;}",
"536 1198 OFFCURVE",
"666 1278 OFFCURVE",
"786 1278 CURVE SMOOTH",
"904 1278 OFFCURVE",
"1018 1200 OFFCURVE",
"998 1038 CURVE",
"986 938 OFFCURVE",
"920 862 OFFCURVE",
"826 780 CURVE"
);
}
);
width = 1228;
},
{
layerId = "5E1C92F4-866D-4CC0-BA00-538F5374015A";
paths = (
{
closed = 1;
nodes = (
"964 -26 OFFCURVE",
"1206 112 OFFCURVE",
"1236 356 CURVE SMOOTH",
"1258 528 OFFCURVE",
"1182 634 OFFCURVE",
"1078 710 CURVE",
"1046 726 LINE",
"1090 756 LINE",
"1196 866 OFFCURVE",
"1266 968 OFFCURVE",
"1278 1062 CURVE SMOOTH {name = hr00;}",
"1306 1292 OFFCURVE",
"1122 1428 OFFCURVE",
"856 1428 CURVE SMOOTH",
"598 1428 OFFCURVE",
"368 1292 OFFCURVE",
"340 1062 CURVE SMOOTH",
"282 592 OFFCURVE",
"994 664 OFFCURVE",
"956 356 CURVE SMOOTH",
"944 258 OFFCURVE",
"846 176 OFFCURVE",
"696 176 CURVE SMOOTH",
"552 176 OFFCURVE",
"460 244 OFFCURVE",
"474 356 CURVE SMOOTH",
"478 386 OFFCURVE",
"486 406 OFFCURVE",
"504 444 CURVE SMOOTH",
"536 532 OFFCURVE",
"476 618 OFFCURVE",
"414 682 CURVE",
"270 550 OFFCURVE",
"216 448 OFFCURVE",
"204 356 CURVE SMOOTH",
"174 112 OFFCURVE",
"372 -26 OFFCURVE",
"672 -26 CURVE SMOOTH"
);
},
{
closed = 1;
nodes = (
"732 888 OFFCURVE",
"604 944 OFFCURVE",
"620 1062 CURVE SMOOTH",
"632 1170 OFFCURVE",
"724 1224 OFFCURVE",
"832 1224 CURVE SMOOTH",
"934 1224 OFFCURVE",
"1018 1172 OFFCURVE",
"1002 1040 CURVE",
"992 974 OFFCURVE",
"952 898 OFFCURVE",
"876 820 CURVE"
);
}
);
width = 1324;
}
);
unicode = 0038;
},
{
color = 6;
glyphname = nine;
layers = (
{
layerId = "3BBF7C5C-CA4C-45AB-AE18-0528A0ACCA90";
paths = (
{
closed = 1;
nodes = (
"888 -20 OFFCURVE",
"1178 376 OFFCURVE",
"1222 744 CURVE SMOOTH",
"1262 1068 OFFCURVE",
"1182 1420 OFFCURVE",
"782 1420 CURVE SMOOTH",
"508 1420 OFFCURVE",
"298 1194 OFFCURVE",
"270 962 CURVE SMOOTH",
"236 688 OFFCURVE",
"394 542 OFFCURVE",
"634 542 CURVE SMOOTH",
"724 542 OFFCURVE",
"790 560 OFFCURVE",
"934 632 CURVE",
"904 668 OFFCURVE",
"828 720 OFFCURVE",
"722 692 CURVE",
"690 686 OFFCURVE",
"668 684 OFFCURVE",
"650 684 CURVE SMOOTH",
"528 684 OFFCURVE",
"446 782 OFFCURVE",
"468 962 CURVE SMOOTH",
"490 1144 OFFCURVE",
"610 1276 OFFCURVE",
"770 1276 CURVE SMOOTH",
"1034 1276 OFFCURVE",
"1052 956 OFFCURVE",
"1026 740 CURVE SMOOTH",
"982 380 OFFCURVE",
"758 126 OFFCURVE",
"472 126 CURVE SMOOTH {name = hr00;}",
"424 126 OFFCURVE",
"368 136 OFFCURVE",
"312 162 CURVE",
"250 30 LINE",
"318 -4 OFFCURVE",
"388 -20 OFFCURVE",
"454 -20 CURVE"
);
}
);
width = 1308;
},
{
layerId = "5E1C92F4-866D-4CC0-BA00-538F5374015A";
paths = (
{
closed = 1;
nodes = (
"892 -20 OFFCURVE",
"1224 336 OFFCURVE",
"1274 746 CURVE SMOOTH",
"1320 1116 OFFCURVE",
"1188 1432 OFFCURVE",
"784 1432 CURVE SMOOTH",
"468 1432 OFFCURVE",
"250 1184 OFFCURVE",
"222 952 CURVE SMOOTH",
"188 668 OFFCURVE",
"360 516 OFFCURVE",
"588 516 CURVE SMOOTH",
"654 516 OFFCURVE",
"750 534 OFFCURVE",
"874 594 CURVE",
"848 658 OFFCURVE",
"798 740 OFFCURVE",
"706 726 CURVE",
"682 722 OFFCURVE",
"656 720 OFFCURVE",
"644 720 CURVE SMOOTH",
"564 720 OFFCURVE",
"498 792 OFFCURVE",
"518 952 CURVE SMOOTH",
"536 1104 OFFCURVE",
"648 1228 OFFCURVE",
"766 1228 CURVE SMOOTH",
"980 1228 OFFCURVE",
"1006 960 OFFCURVE",
"980 742 CURVE SMOOTH",
"942 436 OFFCURVE",
"768 184 OFFCURVE",
"484 184 CURVE {name = hr00;}",
"432 184 OFFCURVE",
"370 190 OFFCURVE",
"292 212 CURVE",
"204 28 LINE",
"296 -6 OFFCURVE",
"392 -20 OFFCURVE",
"458 -20 CURVE"
);
}
);
width = 1248;
}
);
unicode = 0039;
},
{
color = 6;
glyphname = onesuperior;
layers = (
{
layerId = "3BBF7C5C-CA4C-45AB-AE18-0528A0ACCA90";
paths = (
{
closed = 1;
nodes = (
"576 618 LINE",
"680 1454 LINE",
"614 1454 LINE",
"348 1320 LINE",
"390 1226 LINE",
"522 1290 LINE",
"438 618 LINE {name = hr00;}"
);
}
);
width = 638;
},
{
layerId = "5E1C92F4-866D-4CC0-BA00-538F5374015A";
paths = (
{
closed = 1;
nodes = (
"606 618 LINE",
"710 1454 LINE",
"614 1454 LINE",
"310 1302 LINE",
"366 1174 LINE",
"484 1228 LINE",
"408 618 LINE {name = hr00;}"
);
}
);
width = 638;
}
);
unicode = 00B9;
},
{
color = 6;
glyphname = twosuperior;
layers = (
{
layerId = "3BBF7C5C-CA4C-45AB-AE18-0528A0ACCA90";
paths = (
{
closed = 1;
nodes = (
"744 620 LINE",
"758 738 LINE",
"426 738 LINE",
"400 734 LINE",
"420 754 LINE",
"534 910 OFFCURVE",
"784 1064 OFFCURVE",
"808 1256 CURVE SMOOTH {name = hr00;}",
"824 1394 OFFCURVE",
"706 1472 OFFCURVE",
"562 1472 CURVE SMOOTH",
"498 1472 OFFCURVE",
"430 1462 OFFCURVE",
"354 1422 CURVE",
"386 1330 LINE",
"444 1352 OFFCURVE",
"490 1364 OFFCURVE",
"536 1364 CURVE",
"620 1364 OFFCURVE",
"678 1332 OFFCURVE",
"668 1242 CURVE",
"648 1084 OFFCURVE",
"420 950 OFFCURVE",
"230 692 CURVE",
"222 620 LINE"
);
}
);
width = 804;
},
{
layerId = "5E1C92F4-866D-4CC0-BA00-538F5374015A";
paths = (
{
closed = 1;
nodes = (
"744 620 LINE",
"762 768 LINE",
"476 768 LINE",
"448 764 LINE",
"470 784 LINE",
"594 940 OFFCURVE",
"804 1064 OFFCURVE",
"828 1256 CURVE SMOOTH {name = hr00;}",
"844 1394 OFFCURVE",
"738 1472 OFFCURVE",
"582 1472 CURVE SMOOTH",
"518 1472 OFFCURVE",
"430 1460 OFFCURVE",
"354 1422 CURVE",
"396 1304 LINE",
"440 1322 OFFCURVE",
"486 1334 OFFCURVE",
"532 1334 CURVE",
"610 1334 OFFCURVE",
"654 1300 OFFCURVE",
"648 1242 CURVE",
"630 1094 OFFCURVE",
"394 956 OFFCURVE",
"224 710 CURVE",
"214 620 LINE"
);
}
);
width = 804;
}
);
unicode = 00B2;
},
{
color = 6;
glyphname = threesuperior;
layers = (
{
layerId = "3BBF7C5C-CA4C-45AB-AE18-0528A0ACCA90";
paths = (
{
closed = 1;
nodes = (
"572 602 OFFCURVE",
"710 726 OFFCURVE",
"728 864 CURVE SMOOTH",
"742 984 OFFCURVE",
"660 1054 OFFCURVE",
"572 1076 CURVE",
"668 1118 OFFCURVE",
"740 1196 OFFCURVE",
"750 1280 CURVE SMOOTH",
"764 1390 OFFCURVE",
"678 1470 OFFCURVE",
"532 1470 CURVE SMOOTH",
"466 1470 OFFCURVE",
"394 1460 OFFCURVE",
"316 1420 CURVE",
"350 1326 LINE",
"406 1348 OFFCURVE",
"460 1360 OFFCURVE",
"506 1360 CURVE SMOOTH {name = hr01;}",
"578 1360 OFFCURVE",
"616 1320 OFFCURVE",
"608 1262 CURVE",
"600 1192 OFFCURVE",
"526 1152 OFFCURVE",
"450 1122 CURVE SMOOTH",
"384 1096 LINE",
"384 1008 LINE",
"520 1008 OFFCURVE",
"600 966 OFFCURVE",
"588 866 CURVE SMOOTH",
"578 790 OFFCURVE",
"510 712 OFFCURVE",
"400 712 CURVE SMOOTH",
"324 712 OFFCURVE",
"282 732 OFFCURVE",
"238 752 CURVE",
"190 658 LINE",
"226 634 OFFCURVE",
"296 602 OFFCURVE",
"388 602 CURVE SMOOTH"
);
}
);
width = 762;
},
{
layerId = "5E1C92F4-866D-4CC0-BA00-538F5374015A";
paths = (
{
closed = 1;
nodes = (
"572 602 OFFCURVE",
"726 700 OFFCURVE",
"746 860 CURVE SMOOTH",
"762 980 OFFCURVE",
"680 1058 OFFCURVE",
"592 1080 CURVE",
"688 1122 OFFCURVE",
"760 1192 OFFCURVE",
"770 1276 CURVE SMOOTH",
"786 1410 OFFCURVE",
"678 1470 OFFCURVE",
"532 1470 CURVE SMOOTH",
"466 1470 OFFCURVE",
"396 1458 OFFCURVE",
"316 1420 CURVE",
"350 1302 LINE",
"408 1320 OFFCURVE",
"456 1330 OFFCURVE",
"502 1330 CURVE SMOOTH {name = hr01;}",
"560 1330 OFFCURVE",
"592 1294 OFFCURVE",
"588 1262 CURVE",
"580 1200 OFFCURVE",
"528 1166 OFFCURVE",
"452 1136 CURVE SMOOTH",
"386 1110 LINE",
"386 998 LINE",
"522 998 OFFCURVE",
"578 950 OFFCURVE",
"568 866 CURVE SMOOTH",
"558 796 OFFCURVE",
"494 742 OFFCURVE",
"404 742 CURVE SMOOTH",
"350 742 OFFCURVE",
"294 760 OFFCURVE",
"248 780 CURVE",
"190 658 LINE",
"226 634 OFFCURVE",
"306 602 OFFCURVE",
"388 602 CURVE SMOOTH"
);
}
);
width = 762;
}
);
unicode = 00B3;
},
{
color = 6;
glyphname = foursuperior;
layers = (
{
layerId = "3BBF7C5C-CA4C-45AB-AE18-0528A0ACCA90";
paths = (
{
closed = 1;
nodes = (
"656 608 LINE",
"676 786 LINE",
"772 786 LINE",
"786 894 LINE",
"690 894 LINE",
"758 1454 LINE",
"612 1454 LINE",
"170 898 LINE",
"156 786 LINE",
"490 786 LINE",
"476 828 OFFCURVE",
"440 896 OFFCURVE",
"360 896 CURVE",
"296 892 LINE",
"614 1280 LINE",
"528 608 LINE"
);
}
);
width = 762;
},
{
layerId = "5E1C92F4-866D-4CC0-BA00-538F5374015A";
paths = (
{
closed = 1;
nodes = (
"658 608 LINE",
"678 772 LINE",
"774 772 LINE",
"790 910 LINE",
"694 910 LINE",
"760 1454 LINE",
"574 1454 LINE",
"132 894 LINE",
"118 772 LINE",
"460 772 LINE",
"446 832 OFFCURVE",
"422 910 OFFCURVE",
"358 910 CURVE",
"318 910 LINE",
"564 1216 LINE",
"490 608 LINE"
);
}
);
width = 762;
}
);
unicode = 2074;
},
{
glyphname = fraction;
layers = (
{
layerId = "3BBF7C5C-CA4C-45AB-AE18-0528A0ACCA90";
paths = (
{
closed = 1;
nodes = (
"21 0 LINE",
"1071 1454 LINE",
"947 1454 LINE",
"-103 0 LINE {name = hr00;}"
);
}
);
width = 919;
},
{
layerId = "5E1C92F4-866D-4CC0-BA00-538F5374015A";
paths = (
{
closed = 1;
nodes = (
"123 0 LINE",
"1173 1454 LINE",
"957 1454 LINE",
"-93 0 LINE {name = hr00;}"
);
}
);
width = 1028;
}
);
unicode = 2044;
},
{
color = 6;
glyphname = onehalf;
layers = (
{
layerId = "3BBF7C5C-CA4C-45AB-AE18-0528A0ACCA90";
paths = (
{
closed = 1;
nodes = (
"302 0 LINE",
"1352 1454 LINE",
"1228 1454 LINE",
"178 0 LINE {name = hr00;}"
);
},
{
closed = 1;
nodes = (
"456 618 LINE",
"560 1454 LINE",
"494 1454 LINE",
"228 1320 LINE",
"270 1226 LINE",
"402 1290 LINE",
"318 618 LINE"
);
},
{
closed = 1;
nodes = (
"1374 0 LINE",
"1388 118 LINE",
"1056 118 LINE",
"1028 114 LINE",
"1050 134 LINE",
"1164 290 OFFCURVE",
"1414 444 OFFCURVE",
"1438 636 CURVE SMOOTH",
"1454 774 OFFCURVE",
"1336 852 OFFCURVE",
"1192 852 CURVE SMOOTH",
"1128 852 OFFCURVE",
"1060 842 OFFCURVE",
"984 802 CURVE",
"1016 710 LINE",
"1072 732 OFFCURVE",
"1120 744 OFFCURVE",
"1166 744 CURVE",
"1250 744 OFFCURVE",
"1308 712 OFFCURVE",
"1298 622 CURVE",
"1278 464 OFFCURVE",
"1050 330 OFFCURVE",
"860 72 CURVE",
"852 0 LINE"
);
}
);
width = 1526;
},
{
layerId = "5E1C92F4-866D-4CC0-BA00-538F5374015A";
paths = (
{
closed = 1;
nodes = (
"348 0 LINE",
"1398 1454 LINE",
"1182 1454 LINE",
"132 0 LINE {name = hr00;}"
);
},
{
closed = 1;
nodes = (
"486 618 LINE",
"590 1454 LINE",
"494 1454 LINE",
"190 1302 LINE",
"246 1174 LINE",
"364 1228 LINE",
"288 618 LINE"
);
},
{
closed = 1;
nodes = (
"1374 0 LINE",
"1392 148 LINE",
"1114 148 LINE",
"1078 144 LINE",
"1102 168 LINE",
"1226 324 OFFCURVE",
"1434 444 OFFCURVE",
"1458 636 CURVE SMOOTH",
"1474 774 OFFCURVE",
"1368 852 OFFCURVE",
"1212 852 CURVE SMOOTH",
"1148 852 OFFCURVE",
"1060 840 OFFCURVE",
"984 802 CURVE",
"1024 684 LINE",
"1070 702 OFFCURVE",
"1116 714 OFFCURVE",
"1162 714 CURVE SMOOTH",
"1240 714 OFFCURVE",
"1284 680 OFFCURVE",
"1278 622 CURVE SMOOTH",
"1260 474 OFFCURVE",
"1024 336 OFFCURVE",
"854 90 CURVE",
"844 0 LINE"
);
}
);
width = 1526;
}
);
unicode = 00BD;
},
{
color = 6;
glyphname = onequarter;
layers = (
{
layerId = "3BBF7C5C-CA4C-45AB-AE18-0528A0ACCA90";
paths = (
{
closed = 1;
nodes = (
"302 0 LINE",
"1352 1454 LINE",
"1228 1454 LINE",
"178 0 LINE {name = hr00;}"
);
},
{
closed = 1;
nodes = (
"456 618 LINE",
"560 1454 LINE",
"494 1454 LINE",
"228 1320 LINE",
"270 1226 LINE",
"402 1290 LINE",
"318 618 LINE"
);
},
{
closed = 1;
nodes = (
"1216 0 LINE",
"1236 178 LINE",
"1332 178 LINE",
"1346 286 LINE",
"1250 286 LINE",
"1318 846 LINE",
"1172 846 LINE",
"730 290 LINE",
"716 178 LINE",
"1050 178 LINE",
"1036 220 OFFCURVE",
"1000 288 OFFCURVE",
"920 288 CURVE",
"864 288 LINE",
"1168 660 LINE",
"1088 0 LINE"
);
}
);
width = 1396;
},
{
layerId = "5E1C92F4-866D-4CC0-BA00-538F5374015A";
paths = (
{
closed = 1;
nodes = (
"348 0 LINE",
"1398 1454 LINE",
"1182 1454 LINE",
"132 0 LINE {name = hr00;}"
);
},
{
closed = 1;
nodes = (
"486 618 LINE",
"590 1454 LINE",
"494 1454 LINE",
"190 1302 LINE",
"246 1174 LINE",
"364 1228 LINE",
"288 618 LINE"
);
},
{
closed = 1;
nodes = (
"1236 0 LINE",
"1256 164 LINE",
"1352 164 LINE",
"1368 302 LINE",
"1272 302 LINE",
"1338 846 LINE",
"1152 846 LINE",
"710 286 LINE",
"696 164 LINE",
"1038 164 LINE",
"1024 224 OFFCURVE",
"1000 302 OFFCURVE",
"936 302 CURVE",
"896 302 LINE",
"1142 608 LINE",
"1068 0 LINE"
);
}
);
width = 1396;
}
);
unicode = 00BC;
},
{
color = 6;
glyphname = threequarters;
layers = (
{
layerId = "3BBF7C5C-CA4C-45AB-AE18-0528A0ACCA90";
paths = (
{
closed = 1;
nodes = (
"378 0 LINE",
"1428 1454 LINE",
"1304 1454 LINE",
"254 0 LINE"
);
},
{
closed = 1;
nodes = (
"510 602 OFFCURVE",
"648 726 OFFCURVE",
"666 864 CURVE SMOOTH",
"680 984 OFFCURVE",
"598 1054 OFFCURVE",
"510 1076 CURVE",
"606 1118 OFFCURVE",
"678 1196 OFFCURVE",
"688 1280 CURVE SMOOTH",
"702 1390 OFFCURVE",
"616 1470 OFFCURVE",
"470 1470 CURVE SMOOTH",
"404 1470 OFFCURVE",
"332 1460 OFFCURVE",
"254 1420 CURVE",
"288 1326 LINE",
"344 1348 OFFCURVE",
"398 1360 OFFCURVE",
"444 1360 CURVE SMOOTH {name = hr02;}",
"516 1360 OFFCURVE",
"554 1320 OFFCURVE",
"546 1262 CURVE",
"538 1192 OFFCURVE",
"464 1152 OFFCURVE",
"388 1122 CURVE SMOOTH",
"322 1096 LINE",
"322 1008 LINE {name = hr01;}",
"458 1008 OFFCURVE",
"538 966 OFFCURVE",
"526 866 CURVE SMOOTH",
"516 790 OFFCURVE",
"448 712 OFFCURVE",
"338 712 CURVE SMOOTH",
"262 712 OFFCURVE",
"220 732 OFFCURVE",
"176 752 CURVE",
"128 658 LINE",
"164 634 OFFCURVE",
"234 602 OFFCURVE",
"326 602 CURVE SMOOTH"
);
},
{
closed = 1;
nodes = (
"1292 0 LINE",
"1312 178 LINE",
"1408 178 LINE",
"1422 286 LINE",
"1326 286 LINE",
"1394 846 LINE",
"1248 846 LINE",
"806 290 LINE",
"792 178 LINE",
"1126 178 LINE",
"1112 220 OFFCURVE",
"1076 288 OFFCURVE",
"996 288 CURVE",
"940 288 LINE",
"1244 660 LINE",
"1164 0 LINE"
);
}
);
width = 1432;
},
{
layerId = "5E1C92F4-866D-4CC0-BA00-538F5374015A";
paths = (
{
closed = 1;
nodes = (
"420 0 LINE",
"1470 1454 LINE",
"1254 1454 LINE",
"204 0 LINE"
);
},
{
closed = 1;
nodes = (
"512 602 OFFCURVE",
"666 700 OFFCURVE",
"686 860 CURVE SMOOTH",
"702 980 OFFCURVE",
"620 1058 OFFCURVE",
"532 1080 CURVE",
"628 1122 OFFCURVE",
"700 1192 OFFCURVE",
"710 1276 CURVE SMOOTH",
"726 1410 OFFCURVE",
"618 1470 OFFCURVE",
"472 1470 CURVE SMOOTH",
"406 1470 OFFCURVE",
"336 1458 OFFCURVE",
"256 1420 CURVE",
"290 1302 LINE",
"348 1320 OFFCURVE",
"396 1330 OFFCURVE",
"442 1330 CURVE SMOOTH {name = hr02;}",
"500 1330 OFFCURVE",
"532 1294 OFFCURVE",
"528 1262 CURVE",
"520 1200 OFFCURVE",
"468 1166 OFFCURVE",
"392 1136 CURVE SMOOTH",
"326 1110 LINE",
"326 998 LINE {name = hr01;}",
"462 998 OFFCURVE",
"518 950 OFFCURVE",
"508 866 CURVE SMOOTH",
"498 796 OFFCURVE",
"434 742 OFFCURVE",
"344 742 CURVE SMOOTH",
"290 742 OFFCURVE",
"234 760 OFFCURVE",
"188 780 CURVE",
"130 658 LINE",
"166 634 OFFCURVE",
"246 602 OFFCURVE",
"328 602 CURVE SMOOTH"
);
},
{
closed = 1;
nodes = (
"1308 0 LINE",
"1328 164 LINE",
"1424 164 LINE",
"1440 302 LINE",
"1344 302 LINE",
"1410 846 LINE",
"1224 846 LINE",
"782 286 LINE",
"768 164 LINE",
"1110 164 LINE",
"1096 224 OFFCURVE",
"1072 302 OFFCURVE",
"1008 302 CURVE",
"968 302 LINE",
"1214 608 LINE",
"1140 0 LINE"
);
}
);
width = 1432;
}
);
unicode = 00BE;
},
{
color = 3;
glyphname = .notdef;
layers = (
{
components = (
{
alignment = 1;
name = question;
transform = "{0.56447, 0, 0, 0.56447, 488, 324}";
}
);
layerId = "3BBF7C5C-CA4C-45AB-AE18-0528A0ACCA90";
paths = (
{
closed = 1;
nodes = (
"178 0 LINE",
"1350 0 LINE",
"1528 1454 LINE",
"356 1454 LINE"
);
},
{
closed = 1;
nodes = (
"1436 1374 LINE",
"1278 80 LINE",
"268 80 LINE",
"426 1374 LINE"
);
}
);
width = 1524;
},
{
components = (
{
alignment = 1;
name = question;
transform = "{0.56447, 0, 0, 0.56447, 488, 324}";
}
);
layerId = "5E1C92F4-866D-4CC0-BA00-538F5374015A";
paths = (
{
closed = 1;
nodes = (
"166 0 LINE",
"1338 0 LINE",
"1516 1454 LINE",
"344 1454 LINE"
);
},
{
closed = 1;
nodes = (
"1380 1334 LINE",
"1230 120 LINE",
"300 120 LINE",
"450 1334 LINE"
);
}
);
width = 1502;
}
);
leftMetricsKey = H;
rightMetricsKey = H;
},
{
color = 6;
glyphname = period;
layers = (
{
layerId = "3BBF7C5C-CA4C-45AB-AE18-0528A0ACCA90";
paths = (
{
closed = 1;
nodes = (
"370 -30 OFFCURVE",
"428 20 OFFCURVE",
"436 88 CURVE SMOOTH",
"444 158 OFFCURVE",
"398 210 OFFCURVE",
"328 210 CURVE SMOOTH",
"260 210 OFFCURVE",
"204 158 OFFCURVE",
"196 88 CURVE SMOOTH {name = hr00;}",
"188 20 OFFCURVE",
"232 -30 OFFCURVE",
"300 -30 CURVE SMOOTH"
);
}
);
width = 612;
},
{
layerId = "5E1C92F4-866D-4CC0-BA00-538F5374015A";
paths = (
{
closed = 1;
nodes = (
"338 -30 OFFCURVE",
"418 42 OFFCURVE",
"430 134 CURVE SMOOTH",
"440 226 OFFCURVE",
"378 302 OFFCURVE",
"286 302 CURVE SMOOTH",
"192 302 OFFCURVE",
"110 226 OFFCURVE",
"100 134 CURVE SMOOTH {name = hr00;}",
"88 42 OFFCURVE",
"152 -30 OFFCURVE",
"246 -30 CURVE SMOOTH"
);
}
);
width = 546;
}
);
unicode = 002E;
},
{
color = 6;
glyphname = comma;
layers = (
{
layerId = "3BBF7C5C-CA4C-45AB-AE18-0528A0ACCA90";
paths = (
{
closed = 1;
nodes = (
"224 -230 OFFCURVE",
"276 -66 OFFCURVE",
"290 40 CURVE SMOOTH",
"310 196 LINE",
"136 196 LINE {name = hr00;}",
"86 -196 LINE"
);
}
);
width = 394;
},
{
layerId = "5E1C92F4-866D-4CC0-BA00-538F5374015A";
paths = (
{
closed = 1;
nodes = (
"248 -294 OFFCURVE",
"338 -144 OFFCURVE",
"360 40 CURVE SMOOTH",
"380 196 LINE",
"136 196 LINE {name = hr00;}",
"80 -256 LINE"
);
}
);
width = 508;
}
);
unicode = 002C;
},
{
color = 6;
glyphname = exclam;
layers = (
{
layerId = "3BBF7C5C-CA4C-45AB-AE18-0528A0ACCA90";
paths = (
{
closed = 1;
nodes = (
"344 370 LINE",
"506 1454 LINE {name = hr00;}",
"318 1454 LINE",
"208 370 LINE"
);
},
{
closed = 1;
nodes = (
"296 -30 OFFCURVE",
"354 20 OFFCURVE",
"362 88 CURVE SMOOTH",
"370 158 OFFCURVE",
"324 210 OFFCURVE",
"254 210 CURVE SMOOTH",
"186 210 OFFCURVE",
"130 158 OFFCURVE",
"122 88 CURVE SMOOTH",
"114 20 OFFCURVE",
"158 -30 OFFCURVE",
"226 -30 CURVE SMOOTH"
);
}
);
width = 702;
},
{
layerId = "5E1C92F4-866D-4CC0-BA00-538F5374015A";
paths = (
{
closed = 1;
nodes = (
"388 460 LINE",
"552 1454 LINE {name = hr00;}",
"272 1454 LINE",
"188 460 LINE"
);
},
{
closed = 1;
nodes = (
"318 -28 OFFCURVE",
"398 44 OFFCURVE",
"410 136 CURVE SMOOTH",
"420 228 OFFCURVE",
"358 304 OFFCURVE",
"266 304 CURVE SMOOTH",
"172 304 OFFCURVE",
"90 228 OFFCURVE",
"80 136 CURVE SMOOTH",
"68 44 OFFCURVE",
"132 -28 OFFCURVE",
"226 -28 CURVE SMOOTH"
);
}
);
width = 702;
}
);
unicode = 0021;
},
{
color = 6;
glyphname = exclamdown;
layers = (
{
layerId = "3BBF7C5C-CA4C-45AB-AE18-0528A0ACCA90";
paths = (
{
closed = 1;
nodes = (
"276 -420 LINE",
"380 664 LINE",
"244 664 LINE",
"88 -420 LINE {name = hr00;}"
);
},
{
closed = 1;
nodes = (
"400 824 OFFCURVE",
"458 876 OFFCURVE",
"468 946 CURVE SMOOTH",
"476 1014 OFFCURVE",
"430 1064 OFFCURVE",
"360 1064 CURVE SMOOTH",
"292 1064 OFFCURVE",
"236 1014 OFFCURVE",
"228 946 CURVE",
"218 876 OFFCURVE",
"262 824 OFFCURVE",
"330 824 CURVE SMOOTH"
);
}
);
width = 702;
},
{
layerId = "5E1C92F4-866D-4CC0-BA00-538F5374015A";
paths = (
{
closed = 1;
nodes = (
"322 -420 LINE",
"402 574 LINE",
"202 574 LINE",
"42 -420 LINE {name = hr00;}"
);
},
{
closed = 1;
nodes = (
"410 730 OFFCURVE",
"492 806 OFFCURVE",
"504 898 CURVE SMOOTH",
"514 990 OFFCURVE",
"452 1062 OFFCURVE",
"360 1062 CURVE SMOOTH",
"266 1062 OFFCURVE",
"184 990 OFFCURVE",
"174 898 CURVE",
"162 806 OFFCURVE",
"224 730 OFFCURVE",
"318 730 CURVE SMOOTH"
);
}
);
width = 702;
}
);
unicode = 00A1;
},
{
color = 6;
glyphname = question;
layers = (
{
layerId = "3BBF7C5C-CA4C-45AB-AE18-0528A0ACCA90";
paths = (
{
closed = 1;
nodes = (
"598 370 LINE",
"644 736 OFFCURVE",
"1044 840 OFFCURVE",
"1086 1174 CURVE SMOOTH",
"1106 1342 OFFCURVE",
"964 1474 OFFCURVE",
"734 1474 CURVE SMOOTH {name = hr00;}",
"624 1474 OFFCURVE",
"516 1458 OFFCURVE",
"386 1392 CURVE",
"420 1258 LINE",
"532 1316 OFFCURVE",
"620 1330 OFFCURVE",
"696 1330 CURVE",
"820 1330 OFFCURVE",
"898 1250 OFFCURVE",
"886 1144 CURVE SMOOTH",
"852 876 OFFCURVE",
"508 804 OFFCURVE",
"454 370 CURVE"
);
},
{
closed = 1;
nodes = (
"546 -30 OFFCURVE",
"604 20 OFFCURVE",
"612 88 CURVE SMOOTH",
"620 158 OFFCURVE",
"574 210 OFFCURVE",
"504 210 CURVE SMOOTH",
"436 210 OFFCURVE",
"378 158 OFFCURVE",
"370 88 CURVE SMOOTH",
"362 20 OFFCURVE",
"408 -30 OFFCURVE",
"476 -30 CURVE SMOOTH"
);
}
);
width = 1166;
},
{
layerId = "5E1C92F4-866D-4CC0-BA00-538F5374015A";
paths = (
{
closed = 1;
nodes = (
"656 460 LINE",
"688 724 OFFCURVE",
"1092 866 OFFCURVE",
"1126 1148 CURVE SMOOTH",
"1152 1356 OFFCURVE",
"976 1474 OFFCURVE",
"710 1474 CURVE SMOOTH {name = hr00;}",
"600 1474 OFFCURVE",
"496 1458 OFFCURVE",
"340 1392 CURVE",
"388 1204 LINE",
"524 1258 OFFCURVE",
"588 1266 OFFCURVE",
"664 1266 CURVE",
"778 1266 OFFCURVE",
"848 1208 OFFCURVE",
"836 1118 CURVE SMOOTH",
"812 920 OFFCURVE",
"464 824 OFFCURVE",
"420 460 CURVE"
);
},
{
closed = 1;
nodes = (
"570 -28 OFFCURVE",
"650 44 OFFCURVE",
"662 136 CURVE SMOOTH",
"672 228 OFFCURVE",
"610 304 OFFCURVE",
"518 304 CURVE SMOOTH",
"424 304 OFFCURVE",
"342 228 OFFCURVE",
"332 136 CURVE SMOOTH",
"320 44 OFFCURVE",
"384 -28 OFFCURVE",
"478 -28 CURVE SMOOTH"
);
}
);
width = 1166;
}
);
unicode = 003F;
},
{
color = 6;
glyphname = questiondown;
layers = (
{
layerId = "3BBF7C5C-CA4C-45AB-AE18-0528A0ACCA90";
paths = (
{
closed = 1;
nodes = (
"658 -440 OFFCURVE",
"766 -424 OFFCURVE",
"898 -358 CURVE",
"864 -224 LINE",
"750 -282 OFFCURVE",
"662 -296 OFFCURVE",
"586 -296 CURVE",
"462 -296 OFFCURVE",
"384 -216 OFFCURVE",
"398 -110 CURVE SMOOTH",
"430 158 OFFCURVE",
"776 230 OFFCURVE",
"828 664 CURVE",
"684 664 LINE",
"640 298 OFFCURVE",
"238 194 OFFCURVE",
"198 -140 CURVE SMOOTH",
"178 -308 OFFCURVE",
"318 -440 OFFCURVE",
"548 -440 CURVE SMOOTH {name = hr00;}"
);
},
{
closed = 1;
nodes = (
"846 824 OFFCURVE",
"904 876 OFFCURVE",
"914 946 CURVE SMOOTH",
"922 1014 OFFCURVE",
"876 1064 OFFCURVE",
"808 1064 CURVE SMOOTH",
"738 1064 OFFCURVE",
"680 1014 OFFCURVE",
"672 946 CURVE SMOOTH",
"662 876 OFFCURVE",
"708 824 OFFCURVE",
"778 824 CURVE SMOOTH"
);
}
);
width = 1166;
},
{
layerId = "5E1C92F4-866D-4CC0-BA00-538F5374015A";
paths = (
{
closed = 1;
nodes = (
"684 -442 OFFCURVE",
"788 -426 OFFCURVE",
"944 -360 CURVE",
"896 -172 LINE",
"762 -226 OFFCURVE",
"696 -234 OFFCURVE",
"620 -234 CURVE",
"506 -234 OFFCURVE",
"438 -176 OFFCURVE",
"448 -86 CURVE SMOOTH",
"472 112 OFFCURVE",
"820 208 OFFCURVE",
"866 572 CURVE",
"630 572 LINE",
"596 308 OFFCURVE",
"194 166 OFFCURVE",
"158 -116 CURVE SMOOTH",
"134 -324 OFFCURVE",
"308 -442 OFFCURVE",
"574 -442 CURVE SMOOTH {name = hr00;}"
);
},
{
closed = 1;
nodes = (
"860 728 OFFCURVE",
"942 804 OFFCURVE",
"954 896 CURVE SMOOTH",
"964 988 OFFCURVE",
"902 1060 OFFCURVE",
"808 1060 CURVE SMOOTH",
"716 1060 OFFCURVE",
"634 988 OFFCURVE",
"624 896 CURVE SMOOTH",
"612 804 OFFCURVE",
"674 728 OFFCURVE",
"766 728 CURVE SMOOTH"
);
}
);
width = 1166;
}
);
unicode = 00BF;
},
{
color = 6;
glyphname = bullet;
layers = (
{
layerId = "3BBF7C5C-CA4C-45AB-AE18-0528A0ACCA90";
paths = (
{
closed = 1;
nodes = (
"658 482 OFFCURVE",
"732 544 OFFCURVE",
"742 630 CURVE SMOOTH",
"752 716 OFFCURVE",
"696 782 OFFCURVE",
"610 782 CURVE SMOOTH",
"524 782 OFFCURVE",
"452 716 OFFCURVE",
"442 630 CURVE SMOOTH {name = hr00;}",
"432 544 OFFCURVE",
"486 482 OFFCURVE",
"572 482 CURVE SMOOTH"
);
}
);
width = 1000;
},
{
layerId = "5E1C92F4-866D-4CC0-BA00-538F5374015A";
paths = (
{
closed = 1;
nodes = (
"676 444 OFFCURVE",
"768 522 OFFCURVE",
"780 630 CURVE SMOOTH",
"794 738 OFFCURVE",
"722 820 OFFCURVE",
"614 820 CURVE SMOOTH",
"506 820 OFFCURVE",
"418 738 OFFCURVE",
"404 630 CURVE SMOOTH {name = hr00;}",
"392 522 OFFCURVE",
"460 444 OFFCURVE",
"568 444 CURVE SMOOTH"
);
}
);
width = 1000;
}
);
unicode = 2022;
},
{
color = 6;
glyphname = asterisk;
layers = (
{
layerId = "3BBF7C5C-CA4C-45AB-AE18-0528A0ACCA90";
paths = (
{
closed = 1;
nodes = (
"624 1004 LINE",
"720 708 LINE",
"862 784 LINE",
"704 1046 LINE",
"710 1046 OFFCURVE",
"734 1046 OFFCURVE",
"1024 1016 CURVE",
"1042 1168 LINE",
"716 1136 LINE",
"718 1138 OFFCURVE",
"746 1178 OFFCURVE",
"940 1398 CURVE",
"818 1474 LINE {name = hr00;}",
"646 1180 LINE",
"544 1474 LINE",
"402 1398 LINE",
"564 1138 LINE",
"244 1168 LINE",
"226 1016 LINE",
"552 1048 LINE",
"332 784 LINE",
"454 708 LINE"
);
}
);
width = 1060;
},
{
layerId = "5E1C92F4-866D-4CC0-BA00-538F5374015A";
paths = (
{
closed = 1;
nodes = (
"622 1004 LINE",
"688 692 LINE",
"890 800 LINE",
"702 1046 LINE",
"734 1042 OFFCURVE",
"758 1038 OFFCURVE",
"1020 982 CURVE",
"1046 1198 LINE",
"716 1136 LINE",
"736 1158 OFFCURVE",
"754 1176 OFFCURVE",
"962 1382 CURVE",
"788 1492 LINE",
"642 1180 LINE {name = hr00;}",
"574 1492 LINE",
"372 1382 LINE",
"558 1138 LINE",
"248 1200 LINE",
"222 984 LINE",
"552 1048 LINE",
"304 800 LINE",
"478 692 LINE"
);
}
);
width = 1060;
}
);
unicode = 002A;
},
{
color = 6;
glyphname = numbersign;
layers = (
{
layerId = "3BBF7C5C-CA4C-45AB-AE18-0528A0ACCA90";
paths = (
{
closed = 1;
nodes = (
"478 0 LINE {name = hr01;}",
"774 948 LINE",
"1200 948 LINE",
"1234 948 LINE",
"1224 916 LINE",
"1082 460 LINE",
"836 460 LINE SMOOTH",
"742 460 OFFCURVE",
"686 406 OFFCURVE",
"652 330 CURVE",
"1016 330 LINE",
"1042 330 LINE",
"1034 304 LINE",
"940 0 LINE",
"1092 0 LINE {name = hr08;}",
"1194 330 LINE",
"1436 330 LINE {name = hr07;}",
"1452 460 LINE",
"1234 460 LINE",
"1388 948 LINE",
"1630 948 LINE",
"1646 1078 LINE",
"1428 1078 LINE {name = hr06;}",
"1530 1404 LINE",
"1378 1404 LINE {name = hr05;}",
"1276 1078 LINE",
"814 1078 LINE {name = hr04;}",
"916 1404 LINE",
"764 1404 LINE {name = hr03;}",
"662 1078 LINE",
"414 1078 LINE",
"398 948 LINE",
"578 948 LINE",
"620 948 LINE",
"610 916 LINE",
"468 460 LINE",
"220 460 LINE",
"204 330 LINE",
"400 330 LINE",
"428 330 LINE {name = hr02;}",
"420 304 LINE",
"326 0 LINE"
);
}
);
width = 1788;
},
{
layerId = "5E1C92F4-866D-4CC0-BA00-538F5374015A";
paths = (
{
closed = 1;
nodes = (
"514 0 LINE {name = hr01;}",
"802 924 LINE",
"1164 924 LINE",
"1200 928 LINE",
"1182 896 LINE",
"1050 482 LINE",
"918 482 LINE SMOOTH",
"774 482 OFFCURVE",
"708 384 OFFCURVE",
"672 308 CURVE",
"980 308 LINE",
"1012 312 LINE",
"994 282 LINE",
"904 0 LINE",
"1128 0 LINE {name = hr07;}",
"1224 308 LINE",
"1478 308 LINE",
"1500 482 LINE",
"1274 482 LINE",
"1414 926 LINE",
"1674 926 LINE",
"1696 1100 LINE",
"1468 1100 LINE {name = hr06;}",
"1566 1404 LINE",
"1342 1404 LINE {name = hr05;}",
"1246 1100 LINE",
"856 1100 LINE {name = hr04;}",
"952 1404 LINE",
"728 1404 LINE {name = hr03;}",
"634 1100 LINE",
"382 1100 LINE",
"360 924 LINE",
"556 924 LINE",
"588 928 LINE",
"572 906 LINE",
"438 480 LINE",
"188 480 LINE",
"166 308 LINE",
"370 308 LINE {name = hr02;}",
"400 312 LINE",
"382 290 LINE",
"290 0 LINE"
);
}
);
width = 1788;
}
);
unicode = 0023;
},
{
color = 6;
glyphname = slash;
layers = (
{
layerId = "3BBF7C5C-CA4C-45AB-AE18-0528A0ACCA90";
paths = (
{
closed = 1;
nodes = (
"162 -124 LINE",
"842 1454 LINE",
"684 1454 LINE",
"4 -124 LINE {name = hr00;}"
);
}
);
width = 664;
},
{
layerId = "5E1C92F4-866D-4CC0-BA00-538F5374015A";
paths = (
{
closed = 1;
nodes = (
"200 -124 LINE",
"880 1454 LINE",
"638 1454 LINE",
"-40 -124 LINE {name = hr00;}"
);
}
);
width = 664;
}
);
unicode = 002F;
},
{
color = 6;
glyphname = backslash;
layers = (
{
layerId = "3BBF7C5C-CA4C-45AB-AE18-0528A0ACCA90";
paths = (
{
closed = 1;
nodes = (
"698 -124 LINE",
"406 1454 LINE",
"228 1454 LINE",
"520 -124 LINE {name = hr00;}"
);
}
);
width = 756;
},
{
layerId = "5E1C92F4-866D-4CC0-BA00-538F5374015A";
paths = (
{
closed = 1;
nodes = (
"686 -124 LINE",
"394 1454 LINE",
"152 1454 LINE",
"444 -124 LINE {name = hr00;}"
);
}
);
width = 664;
}
);
unicode = 005C;
},
{
color = 6;
glyphname = hyphen;
layers = (
{
layerId = "3BBF7C5C-CA4C-45AB-AE18-0528A0ACCA90";
paths = (
{
closed = 1;
nodes = (
"760 546 LINE",
"776 674 LINE",
"172 674 LINE",
"156 546 LINE {name = hr00;}"
);
}
);
width = 750;
},
{
layerId = "5E1C92F4-866D-4CC0-BA00-538F5374015A";
paths = (
{
closed = 1;
nodes = (
"756 510 LINE",
"780 706 LINE",
"176 706 LINE",
"152 510 LINE {name = hr00;}"
);
}
);
width = 750;
}
);
unicode = 002D;
},
{
color = 6;
glyphname = endash;
layers = (
{
layerId = "3BBF7C5C-CA4C-45AB-AE18-0528A0ACCA90";
paths = (
{
closed = 1;
nodes = (
"996 486 LINE",
"1012 614 LINE",
"164 614 LINE",
"148 486 LINE {name = hr00;}"
);
}
);
width = 1080;
},
{
layerId = "5E1C92F4-866D-4CC0-BA00-538F5374015A";
paths = (
{
closed = 1;
nodes = (
"992 452 LINE",
"1016 648 LINE",
"168 648 LINE",
"144 452 LINE {name = hr00;}"
);
}
);
width = 1080;
}
);
unicode = 2013;
},
{
color = 6;
glyphname = emdash;
layers = (
{
layerId = "3BBF7C5C-CA4C-45AB-AE18-0528A0ACCA90";
paths = (
{
closed = 1;
nodes = (
"1626 486 LINE",
"1642 614 LINE",
"164 614 LINE",
"148 486 LINE {name = hr00;}"
);
}
);
width = 1698;
},
{
layerId = "5E1C92F4-866D-4CC0-BA00-538F5374015A";
paths = (
{
closed = 1;
nodes = (
"1622 452 LINE",
"1646 648 LINE",
"168 648 LINE",
"144 452 LINE {name = hr00;}"
);
}
);
width = 1698;
}
);
unicode = 2014;
},
{
color = 6;
glyphname = underscore;
layers = (
{
layerId = "3BBF7C5C-CA4C-45AB-AE18-0528A0ACCA90";
paths = (
{
closed = 1;
nodes = (
"924 -126 LINE",
"940 0 LINE",
"54 0 LINE",
"38 -126 LINE {name = hr00;}"
);
}
);
width = 994;
},
{
layerId = "5E1C92F4-866D-4CC0-BA00-538F5374015A";
paths = (
{
closed = 1;
nodes = (
"916 -190 LINE",
"940 0 LINE",
"54 0 LINE",
"30 -190 LINE {name = hr00;}"
);
}
);
width = 994;
}
);
unicode = 005F;
},
{
color = 6;
glyphname = parenleft;
layers = (
{
layerId = "3BBF7C5C-CA4C-45AB-AE18-0528A0ACCA90";
paths = (
{
closed = 1;
nodes = (
"774 -252 LINE",
"532 -42 OFFCURVE",
"542 148 OFFCURVE",
"596 592 CURVE {name = hr00;}",
"650 1034 OFFCURVE",
"688 1224 OFFCURVE",
"982 1434 CURVE",
"916 1534 LINE",
"582 1326 OFFCURVE",
"494 1090 OFFCURVE",
"434 592 CURVE",
"372 92 OFFCURVE",
"402 -144 OFFCURVE",
"684 -352 CURVE"
);
}
);
width = 806;
},
{
layerId = "5E1C92F4-866D-4CC0-BA00-538F5374015A";
paths = (
{
closed = 1;
nodes = (
"782 -220 LINE",
"578 -18 OFFCURVE",
"580 148 OFFCURVE",
"634 592 CURVE SMOOTH {name = hr00;}",
"688 1034 OFFCURVE",
"726 1198 OFFCURVE",
"982 1404 CURVE",
"866 1534 LINE",
"532 1326 OFFCURVE",
"448 1090 OFFCURVE",
"388 592 CURVE",
"326 92 OFFCURVE",
"352 -144 OFFCURVE",
"634 -352 CURVE"
);
}
);
width = 806;
}
);
unicode = 0028;
userData = {
com.typemytype.robofont.guides = (
{
angle = 0;
isGlobal = 0;
magnetic = 5;
x = 0;
y = 194;
},
{
angle = 0;
isGlobal = 0;
magnetic = 5;
x = 0;
y = 397;
}
);
};
},
{
color = 6;
glyphname = parenright;
layers = (
{
layerId = "3BBF7C5C-CA4C-45AB-AE18-0528A0ACCA90";
paths = (
{
closed = 1;
nodes = (
"372 -144 OFFCURVE",
"458 92 OFFCURVE",
"520 592 CURVE",
"580 1090 OFFCURVE",
"552 1326 OFFCURVE",
"270 1534 CURVE",
"180 1434 LINE",
"422 1224 OFFCURVE",
"412 1034 OFFCURVE",
"358 592 CURVE {name = hr00;}",
"304 148 OFFCURVE",
"266 -42 OFFCURVE",
"-26 -252 CURVE",
"38 -352 LINE"
);
}
);
width = 802;
},
{
layerId = "5E1C92F4-866D-4CC0-BA00-538F5374015A";
paths = (
{
closed = 1;
nodes = (
"418 -144 OFFCURVE",
"500 92 OFFCURVE",
"562 592 CURVE",
"622 1090 OFFCURVE",
"598 1326 OFFCURVE",
"316 1534 CURVE",
"168 1404 LINE",
"372 1198 OFFCURVE",
"370 1034 OFFCURVE",
"316 592 CURVE SMOOTH {name = hr00;}",
"262 148 OFFCURVE",
"220 -18 OFFCURVE",
"-30 -220 CURVE",
"84 -352 LINE"
);
}
);
width = 802;
}
);
unicode = 0029;
},
{
color = 6;
glyphname = braceleft;
layers = (
{
layerId = "3BBF7C5C-CA4C-45AB-AE18-0528A0ACCA90";
paths = (
{
closed = 1;
nodes = (
"768 -252 LINE",
"584 -90 OFFCURVE",
"546 78 OFFCURVE",
"562 336 CURVE",
"570 444 OFFCURVE",
"522 526 OFFCURVE",
"444 582 CURVE",
"396 606 LINE",
"448 628 LINE",
"538 684 OFFCURVE",
"608 768 OFFCURVE",
"628 878 CURVE",
"676 1116 OFFCURVE",
"760 1280 OFFCURVE",
"976 1434 CURVE",
"908 1534 LINE",
"640 1368 OFFCURVE",
"528 1156 OFFCURVE",
"462 830 CURVE",
"446 736 OFFCURVE",
"348 682 OFFCURVE",
"244 664 CURVE",
"230 550 LINE",
"330 532 OFFCURVE",
"410 478 OFFCURVE",
"404 384 CURVE {name = hr00;}",
"382 30 OFFCURVE",
"442 -178 OFFCURVE",
"676 -352 CURVE"
);
}
);
width = 806;
},
{
layerId = "5E1C92F4-866D-4CC0-BA00-538F5374015A";
paths = (
{
closed = 1;
nodes = (
"782 -220 LINE",
"630 -70 OFFCURVE",
"592 70 OFFCURVE",
"608 336 CURVE",
"614 446 OFFCURVE",
"566 530 OFFCURVE",
"486 586 CURVE",
"444 606 LINE",
"494 628 LINE",
"584 684 OFFCURVE",
"654 768 OFFCURVE",
"674 878 CURVE",
"724 1126 OFFCURVE",
"794 1254 OFFCURVE",
"982 1404 CURVE",
"866 1534 LINE",
"602 1370 OFFCURVE",
"492 1186 OFFCURVE",
"428 850 CURVE {name = hr00;}",
"408 756 OFFCURVE",
"314 702 OFFCURVE",
"208 684 CURVE",
"192 540 LINE",
"292 522 OFFCURVE",
"368 468 OFFCURVE",
"364 374 CURVE",
"342 14 OFFCURVE",
"402 -182 OFFCURVE",
"634 -352 CURVE"
);
}
);
width = 806;
}
);
unicode = 007B;
},
{
color = 6;
glyphname = braceright;
layers = (
{
layerId = "3BBF7C5C-CA4C-45AB-AE18-0528A0ACCA90";
paths = (
{
closed = 1;
nodes = (
"478 -178 OFFCURVE",
"588 30 OFFCURVE",
"652 384 CURVE {name = hr00;}",
"670 478 OFFCURVE",
"762 532 OFFCURVE",
"866 550 CURVE",
"880 664 LINE",
"780 682 OFFCURVE",
"698 736 OFFCURVE",
"702 830 CURVE",
"716 1156 OFFCURVE",
"656 1368 OFFCURVE",
"432 1534 CURVE",
"340 1434 LINE",
"516 1280 OFFCURVE",
"560 1116 OFFCURVE",
"548 878 CURVE",
"544 768 OFFCURVE",
"590 684 OFFCURVE",
"668 628 CURVE",
"716 606 LINE",
"664 586 LINE",
"572 530 OFFCURVE",
"504 446 OFFCURVE",
"482 336 CURVE",
"434 78 OFFCURVE",
"356 -90 OFFCURVE",
"132 -252 CURVE",
"200 -352 LINE"
);
}
);
width = 806;
},
{
layerId = "5E1C92F4-866D-4CC0-BA00-538F5374015A";
paths = (
{
closed = 1;
nodes = (
"512 -182 OFFCURVE",
"620 14 OFFCURVE",
"686 374 CURVE",
"706 468 OFFCURVE",
"798 522 OFFCURVE",
"902 540 CURVE",
"918 684 LINE",
"820 702 OFFCURVE",
"738 756 OFFCURVE",
"742 850 CURVE {name = hr00;}",
"758 1186 OFFCURVE",
"696 1370 OFFCURVE",
"472 1534 CURVE",
"324 1404 LINE",
"472 1254 OFFCURVE",
"514 1126 OFFCURVE",
"500 878 CURVE",
"496 768 OFFCURVE",
"540 684 OFFCURVE",
"618 628 CURVE",
"668 606 LINE",
"614 584 LINE",
"524 528 OFFCURVE",
"456 446 OFFCURVE",
"434 336 CURVE",
"386 70 OFFCURVE",
"312 -70 OFFCURVE",
"124 -220 CURVE",
"240 -352 LINE"
);
}
);
width = 856;
}
);
unicode = 007D;
},
{
color = 6;
glyphname = bracketleft;
layers = (
{
layerId = "3BBF7C5C-CA4C-45AB-AE18-0528A0ACCA90";
paths = (
{
closed = 1;
nodes = (
"754 -398 LINE",
"774 -254 LINE",
"430 -254 LINE",
"632 1398 LINE",
"974 1398 LINE",
"992 1542 LINE",
"478 1542 LINE {name = hr00;}",
"240 -398 LINE"
);
}
);
width = 894;
},
{
layerId = "5E1C92F4-866D-4CC0-BA00-538F5374015A";
paths = (
{
closed = 1;
nodes = (
"800 -398 LINE",
"826 -190 LINE",
"484 -190 LINE",
"670 1334 LINE",
"1012 1334 LINE",
"1038 1542 LINE",
"432 1542 LINE {name = hr00;}",
"194 -398 LINE"
);
}
);
width = 894;
}
);
unicode = 005B;
},
{
color = 6;
glyphname = bracketright;
layers = (
{
layerId = "3BBF7C5C-CA4C-45AB-AE18-0528A0ACCA90";
paths = (
{
closed = 1;
nodes = (
"570 -398 LINE {name = hr00;}",
"808 1542 LINE",
"296 1542 LINE",
"278 1398 LINE",
"620 1398 LINE",
"418 -254 LINE",
"74 -254 LINE",
"58 -398 LINE"
);
}
);
width = 914;
},
{
layerId = "5E1C92F4-866D-4CC0-BA00-538F5374015A";
paths = (
{
closed = 1;
nodes = (
"636 -398 LINE {name = hr00;}",
"874 1542 LINE",
"268 1542 LINE",
"242 1334 LINE",
"584 1334 LINE",
"398 -190 LINE",
"56 -190 LINE",
"30 -398 LINE"
);
}
);
width = 894;
}
);
unicode = 005D;
},
{
color = 6;
glyphname = guilsinglleft;
layers = (
{
layerId = "3BBF7C5C-CA4C-45AB-AE18-0528A0ACCA90";
paths = (
{
closed = 1;
nodes = (
"936 186 LINE",
"688 516 LINE",
"1016 846 LINE",
"940 932 LINE",
"456 516 LINE {name = hr00;}",
"838 100 LINE"
);
}
);
width = 1226;
},
{
layerId = "5E1C92F4-866D-4CC0-BA00-538F5374015A";
paths = (
{
closed = 1;
nodes = (
"948 196 LINE",
"734 516 LINE",
"1026 836 LINE",
"928 944 LINE",
"410 516 LINE {name = hr00;}",
"824 90 LINE"
);
}
);
width = 1226;
}
);
unicode = 2039;
},
{
color = 6;
glyphname = guilsinglright;
layers = (
{
layerId = "3BBF7C5C-CA4C-45AB-AE18-0528A0ACCA90";
paths = (
{
closed = 1;
nodes = (
"976 516 LINE",
"596 932 LINE",
"496 846 LINE",
"744 516 LINE",
"416 186 LINE",
"494 100 LINE {name = hr00;}"
);
}
);
width = 1226;
},
{
layerId = "5E1C92F4-866D-4CC0-BA00-538F5374015A";
paths = (
{
closed = 1;
nodes = (
"1016 516 LINE",
"602 944 LINE",
"480 836 LINE",
"692 516 LINE",
"402 196 LINE",
"498 90 LINE {name = hr00;}"
);
}
);
width = 1226;
}
);
unicode = 203A;
},
{
color = 6;
glyphname = quotesingle;
layers = (
{
layerId = "3BBF7C5C-CA4C-45AB-AE18-0528A0ACCA90";
paths = (
{
closed = 1;
nodes = (
"402 1062 LINE",
"450 1454 LINE",
"286 1454 LINE {name = hr00;}",
"238 1062 LINE"
);
}
);
width = 382;
},
{
layerId = "5E1C92F4-866D-4CC0-BA00-538F5374015A";
paths = (
{
closed = 1;
nodes = (
"420 1002 LINE",
"476 1454 LINE",
"232 1454 LINE {name = hr00;}",
"176 1002 LINE"
);
}
);
width = 382;
}
);
unicode = 0027;
},
{
color = 6;
glyphname = florin;
layers = (
{
layerId = "3BBF7C5C-CA4C-45AB-AE18-0528A0ACCA90";
paths = (
{
closed = 1;
nodes = (
"234 -226 OFFCURVE",
"394 -114 OFFCURVE",
"452 150 CURVE",
"642 1006 LINE SMOOTH",
"688 1206 OFFCURVE",
"824 1286 OFFCURVE",
"936 1286 CURVE SMOOTH",
"978 1286 OFFCURVE",
"1030 1280 OFFCURVE",
"1106 1248 CURVE",
"1176 1370 LINE",
"1092 1410 OFFCURVE",
"1012 1422 OFFCURVE",
"946 1422 CURVE SMOOTH",
"702 1422 OFFCURVE",
"522 1250 OFFCURVE",
"464 986 CURVE SMOOTH",
"452 930 LINE",
"270 888 LINE",
"258 792 LINE",
"420 792 LINE",
"272 130 LINE",
"228 -70 OFFCURVE",
"114 -126 OFFCURVE",
"-16 -168 CURVE",
"-2 -282 LINE"
);
},
{
closed = 1;
nodes = (
"970 792 LINE",
"988 930 LINE {name = hr00;}",
"868 930 LINE",
"772 930 OFFCURVE",
"712 868 OFFCURVE",
"666 792 CURVE"
);
}
);
width = 1048;
},
{
layerId = "5E1C92F4-866D-4CC0-BA00-538F5374015A";
paths = (
{
closed = 1;
nodes = (
"234 -226 OFFCURVE",
"442 -114 OFFCURVE",
"500 150 CURVE",
"684 988 LINE SMOOTH",
"716 1126 OFFCURVE",
"810 1218 OFFCURVE",
"940 1218 CURVE SMOOTH",
"986 1218 OFFCURVE",
"1034 1208 OFFCURVE",
"1106 1186 CURVE",
"1208 1364 LINE",
"1114 1410 OFFCURVE",
"1022 1424 OFFCURVE",
"956 1424 CURVE SMOOTH",
"688 1424 OFFCURVE",
"478 1250 OFFCURVE",
"420 988 CURVE SMOOTH",
"408 932 LINE",
"232 892 LINE",
"212 734 LINE",
"366 734 LINE {name = hr00;}",
"240 166 LINE",
"202 4 OFFCURVE",
"104 -62 OFFCURVE",
"-26 -104 CURVE",
"-2 -282 LINE"
);
},
{
closed = 1;
nodes = (
"1004 734 LINE",
"1028 932 LINE",
"940 932 LINE",
"824 932 OFFCURVE",
"742 822 OFFCURVE",
"698 734 CURVE"
);
}
);
width = 1048;
}
);
unicode = 0192;
},
{
color = 6;
glyphname = at;
layers = (
{
layerId = "3BBF7C5C-CA4C-45AB-AE18-0528A0ACCA90";
paths = (
{
closed = 1;
nodes = (
"996 -244 OFFCURVE",
"1090 -232 OFFCURVE",
"1288 -174 CURVE",
"1260 -64 LINE",
"1088 -118 OFFCURVE",
"994 -126 OFFCURVE",
"878 -126 CURVE SMOOTH",
"564 -126 OFFCURVE",
"330 84 OFFCURVE",
"382 514 CURVE SMOOTH",
"436 946 OFFCURVE",
"722 1158 OFFCURVE",
"1064 1158 CURVE SMOOTH",
"1408 1158 OFFCURVE",
"1604 964 OFFCURVE",
"1562 626 CURVE SMOOTH",
"1542 472 OFFCURVE",
"1468 358 OFFCURVE",
"1298 256 CURVE",
"1266 232 LINE {name = hr00;}",
"1272 280 LINE",
"1310 602 LINE",
"1336 810 OFFCURVE",
"1236 932 OFFCURVE",
"1038 932 CURVE SMOOTH",
"954 932 OFFCURVE",
"874 920 OFFCURVE",
"768 878 CURVE",
"796 776 LINE",
"870 804 OFFCURVE",
"940 816 OFFCURVE",
"996 816 CURVE SMOOTH",
"1138 816 OFFCURVE",
"1182 734 OFFCURVE",
"1166 612 CURVE",
"1130 320 LINE",
"1058 238 OFFCURVE",
"974 212 OFFCURVE",
"906 212 CURVE SMOOTH",
"820 212 OFFCURVE",
"766 258 OFFCURVE",
"774 324 CURVE SMOOTH",
"782 386 OFFCURVE",
"832 434 OFFCURVE",
"952 450 CURVE SMOOTH",
"1034 460 OFFCURVE",
"1072 542 OFFCURVE",
"1080 578 CURVE",
"778 546 OFFCURVE",
"646 478 OFFCURVE",
"626 316 CURVE SMOOTH",
"610 184 OFFCURVE",
"700 94 OFFCURVE",
"870 94 CURVE SMOOTH",
"942 94 OFFCURVE",
"1012 106 OFFCURVE",
"1100 184 CURVE",
"1124 224 LINE",
"1124 186 LINE",
"1132 152 OFFCURVE",
"1140 128 OFFCURVE",
"1168 112 CURVE",
"1462 164 OFFCURVE",
"1674 340 OFFCURVE",
"1710 626 CURVE SMOOTH",
"1760 1038 OFFCURVE",
"1492 1276 OFFCURVE",
"1080 1276 CURVE SMOOTH",
"676 1276 OFFCURVE",
"294 1012 OFFCURVE",
"232 514 CURVE SMOOTH",
"166 -22 OFFCURVE",
"456 -244 OFFCURVE",
"864 -244 CURVE SMOOTH"
);
}
);
width = 1838;
},
{
layerId = "5E1C92F4-866D-4CC0-BA00-538F5374015A";
paths = (
{
closed = 1;
nodes = (
"992 -264 OFFCURVE",
"1096 -256 OFFCURVE",
"1294 -192 CURVE",
"1254 -38 LINE",
"1084 -88 OFFCURVE",
"998 -96 OFFCURVE",
"882 -96 CURVE SMOOTH",
"568 -96 OFFCURVE",
"362 134 OFFCURVE",
"408 514 CURVE SMOOTH",
"456 896 OFFCURVE",
"718 1128 OFFCURVE",
"1060 1128 CURVE SMOOTH",
"1374 1128 OFFCURVE",
"1570 944 OFFCURVE",
"1536 656 CURVE SMOOTH",
"1522 546 OFFCURVE",
"1452 404 OFFCURVE",
"1320 322 CURVE",
"1290 298 LINE",
"1298 340 LINE {name = hr00;}",
"1330 598 LINE",
"1358 820 OFFCURVE",
"1248 932 OFFCURVE",
"1030 932 CURVE SMOOTH",
"946 932 OFFCURVE",
"866 920 OFFCURVE",
"752 878 CURVE",
"788 744 LINE",
"880 772 OFFCURVE",
"926 778 OFFCURVE",
"982 778 CURVE SMOOTH",
"1098 778 OFFCURVE",
"1160 730 OFFCURVE",
"1146 608 CURVE",
"1114 350 LINE",
"1042 268 OFFCURVE",
"972 236 OFFCURVE",
"904 236 CURVE SMOOTH",
"830 236 OFFCURVE",
"790 272 OFFCURVE",
"796 324 CURVE SMOOTH",
"802 374 OFFCURVE",
"828 422 OFFCURVE",
"940 438 CURVE SMOOTH",
"1022 450 OFFCURVE",
"1064 554 OFFCURVE",
"1072 590 CURVE",
"752 560 OFFCURVE",
"626 474 OFFCURVE",
"606 316 CURVE SMOOTH",
"590 182 OFFCURVE",
"684 94 OFFCURVE",
"846 94 CURVE SMOOTH",
"918 94 OFFCURVE",
"992 112 OFFCURVE",
"1080 190 CURVE",
"1106 230 LINE",
"1104 192 LINE",
"1112 158 OFFCURVE",
"1120 126 OFFCURVE",
"1148 110 CURVE",
"1448 162 OFFCURVE",
"1702 392 OFFCURVE",
"1734 656 CURVE SMOOTH",
"1784 1068 OFFCURVE",
"1464 1296 OFFCURVE",
"1082 1296 CURVE SMOOTH",
"678 1296 OFFCURVE",
"274 1012 OFFCURVE",
"212 514 CURVE SMOOTH",
"146 -22 OFFCURVE",
"452 -264 OFFCURVE",
"860 -264 CURVE SMOOTH"
);
}
);
width = 1838;
}
);
unicode = 0040;
userData = {
com.typemytype.robofont.guides = (
{
angle = 0;
isGlobal = 0;
magnetic = 5;
x = 0;
y = 457;
},
{
angle = 0;
isGlobal = 0;
magnetic = 5;
x = 0;
y = 59;
}
);
};
},
{
color = 6;
glyphname = ampersand;
layers = (
{
layerId = "3BBF7C5C-CA4C-45AB-AE18-0528A0ACCA90";
paths = (
{
closed = 1;
nodes = (
"812 -22 OFFCURVE",
"922 26 OFFCURVE",
"1026 102 CURVE",
"970 156 OFFCURVE",
"898 168 OFFCURVE",
"810 140 CURVE SMOOTH",
"770 128 OFFCURVE",
"742 122 OFFCURVE",
"714 122 CURVE SMOOTH {name = hr02;}",
"548 122 OFFCURVE",
"470 252 OFFCURVE",
"494 444 CURVE SMOOTH",
"506 554 OFFCURVE",
"566 634 OFFCURVE",
"644 700 CURVE",
"664 716 LINE",
"676 700 LINE",
"1188 0 LINE",
"1424 0 LINE {name = hr01;}",
"1206 292 LINE",
"1306 426 OFFCURVE",
"1372 582 OFFCURVE",
"1430 758 CURVE",
"1286 758 LINE",
"1252 636 OFFCURVE",
"1208 540 OFFCURVE",
"1138 434 CURVE",
"1122 410 LINE",
"1104 434 LINE",
"828 808 LINE",
"734 940 OFFCURVE",
"674 1020 OFFCURVE",
"690 1142 CURVE SMOOTH",
"702 1250 OFFCURVE",
"802 1330 OFFCURVE",
"926 1330 CURVE SMOOTH",
"998 1330 OFFCURVE",
"1096 1314 OFFCURVE",
"1162 1280 CURVE",
"1226 1406 LINE",
"1144 1452 OFFCURVE",
"1036 1474 OFFCURVE",
"948 1474 CURVE SMOOTH",
"704 1474 OFFCURVE",
"542 1322 OFFCURVE",
"518 1124 CURVE SMOOTH",
"506 1032 OFFCURVE",
"532 934 OFFCURVE",
"590 832 CURVE",
"448 734 OFFCURVE",
"318 600 OFFCURVE",
"296 418 CURVE SMOOTH",
"270 196 OFFCURVE",
"396 -22 OFFCURVE",
"666 -22 CURVE SMOOTH"
);
}
);
width = 1522;
},
{
layerId = "5E1C92F4-866D-4CC0-BA00-538F5374015A";
paths = (
{
closed = 1;
nodes = (
"786 -22 OFFCURVE",
"888 10 OFFCURVE",
"990 78 CURVE",
"942 140 OFFCURVE",
"890 200 OFFCURVE",
"788 192 CURVE SMOOTH",
"764 190 OFFCURVE",
"750 186 OFFCURVE",
"722 186 CURVE SMOOTH",
"580 186 OFFCURVE",
"522 298 OFFCURVE",
"540 444 CURVE SMOOTH",
"550 528 OFFCURVE",
"586 590 OFFCURVE",
"636 646 CURVE",
"658 682 LINE",
"672 648 LINE",
"1152 0 LINE",
"1470 0 LINE {name = hr01;}",
"1252 294 LINE",
"1350 428 OFFCURVE",
"1416 582 OFFCURVE",
"1474 758 CURVE",
"1244 758 LINE",
"1218 662 OFFCURVE",
"1186 582 OFFCURVE",
"1138 498 CURVE",
"1118 456 LINE",
"1104 492 LINE",
"874 808 LINE",
"780 940 OFFCURVE",
"720 1016 OFFCURVE",
"732 1118 CURVE SMOOTH",
"744 1206 OFFCURVE",
"828 1266 OFFCURVE",
"942 1266 CURVE SMOOTH",
"1014 1266 OFFCURVE",
"1106 1250 OFFCURVE",
"1190 1222 CURVE",
"1272 1406 LINE",
"1180 1450 OFFCURVE",
"1060 1474 OFFCURVE",
"972 1474 CURVE SMOOTH",
"714 1474 OFFCURVE",
"504 1344 OFFCURVE",
"474 1100 CURVE SMOOTH",
"464 1026 OFFCURVE",
"472 960 OFFCURVE",
"550 830 CURVE",
"408 732 OFFCURVE",
"288 598 OFFCURVE",
"266 418 CURVE SMOOTH",
"234 150 OFFCURVE",
"396 -22 OFFCURVE",
"666 -22 CURVE SMOOTH"
);
}
);
width = 1522;
}
);
unicode = 0026;
},
{
color = 6;
glyphname = paragraph;
layers = (
{
layerId = "3BBF7C5C-CA4C-45AB-AE18-0528A0ACCA90";
paths = (
{
closed = 1;
nodes = (
"788 -60 LINE",
"958 1332 LINE",
"1006 1330 OFFCURVE",
"1058 1326 OFFCURVE",
"1116 1316 CURVE",
"948 -60 LINE",
"1094 -60 LINE",
"1278 1440 LINE",
"1132 1470 OFFCURVE",
"1032 1480 OFFCURVE",
"886 1480 CURVE SMOOTH",
"564 1480 OFFCURVE",
"364 1272 OFFCURVE",
"334 1040 CURVE SMOOTH",
"304 794 OFFCURVE",
"482 630 OFFCURVE",
"720 610 CURVE",
"720 610 OFFCURVE",
"722 608 OFFCURVE",
"724 608 CURVE {name = hr00;}",
"642 -60 LINE"
);
}
);
width = 1218;
},
{
layerId = "5E1C92F4-866D-4CC0-BA00-538F5374015A";
paths = (
{
closed = 1;
nodes = (
"788 -60 LINE",
"958 1332 LINE",
"1006 1330 OFFCURVE",
"1058 1326 OFFCURVE",
"1116 1316 CURVE",
"948 -60 LINE",
"1094 -60 LINE",
"1278 1440 LINE",
"1132 1470 OFFCURVE",
"1032 1480 OFFCURVE",
"886 1480 CURVE SMOOTH",
"564 1480 OFFCURVE",
"364 1272 OFFCURVE",
"334 1040 CURVE SMOOTH",
"304 794 OFFCURVE",
"482 630 OFFCURVE",
"720 610 CURVE",
"720 610 OFFCURVE",
"722 608 OFFCURVE",
"724 608 CURVE {name = hr00;}",
"642 -60 LINE"
);
}
);
width = 1218;
}
);
unicode = 00B6;
},
{
color = 6;
glyphname = section;
layers = (
{
layerId = "3BBF7C5C-CA4C-45AB-AE18-0528A0ACCA90";
paths = (
{
closed = 1;
nodes = (
"708 -102 OFFCURVE",
"894 14 OFFCURVE",
"916 184 CURVE SMOOTH",
"928 284 OFFCURVE",
"886 352 OFFCURVE",
"818 402 CURVE",
"778 420 LINE",
"826 438 LINE",
"914 486 OFFCURVE",
"982 560 OFFCURVE",
"992 650 CURVE SMOOTH",
"1036 996 OFFCURVE",
"430 956 OFFCURVE",
"456 1172 CURVE SMOOTH",
"466 1254 OFFCURVE",
"552 1298 OFFCURVE",
"682 1298 CURVE SMOOTH",
"748 1298 OFFCURVE",
"832 1286 OFFCURVE",
"932 1258 CURVE",
"1002 1388 LINE",
"872 1428 OFFCURVE",
"766 1440 OFFCURVE",
"676 1440 CURVE SMOOTH",
"446 1440 OFFCURVE",
"292 1300 OFFCURVE",
"276 1170 CURVE SMOOTH",
"264 1068 OFFCURVE",
"312 1002 OFFCURVE",
"386 952 CURVE",
"426 934 LINE",
"372 914 LINE",
"266 858 OFFCURVE",
"208 778 OFFCURVE",
"200 704 CURVE SMOOTH",
"158 370 OFFCURVE",
"764 412 OFFCURVE",
"736 194 CURVE SMOOTH",
"726 104 OFFCURVE",
"648 42 OFFCURVE",
"486 42 CURVE SMOOTH",
"386 42 OFFCURVE",
"258 64 OFFCURVE",
"142 114 CURVE {name = hr00;}",
"68 -18 LINE",
"248 -94 OFFCURVE",
"374 -102 OFFCURVE",
"498 -102 CURVE SMOOTH"
);
},
{
closed = 1;
nodes = (
"518 550 OFFCURVE",
"356 592 OFFCURVE",
"370 706 CURVE SMOOTH",
"378 774 OFFCURVE",
"444 834 OFFCURVE",
"544 872 CURVE",
"688 812 OFFCURVE",
"838 768 OFFCURVE",
"824 660 CURVE SMOOTH",
"816 598 OFFCURVE",
"768 536 OFFCURVE",
"670 484 CURVE"
);
}
);
width = 1000;
},
{
layerId = "5E1C92F4-866D-4CC0-BA00-538F5374015A";
paths = (
{
closed = 1;
nodes = (
"720 -102 OFFCURVE",
"926 14 OFFCURVE",
"948 188 CURVE SMOOTH",
"960 284 OFFCURVE",
"922 352 OFFCURVE",
"864 406 CURVE",
"828 428 LINE",
"876 448 LINE",
"956 496 OFFCURVE",
"1012 566 OFFCURVE",
"1022 650 CURVE SMOOTH {name = hr00;}",
"1066 996 OFFCURVE",
"460 956 OFFCURVE",
"486 1172 CURVE SMOOTH",
"494 1228 OFFCURVE",
"564 1258 OFFCURVE",
"678 1258 CURVE SMOOTH",
"744 1258 OFFCURVE",
"812 1248 OFFCURVE",
"910 1220 CURVE",
"1002 1388 LINE",
"872 1428 OFFCURVE",
"766 1440 OFFCURVE",
"676 1440 CURVE SMOOTH",
"446 1440 OFFCURVE",
"266 1322 OFFCURVE",
"246 1170 CURVE SMOOTH",
"234 1070 OFFCURVE",
"274 1000 OFFCURVE",
"340 946 CURVE",
"376 926 LINE",
"332 908 LINE",
"248 856 OFFCURVE",
"180 780 OFFCURVE",
"172 704 CURVE SMOOTH",
"128 358 OFFCURVE",
"734 402 OFFCURVE",
"708 186 CURVE SMOOTH",
"698 110 OFFCURVE",
"602 80 OFFCURVE",
"488 80 CURVE SMOOTH",
"390 80 OFFCURVE",
"274 104 OFFCURVE",
"162 150 CURVE",
"70 -18 LINE",
"208 -86 OFFCURVE",
"400 -102 OFFCURVE",
"490 -102 CURVE SMOOTH"
);
},
{
closed = 1;
nodes = (
"542 576 OFFCURVE",
"392 618 OFFCURVE",
"404 714 CURVE SMOOTH",
"412 768 OFFCURVE",
"446 802 OFFCURVE",
"518 844 CURVE",
"660 784 OFFCURVE",
"802 744 OFFCURVE",
"792 660 CURVE SMOOTH",
"786 608 OFFCURVE",
"754 558 OFFCURVE",
"688 512 CURVE"
);
}
);
width = 1000;
}
);
unicode = 00A7;
},
{
color = 6;
glyphname = copyright;
layers = (
{
layerId = "3BBF7C5C-CA4C-45AB-AE18-0528A0ACCA90";
paths = (
{
closed = 1;
nodes = (
"1104 62 OFFCURVE",
"1400 352 OFFCURVE",
"1444 714 CURVE SMOOTH",
"1488 1070 OFFCURVE",
"1264 1360 OFFCURVE",
"880 1360 CURVE {name = hr00;}",
"492 1360 OFFCURVE",
"194 1070 OFFCURVE",
"150 714 CURVE SMOOTH",
"106 352 OFFCURVE",
"332 62 OFFCURVE",
"720 62 CURVE SMOOTH"
);
},
{
closed = 1;
nodes = (
"838 352 OFFCURVE",
"908 362 OFFCURVE",
"986 398 CURVE",
"964 492 LINE",
"898 464 OFFCURVE",
"846 454 OFFCURVE",
"808 454 CURVE",
"706 454 OFFCURVE",
"630 538 OFFCURVE",
"650 714 CURVE",
"672 886 OFFCURVE",
"772 970 OFFCURVE",
"872 970 CURVE",
"912 970 OFFCURVE",
"956 966 OFFCURVE",
"1002 950 CURVE",
"1048 1046 LINE",
"994 1064 OFFCURVE",
"934 1074 OFFCURVE",
"884 1074 CURVE",
"710 1074 OFFCURVE",
"546 946 OFFCURVE",
"516 714 CURVE",
"488 480 OFFCURVE",
"618 352 OFFCURVE",
"796 352 CURVE"
);
},
{
closed = 1;
nodes = (
"434 180 OFFCURVE",
"256 394 OFFCURVE",
"294 708 CURVE SMOOTH",
"332 1026 OFFCURVE",
"564 1244 OFFCURVE",
"866 1246 CURVE",
"1162 1246 OFFCURVE",
"1338 1026 OFFCURVE",
"1300 714 CURVE SMOOTH",
"1262 394 OFFCURVE",
"1030 174 OFFCURVE",
"734 178 CURVE"
);
}
);
width = 1440;
},
{
layerId = "5E1C92F4-866D-4CC0-BA00-538F5374015A";
paths = (
{
closed = 1;
nodes = (
"1102 42 OFFCURVE",
"1420 352 OFFCURVE",
"1464 714 CURVE SMOOTH",
"1512 1100 OFFCURVE",
"1276 1380 OFFCURVE",
"882 1380 CURVE {name = hr00;}",
"494 1380 OFFCURVE",
"174 1070 OFFCURVE",
"130 714 CURVE SMOOTH",
"82 322 OFFCURVE",
"320 42 OFFCURVE",
"718 42 CURVE SMOOTH"
);
},
{
closed = 1;
nodes = (
"838 352 OFFCURVE",
"908 362 OFFCURVE",
"986 398 CURVE",
"958 518 LINE",
"894 490 OFFCURVE",
"850 484 OFFCURVE",
"812 484 CURVE",
"710 484 OFFCURVE",
"654 584 OFFCURVE",
"670 714 CURVE",
"686 842 OFFCURVE",
"768 940 OFFCURVE",
"868 940 CURVE",
"908 940 OFFCURVE",
"942 934 OFFCURVE",
"988 918 CURVE",
"1048 1046 LINE",
"994 1064 OFFCURVE",
"934 1074 OFFCURVE",
"884 1074 CURVE",
"694 1074 OFFCURVE",
"524 946 OFFCURVE",
"494 714 CURVE",
"466 480 OFFCURVE",
"602 352 OFFCURVE",
"796 352 CURVE"
);
},
{
closed = 1;
nodes = (
"466 198 OFFCURVE",
"276 394 OFFCURVE",
"314 708 CURVE SMOOTH",
"352 1026 OFFCURVE",
"592 1226 OFFCURVE",
"864 1226 CURVE",
"1130 1226 OFFCURVE",
"1318 1026 OFFCURVE",
"1280 714 CURVE SMOOTH",
"1242 394 OFFCURVE",
"1004 198 OFFCURVE",
"738 198 CURVE"
);
}
);
width = 1440;
}
);
unicode = 00A9;
},
{
color = 6;
glyphname = registered;
layers = (
{
layerId = "3BBF7C5C-CA4C-45AB-AE18-0528A0ACCA90";
paths = (
{
closed = 1;
nodes = (
"1104 62 OFFCURVE",
"1400 352 OFFCURVE",
"1444 714 CURVE SMOOTH",
"1488 1070 OFFCURVE",
"1264 1360 OFFCURVE",
"880 1360 CURVE {name = hr00;}",
"492 1360 OFFCURVE",
"194 1070 OFFCURVE",
"150 714 CURVE SMOOTH",
"106 352 OFFCURVE",
"332 62 OFFCURVE",
"720 62 CURVE SMOOTH"
);
},
{
closed = 1;
nodes = (
"434 180 OFFCURVE",
"256 394 OFFCURVE",
"294 708 CURVE SMOOTH",
"332 1026 OFFCURVE",
"564 1244 OFFCURVE",
"866 1246 CURVE",
"1162 1246 OFFCURVE",
"1338 1026 OFFCURVE",
"1300 714 CURVE SMOOTH",
"1262 394 OFFCURVE",
"1030 174 OFFCURVE",
"734 178 CURVE"
);
},
{
closed = 1;
nodes = (
"672 378 LINE",
"744 968 LINE",
"780 972 OFFCURVE",
"802 974 OFFCURVE",
"826 974 CURVE SMOOTH",
"906 974 OFFCURVE",
"958 922 OFFCURVE",
"950 862 CURVE SMOOTH",
"944 810 OFFCURVE",
"902 762 OFFCURVE",
"856 754 CURVE SMOOTH",
"796 746 OFFCURVE",
"772 698 OFFCURVE",
"752 666 CURVE",
"786 666 OFFCURVE",
"772 666 OFFCURVE",
"806 668 CURVE",
"898 630 OFFCURVE",
"874 486 OFFCURVE",
"912 378 CURVE",
"1044 378 LINE",
"1002 500 OFFCURVE",
"1022 620 OFFCURVE",
"948 680 CURVE",
"934 690 LINE",
"948 696 LINE",
"1018 730 OFFCURVE",
"1070 786 OFFCURVE",
"1080 862 CURVE",
"1096 992 OFFCURVE",
"990 1072 OFFCURVE",
"838 1072 CURVE SMOOTH",
"768 1072 OFFCURVE",
"708 1064 OFFCURVE",
"630 1046 CURVE",
"548 378 LINE"
);
}
);
width = 1440;
},
{
layerId = "5E1C92F4-866D-4CC0-BA00-538F5374015A";
paths = (
{
closed = 1;
nodes = (
"1102 42 OFFCURVE",
"1420 352 OFFCURVE",
"1464 714 CURVE SMOOTH",
"1512 1100 OFFCURVE",
"1276 1380 OFFCURVE",
"882 1380 CURVE SMOOTH {name = hr00;}",
"494 1380 OFFCURVE",
"174 1070 OFFCURVE",
"130 714 CURVE SMOOTH",
"82 322 OFFCURVE",
"320 42 OFFCURVE",
"718 42 CURVE SMOOTH"
);
},
{
closed = 1;
nodes = (
"466 198 OFFCURVE",
"276 394 OFFCURVE",
"314 708 CURVE SMOOTH",
"352 1026 OFFCURVE",
"592 1226 OFFCURVE",
"864 1226 CURVE SMOOTH",
"1130 1226 OFFCURVE",
"1318 1026 OFFCURVE",
"1280 714 CURVE SMOOTH",
"1242 394 OFFCURVE",
"1004 198 OFFCURVE",
"738 198 CURVE SMOOTH"
);
},
{
closed = 1;
nodes = (
"692 378 LINE",
"760 938 LINE",
"796 942 OFFCURVE",
"798 944 OFFCURVE",
"822 944 CURVE SMOOTH",
"902 944 OFFCURVE",
"938 914 OFFCURVE",
"930 862 CURVE SMOOTH",
"926 816 OFFCURVE",
"906 782 OFFCURVE",
"858 770 CURVE SMOOTH",
"798 756 OFFCURVE",
"768 702 OFFCURVE",
"750 650 CURVE",
"766 650 OFFCURVE",
"782 650 OFFCURVE",
"798 650 CURVE",
"892 612 OFFCURVE",
"854 486 OFFCURVE",
"892 378 CURVE",
"1064 378 LINE",
"1024 496 OFFCURVE",
"1042 606 OFFCURVE",
"974 666 CURVE",
"940 686 LINE",
"984 694 LINE",
"1052 728 OFFCURVE",
"1092 790 OFFCURVE",
"1100 862 CURVE SMOOTH",
"1116 992 OFFCURVE",
"1008 1072 OFFCURVE",
"838 1072 CURVE SMOOTH",
"768 1072 OFFCURVE",
"688 1060 OFFCURVE",
"608 1042 CURVE",
"528 378 LINE"
);
}
);
width = 1440;
}
);
unicode = 00AE;
},
{
color = 6;
glyphname = trademark;
layers = (
{
layerId = "3BBF7C5C-CA4C-45AB-AE18-0528A0ACCA90";
paths = (
{
closed = 1;
nodes = (
"824 858 LINE",
"922 1304 LINE",
"928 1342 LINE",
"936 1304 LINE",
"1032 868 LINE",
"1136 868 LINE",
"1338 1302 LINE",
"1356 1342 LINE",
"1350 1302 LINE",
"1342 858 LINE",
"1440 858 LINE",
"1448 1456 LINE",
"1310 1456 LINE",
"1108 1020 LINE",
"1098 992 LINE",
"1096 1020 LINE",
"1004 1456 LINE",
"856 1456 LINE",
"716 858 LINE"
);
},
{
closed = 1;
nodes = (
"450 858 LINE",
"514 1376 LINE",
"698 1376 LINE",
"708 1456 LINE",
"230 1456 LINE",
"220 1376 LINE {name = hr00;}",
"404 1376 LINE",
"340 858 LINE"
);
}
);
width = 1456;
},
{
layerId = "5E1C92F4-866D-4CC0-BA00-538F5374015A";
paths = (
{
closed = 1;
nodes = (
"842 858 LINE",
"920 1250 LINE",
"928 1284 LINE",
"932 1250 LINE",
"1018 868 LINE",
"1150 868 LINE",
"1324 1250 LINE",
"1338 1284 LINE",
"1338 1250 LINE",
"1320 858 LINE",
"1468 858 LINE",
"1480 1456 LINE",
"1292 1456 LINE",
"1112 1058 LINE",
"1104 1032 LINE",
"1100 1058 LINE",
"1020 1456 LINE",
"832 1456 LINE",
"696 858 LINE"
);
},
{
closed = 1;
nodes = (
"472 858 LINE",
"532 1340 LINE",
"688 1340 LINE",
"702 1456 LINE",
"234 1456 LINE",
"220 1340 LINE {name = hr00;}",
"376 1340 LINE",
"316 858 LINE"
);
}
);
width = 1456;
}
);
unicode = 2122;
},
{
color = 6;
glyphname = degree;
layers = (
{
layerId = "3BBF7C5C-CA4C-45AB-AE18-0528A0ACCA90";
paths = (
{
closed = 1;
nodes = (
"604 966 OFFCURVE",
"772 1066 OFFCURVE",
"794 1246 CURVE",
"816 1428 OFFCURVE",
"672 1526 OFFCURVE",
"536 1526 CURVE",
"370 1526 OFFCURVE",
"228 1396 OFFCURVE",
"210 1246 CURVE",
"190 1084 OFFCURVE",
"312 966 OFFCURVE",
"468 966 CURVE"
);
},
{
closed = 1;
nodes = (
"368 1066 OFFCURVE",
"324 1156 OFFCURVE",
"336 1246 CURVE",
"346 1330 OFFCURVE",
"412 1426 OFFCURVE",
"524 1426 CURVE {name = hr00;}",
"610 1426 OFFCURVE",
"684 1356 OFFCURVE",
"670 1246 CURVE",
"662 1174 OFFCURVE",
"598 1066 OFFCURVE",
"480 1066 CURVE"
);
}
);
width = 674;
},
{
layerId = "5E1C92F4-866D-4CC0-BA00-538F5374015A";
paths = (
{
closed = 1;
nodes = (
"628 946 OFFCURVE",
"792 1072 OFFCURVE",
"814 1246 CURVE SMOOTH",
"836 1430 OFFCURVE",
"700 1546 OFFCURVE",
"538 1546 CURVE SMOOTH",
"376 1546 OFFCURVE",
"212 1420 OFFCURVE",
"190 1246 CURVE SMOOTH",
"168 1062 OFFCURVE",
"304 946 OFFCURVE",
"466 946 CURVE SMOOTH"
);
},
{
closed = 1;
nodes = (
"406 1092 OFFCURVE",
"348 1146 OFFCURVE",
"360 1246 CURVE SMOOTH {name = hr00;}",
"372 1346 OFFCURVE",
"444 1402 OFFCURVE",
"522 1402 CURVE SMOOTH",
"600 1402 OFFCURVE",
"658 1346 OFFCURVE",
"646 1246 CURVE SMOOTH",
"634 1146 OFFCURVE",
"562 1092 OFFCURVE",
"484 1092 CURVE SMOOTH"
);
}
);
width = 674;
}
);
unicode = 00B0;
},
{
color = 6;
glyphname = bar;
layers = (
{
layerId = "3BBF7C5C-CA4C-45AB-AE18-0528A0ACCA90";
paths = (
{
closed = 1;
nodes = (
"318 -586 LINE",
"588 1622 LINE",
"428 1622 LINE",
"158 -586 LINE {name = hr00;}"
);
}
);
width = 634;
},
{
layerId = "5E1C92F4-866D-4CC0-BA00-538F5374015A";
paths = (
{
closed = 1;
nodes = (
"410 -586 LINE",
"680 1622 LINE",
"428 1622 LINE",
"158 -586 LINE {name = hr00;}"
);
}
);
width = 634;
}
);
unicode = 007C;
},
{
color = 6;
glyphname = brokenbar;
layers = (
{
layerId = "3BBF7C5C-CA4C-45AB-AE18-0528A0ACCA90";
paths = (
{
closed = 1;
nodes = (
"270 -586 LINE",
"376 282 LINE",
"216 282 LINE",
"110 -586 LINE"
);
},
{
closed = 1;
nodes = (
"436 774 LINE",
"540 1622 LINE",
"380 1622 LINE",
"276 774 LINE {name = hr00;}"
);
}
);
width = 508;
},
{
layerId = "5E1C92F4-866D-4CC0-BA00-538F5374015A";
paths = (
{
closed = 1;
nodes = (
"316 -586 LINE",
"422 282 LINE",
"170 282 LINE",
"64 -586 LINE"
);
},
{
closed = 1;
nodes = (
"482 774 LINE",
"586 1622 LINE",
"334 1622 LINE",
"230 774 LINE {name = hr00;}"
);
}
);
width = 508;
}
);
unicode = 00A6;
},
{
color = 6;
glyphname = dagger;
layers = (
{
layerId = "3BBF7C5C-CA4C-45AB-AE18-0528A0ACCA90";
paths = (
{
closed = 1;
nodes = (
"614 -60 LINE {name = hr00;}",
"792 1394 LINE",
"644 1394 LINE",
"466 -60 LINE"
);
},
{
closed = 1;
nodes = (
"332 814 LINE",
"428 814 OFFCURVE",
"482 876 OFFCURVE",
"520 952 CURVE",
"160 952 LINE",
"142 814 LINE"
);
},
{
closed = 1;
nodes = (
"1150 814 LINE",
"1168 952 LINE",
"808 952 LINE",
"826 876 OFFCURVE",
"864 814 OFFCURVE",
"960 814 CURVE"
);
}
);
width = 1134;
},
{
layerId = "5E1C92F4-866D-4CC0-BA00-538F5374015A";
paths = (
{
closed = 1;
nodes = (
"660 -60 LINE {name = hr00;}",
"838 1394 LINE",
"598 1394 LINE",
"420 -60 LINE"
);
},
{
closed = 1;
nodes = (
"228 782 LINE",
"358 782 OFFCURVE",
"432 884 OFFCURVE",
"478 984 CURVE",
"118 984 LINE",
"94 782 LINE"
);
},
{
closed = 1;
nodes = (
"1194 782 LINE",
"1218 984 LINE",
"858 984 LINE",
"880 884 OFFCURVE",
"930 782 OFFCURVE",
"1060 782 CURVE"
);
}
);
width = 1134;
}
);
unicode = 2020;
},
{
color = 6;
glyphname = daggerdbl;
layers = (
{
layerId = "3BBF7C5C-CA4C-45AB-AE18-0528A0ACCA90";
paths = (
{
closed = 1;
nodes = (
"662 -60 LINE {name = hr00;}",
"840 1394 LINE",
"692 1394 LINE",
"514 -60 LINE"
);
},
{
closed = 1;
nodes = (
"322 342 LINE",
"418 342 OFFCURVE",
"472 404 OFFCURVE",
"510 480 CURVE",
"150 480 LINE",
"132 342 LINE"
);
},
{
closed = 1;
nodes = (
"386 854 LINE",
"482 854 OFFCURVE",
"536 916 OFFCURVE",
"572 992 CURVE",
"212 992 LINE",
"196 854 LINE"
);
},
{
closed = 1;
nodes = (
"1140 342 LINE",
"1158 480 LINE",
"798 480 LINE",
"816 404 OFFCURVE",
"854 342 OFFCURVE",
"950 342 CURVE"
);
},
{
closed = 1;
nodes = (
"1204 854 LINE",
"1220 992 LINE",
"860 992 LINE",
"880 916 OFFCURVE",
"918 854 OFFCURVE",
"1014 854 CURVE"
);
}
);
width = 1222;
},
{
layerId = "5E1C92F4-866D-4CC0-BA00-538F5374015A";
paths = (
{
closed = 1;
nodes = (
"708 -60 LINE {name = hr00;}",
"886 1394 LINE",
"646 1394 LINE",
"468 -60 LINE"
);
},
{
closed = 1;
nodes = (
"218 310 LINE",
"348 310 OFFCURVE",
"422 412 OFFCURVE",
"468 512 CURVE",
"108 512 LINE",
"84 310 LINE"
);
},
{
closed = 1;
nodes = (
"280 822 LINE",
"410 822 OFFCURVE",
"484 924 OFFCURVE",
"530 1024 CURVE",
"170 1024 LINE",
"146 822 LINE"
);
},
{
closed = 1;
nodes = (
"1184 310 LINE",
"1208 512 LINE",
"848 512 LINE",
"870 412 OFFCURVE",
"920 310 OFFCURVE",
"1050 310 CURVE"
);
},
{
closed = 1;
nodes = (
"1246 822 LINE",
"1270 1024 LINE",
"910 1024 LINE",
"932 924 OFFCURVE",
"982 822 OFFCURVE",
"1112 822 CURVE"
);
}
);
width = 1222;
}
);
unicode = 2021;
},
{
color = 6;
glyphname = cent;
layers = (
{
layerId = "3BBF7C5C-CA4C-45AB-AE18-0528A0ACCA90";
paths = (
{
closed = 1;
nodes = (
"624 -28 LINE",
"648 174 LINE",
"708 182 OFFCURVE",
"782 200 OFFCURVE",
"864 240 CURVE {name = hr00;}",
"830 372 LINE",
"734 330 OFFCURVE",
"662 314 OFFCURVE",
"604 314 CURVE SMOOTH",
"450 314 OFFCURVE",
"334 438 OFFCURVE",
"368 708 CURVE SMOOTH",
"400 976 OFFCURVE",
"548 1100 OFFCURVE",
"700 1100 CURVE SMOOTH",
"760 1100 OFFCURVE",
"822 1092 OFFCURVE",
"890 1070 CURVE",
"956 1202 LINE",
"902 1224 OFFCURVE",
"836 1236 OFFCURVE",
"780 1242 CURVE",
"802 1432 LINE",
"658 1432 LINE",
"634 1236 LINE",
"408 1200 OFFCURVE",
"208 1016 OFFCURVE",
"170 708 CURVE SMOOTH",
"132 396 OFFCURVE",
"278 210 OFFCURVE",
"504 176 CURVE",
"480 -28 LINE"
);
}
);
width = 854;
},
{
layerId = "5E1C92F4-866D-4CC0-BA00-538F5374015A";
paths = (
{
closed = 1;
nodes = (
"650 -28 LINE",
"674 170 LINE",
"736 180 OFFCURVE",
"810 200 OFFCURVE",
"890 236 CURVE",
"844 420 LINE",
"754 386 OFFCURVE",
"692 372 OFFCURVE",
"636 372 CURVE SMOOTH",
"492 372 OFFCURVE",
"412 500 OFFCURVE",
"438 710 CURVE SMOOTH",
"464 918 OFFCURVE",
"576 1046 OFFCURVE",
"720 1046 CURVE SMOOTH",
"764 1046 OFFCURVE",
"828 1038 OFFCURVE",
"890 1022 CURVE",
"982 1208 LINE",
"926 1230 OFFCURVE",
"864 1242 OFFCURVE",
"806 1248 CURVE {name = hr00;}",
"828 1432 LINE",
"632 1432 LINE",
"608 1236 LINE",
"380 1188 OFFCURVE",
"180 1012 OFFCURVE",
"142 710 CURVE SMOOTH",
"102 388 OFFCURVE",
"262 224 OFFCURVE",
"478 178 CURVE",
"454 -28 LINE"
);
}
);
width = 854;
}
);
unicode = 00A2;
},
{
color = 6;
glyphname = currency;
layers = (
{
layerId = "3BBF7C5C-CA4C-45AB-AE18-0528A0ACCA90";
paths = (
{
closed = 1;
nodes = (
"322 356 LINE",
"370 306 OFFCURVE",
"458 276 OFFCURVE",
"540 276 CURVE SMOOTH",
"620 276 OFFCURVE",
"718 304 OFFCURVE",
"786 362 CURVE",
"914 216 LINE",
"1004 296 LINE",
"872 444 LINE",
"914 494 OFFCURVE",
"958 580 OFFCURVE",
"972 690 CURVE SMOOTH",
"984 786 OFFCURVE",
"962 870 OFFCURVE",
"930 924 CURVE",
"1104 1066 LINE",
"1036 1148 LINE",
"866 1008 LINE",
"816 1056 OFFCURVE",
"738 1088 OFFCURVE",
"644 1088 CURVE {name = hr00;}",
"556 1088 OFFCURVE",
"468 1056 OFFCURVE",
"406 1006 CURVE",
"276 1148 LINE",
"188 1066 LINE",
"320 924 LINE",
"272 868 OFFCURVE",
"226 782 OFFCURVE",
"212 678 CURVE SMOOTH",
"200 580 OFFCURVE",
"224 490 OFFCURVE",
"256 438 CURVE",
"96 296 LINE",
"166 216 LINE"
);
},
{
closed = 1;
nodes = (
"454 394 OFFCURVE",
"330 486 OFFCURVE",
"354 680 CURVE SMOOTH",
"374 836 OFFCURVE",
"480 970 OFFCURVE",
"628 970 CURVE",
"782 970 OFFCURVE",
"846 826 OFFCURVE",
"830 688 CURVE SMOOTH",
"804 482 OFFCURVE",
"668 394 OFFCURVE",
"556 394 CURVE SMOOTH"
);
}
);
width = 1026;
},
{
layerId = "5E1C92F4-866D-4CC0-BA00-538F5374015A";
paths = (
{
closed = 1;
nodes = (
"338 340 LINE",
"386 302 OFFCURVE",
"456 272 OFFCURVE",
"544 272 CURVE SMOOTH",
"638 272 OFFCURVE",
"722 304 OFFCURVE",
"772 342 CURVE",
"910 200 LINE",
"1022 306 LINE",
"882 452 LINE",
"920 498 OFFCURVE",
"958 586 OFFCURVE",
"970 682 CURVE",
"982 778 OFFCURVE",
"964 862 OFFCURVE",
"938 908 CURVE",
"1114 1054 LINE",
"1028 1160 LINE",
"856 1018 LINE",
"814 1056 OFFCURVE",
"738 1088 OFFCURVE",
"644 1088 CURVE SMOOTH",
"556 1088 OFFCURVE",
"478 1058 OFFCURVE",
"422 1020 CURVE",
"292 1162 LINE",
"170 1050 LINE",
"308 908 LINE",
"268 862 OFFCURVE",
"226 782 OFFCURVE",
"212 682 CURVE",
"200 578 OFFCURVE",
"224 498 OFFCURVE",
"252 452 CURVE",
"80 310 LINE",
"174 198 LINE"
);
},
{
closed = 1;
nodes = (
"452 420 OFFCURVE",
"368 524 OFFCURVE",
"386 680 CURVE",
"406 836 OFFCURVE",
"516 940 OFFCURVE",
"624 940 CURVE",
"738 940 OFFCURVE",
"816 818 OFFCURVE",
"798 680 CURVE {name = hr00;}",
"782 542 OFFCURVE",
"674 420 OFFCURVE",
"560 420 CURVE SMOOTH"
);
}
);
width = 1026;
}
);
unicode = 00A4;
},
{
color = 6;
glyphname = dollar;
layers = (
{
layerId = "3BBF7C5C-CA4C-45AB-AE18-0528A0ACCA90";
paths = (
{
closed = 1;
nodes = (
"570 -214 LINE",
"596 -12 LINE",
"826 28 OFFCURVE",
"970 192 OFFCURVE",
"990 352 CURVE SMOOTH",
"1044 790 OFFCURVE",
"400 784 OFFCURVE",
"436 1088 CURVE SMOOTH",
"448 1188 OFFCURVE",
"542 1276 OFFCURVE",
"676 1276 CURVE SMOOTH",
"752 1276 OFFCURVE",
"830 1266 OFFCURVE",
"942 1232 CURVE",
"1014 1362 LINE",
"918 1392 OFFCURVE",
"846 1410 OFFCURVE",
"772 1418 CURVE",
"796 1620 LINE",
"652 1620 LINE",
"628 1422 LINE",
"424 1402 OFFCURVE",
"268 1260 OFFCURVE",
"246 1088 CURVE SMOOTH",
"194 652 OFFCURVE",
"836 688 OFFCURVE",
"794 356 CURVE SMOOTH",
"780 234 OFFCURVE",
"656 124 OFFCURVE",
"484 124 CURVE SMOOTH",
"388 124 OFFCURVE",
"282 146 OFFCURVE",
"166 202 CURVE",
"98 72 LINE",
"214 10 OFFCURVE",
"342 -16 OFFCURVE",
"450 -22 CURVE {name = hr01;}",
"426 -214 LINE"
);
}
);
width = 1028;
},
{
layerId = "5E1C92F4-866D-4CC0-BA00-538F5374015A";
paths = (
{
closed = 1;
nodes = (
"604 -214 LINE",
"630 -16 LINE",
"864 18 OFFCURVE",
"1030 148 OFFCURVE",
"1056 362 CURVE SMOOTH",
"1110 808 OFFCURVE",
"428 812 OFFCURVE",
"460 1074 CURVE SMOOTH",
"472 1160 OFFCURVE",
"558 1224 OFFCURVE",
"678 1224 CURVE SMOOTH {name = hr00;}",
"766 1224 OFFCURVE",
"858 1210 OFFCURVE",
"972 1178 CURVE",
"1068 1360 LINE",
"960 1394 OFFCURVE",
"882 1410 OFFCURVE",
"806 1418 CURVE",
"830 1620 LINE",
"618 1620 LINE",
"594 1418 LINE",
"392 1392 OFFCURVE",
"226 1276 OFFCURVE",
"198 1058 CURVE SMOOTH",
"148 638 OFFCURVE",
"826 644 OFFCURVE",
"792 366 CURVE SMOOTH",
"780 266 OFFCURVE",
"666 182 OFFCURVE",
"524 182 CURVE SMOOTH",
"422 182 OFFCURVE",
"296 204 OFFCURVE",
"160 268 CURVE",
"60 80 LINE",
"196 18 OFFCURVE",
"316 -12 OFFCURVE",
"416 -22 CURVE",
"392 -214 LINE"
);
}
);
width = 1028;
}
);
unicode = 0024;
userData = {
com.typemytype.robofont.guides = (
{
angle = 0;
isGlobal = 0;
magnetic = 5;
x = 0;
y = 587;
}
);
};
},
{
color = 6;
glyphname = euro;
layers = (
{
layerId = "3BBF7C5C-CA4C-45AB-AE18-0528A0ACCA90";
paths = (
{
closed = 1;
nodes = (
"816 -20 OFFCURVE",
"912 -2 OFFCURVE",
"1034 42 CURVE",
"998 176 LINE",
"886 136 OFFCURVE",
"816 124 OFFCURVE",
"722 124 CURVE SMOOTH",
"552 124 OFFCURVE",
"424 250 OFFCURVE",
"390 468 CURVE",
"386 498 LINE",
"420 498 LINE",
"924 498 LINE",
"940 628 LINE",
"382 628 LINE",
"382 650 OFFCURVE",
"386 676 OFFCURVE",
"388 700 CURVE SMOOTH",
"432 1058 OFFCURVE",
"640 1284 OFFCURVE",
"864 1284 CURVE SMOOTH",
"944 1284 OFFCURVE",
"1022 1276 OFFCURVE",
"1128 1234 CURVE",
"1196 1366 LINE",
"1074 1414 OFFCURVE",
"994 1428 OFFCURVE",
"882 1428 CURVE SMOOTH",
"600 1428 OFFCURVE",
"370 1236 OFFCURVE",
"262 932 CURVE",
"98 932 LINE",
"82 802 LINE",
"226 802 LINE",
"218 768 OFFCURVE",
"214 736 OFFCURVE",
"208 700 CURVE SMOOTH",
"206 676 OFFCURVE",
"202 650 OFFCURVE",
"202 628 CURVE",
"60 628 LINE {name = hr00;}",
"44 498 LINE",
"204 498 LINE",
"232 180 OFFCURVE",
"414 -20 OFFCURVE",
"704 -20 CURVE SMOOTH"
);
},
{
closed = 1;
nodes = (
"962 802 LINE",
"978 932 LINE",
"666 932 LINE",
"572 932 OFFCURVE",
"516 878 OFFCURVE",
"482 802 CURVE"
);
}
);
width = 1180;
},
{
layerId = "5E1C92F4-866D-4CC0-BA00-538F5374015A";
paths = (
{
closed = 1;
nodes = (
"838 -24 OFFCURVE",
"958 4 OFFCURVE",
"1078 64 CURVE",
"1028 240 LINE",
"930 196 OFFCURVE",
"842 174 OFFCURVE",
"754 174 CURVE SMOOTH",
"578 174 OFFCURVE",
"484 296 OFFCURVE",
"452 458 CURVE",
"440 490 LINE",
"480 488 LINE",
"972 488 LINE",
"992 638 LINE",
"440 638 LINE",
"440 658 OFFCURVE",
"442 678 OFFCURVE",
"444 700 CURVE SMOOTH",
"478 966 OFFCURVE",
"628 1226 OFFCURVE",
"884 1226 CURVE SMOOTH",
"972 1226 OFFCURVE",
"1038 1214 OFFCURVE",
"1146 1182 CURVE",
"1238 1358 LINE",
"1122 1404 OFFCURVE",
"1016 1424 OFFCURVE",
"908 1424 CURVE SMOOTH",
"548 1424 OFFCURVE",
"320 1210 OFFCURVE",
"212 942 CURVE",
"48 942 LINE",
"30 792 LINE",
"168 792 LINE",
"160 762 OFFCURVE",
"156 730 OFFCURVE",
"152 700 CURVE SMOOTH",
"150 678 OFFCURVE",
"148 658 OFFCURVE",
"148 638 CURVE",
"12 638 LINE",
"-6 488 LINE",
"150 488 LINE",
"182 212 OFFCURVE",
"348 -24 OFFCURVE",
"730 -24 CURVE SMOOTH {name = hr00;}"
);
},
{
closed = 1;
nodes = (
"1010 792 LINE",
"1028 942 LINE",
"722 942 LINE",
"624 942 OFFCURVE",
"566 868 OFFCURVE",
"530 792 CURVE"
);
}
);
width = 1180;
}
);
unicode = 20AC;
userData = {
com.typemytype.robofont.guides = (
{
angle = 90;
isGlobal = 0;
magnetic = 5;
x = 343;
y = 0;
}
);
};
},
{
color = 6;
glyphname = sterling;
layers = (
{
layerId = "3BBF7C5C-CA4C-45AB-AE18-0528A0ACCA90";
paths = (
{
closed = 1;
nodes = (
"966 0 LINE",
"984 160 LINE",
"426 160 LINE",
"372 156 LINE",
"418 192 LINE",
"482 250 OFFCURVE",
"530 316 OFFCURVE",
"560 394 CURVE {name = hr00;}",
"624 592 OFFCURVE",
"572 780 OFFCURVE",
"602 1022 CURVE SMOOTH",
"622 1174 OFFCURVE",
"710 1280 OFFCURVE",
"858 1280 CURVE SMOOTH",
"914 1280 OFFCURVE",
"1010 1264 OFFCURVE",
"1102 1216 CURVE",
"1168 1350 LINE",
"1062 1404 OFFCURVE",
"970 1424 OFFCURVE",
"876 1424 CURVE",
"656 1424 OFFCURVE",
"458 1278 OFFCURVE",
"426 1024 CURVE SMOOTH",
"416 940 OFFCURVE",
"416 836 OFFCURVE",
"420 772 CURVE",
"248 772 LINE",
"232 642 LINE",
"424 642 LINE",
"426 586 OFFCURVE",
"422 536 OFFCURVE",
"416 484 CURVE SMOOTH",
"396 324 OFFCURVE",
"278 194 OFFCURVE",
"126 122 CURVE",
"112 0 LINE"
);
},
{
closed = 1;
nodes = (
"968 642 LINE",
"984 772 LINE",
"666 772 LINE",
"684 696 OFFCURVE",
"724 642 OFFCURVE",
"820 642 CURVE"
);
}
);
width = 1026;
},
{
layerId = "5E1C92F4-866D-4CC0-BA00-538F5374015A";
paths = (
{
closed = 1;
nodes = (
"966 0 LINE",
"992 224 LINE",
"532 224 LINE",
"488 220 LINE",
"528 260 LINE",
"564 304 OFFCURVE",
"586 336 OFFCURVE",
"606 394 CURVE {name = hr00;}",
"670 592 OFFCURVE",
"618 780 OFFCURVE",
"648 1022 CURVE SMOOTH",
"664 1150 OFFCURVE",
"748 1216 OFFCURVE",
"878 1216 CURVE SMOOTH",
"934 1216 OFFCURVE",
"1026 1202 OFFCURVE",
"1122 1160 CURVE",
"1214 1350 LINE",
"1098 1406 OFFCURVE",
"998 1424 OFFCURVE",
"904 1424 CURVE",
"628 1424 OFFCURVE",
"416 1294 OFFCURVE",
"382 1024 CURVE SMOOTH",
"372 940 OFFCURVE",
"372 866 OFFCURVE",
"374 804 CURVE",
"208 804 LINE",
"184 610 LINE",
"382 610 LINE",
"380 560 OFFCURVE",
"378 524 OFFCURVE",
"372 484 CURVE SMOOTH",
"354 338 OFFCURVE",
"238 224 OFFCURVE",
"86 152 CURVE",
"68 0 LINE"
);
},
{
closed = 1;
nodes = (
"1010 610 LINE",
"1034 804 LINE",
"712 804 LINE",
"730 718 OFFCURVE",
"758 610 OFFCURVE",
"878 610 CURVE"
);
}
);
width = 1026;
}
);
unicode = 00A3;
},
{
color = 6;
glyphname = yen;
layers = (
{
layerId = "3BBF7C5C-CA4C-45AB-AE18-0528A0ACCA90";
paths = (
{
closed = 1;
nodes = (
"740 0 LINE",
"772 276 LINE",
"1104 276 LINE",
"1116 370 LINE",
"784 370 LINE",
"804 520 LINE",
"1136 520 LINE",
"1146 614 LINE",
"814 614 LINE",
"822 674 LINE",
"450 1454 LINE",
"234 1454 LINE",
"628 618 LINE",
"628 614 LINE",
"296 614 LINE {name = hr00;}",
"286 520 LINE",
"618 520 LINE",
"598 370 LINE",
"266 370 LINE",
"254 276 LINE",
"586 276 LINE",
"554 0 LINE"
);
},
{
closed = 1;
nodes = (
"1402 1454 LINE",
"1192 1454 LINE",
"884 1004 LINE",
"818 910 OFFCURVE",
"846 814 OFFCURVE",
"888 752 CURVE"
);
}
);
width = 1320;
},
{
layerId = "5E1C92F4-866D-4CC0-BA00-538F5374015A";
paths = (
{
closed = 1;
nodes = (
"786 0 LINE",
"816 256 LINE",
"1102 256 LINE",
"1118 390 LINE",
"832 390 LINE",
"846 504 LINE",
"1132 504 LINE",
"1150 638 LINE",
"864 638 LINE",
"868 678 LINE {name = hr00;}",
"498 1454 LINE",
"186 1454 LINE",
"588 644 LINE",
"588 638 LINE",
"300 638 LINE",
"282 504 LINE",
"570 504 LINE",
"556 390 LINE",
"268 390 LINE",
"252 256 LINE",
"540 256 LINE",
"510 0 LINE"
);
},
{
closed = 1;
nodes = (
"1448 1454 LINE",
"1140 1454 LINE",
"910 1114 LINE",
"826 986 OFFCURVE",
"894 822 OFFCURVE",
"938 754 CURVE"
);
}
);
width = 1320;
}
);
unicode = 00A5;
},
{
color = 6;
glyphname = plus;
layers = (
{
layerId = "3BBF7C5C-CA4C-45AB-AE18-0528A0ACCA90";
paths = (
{
closed = 1;
nodes = (
"648 124 LINE",
"700 546 LINE",
"1096 546 LINE",
"1112 674 LINE",
"716 674 LINE",
"768 1092 LINE",
"622 1092 LINE",
"570 674 LINE",
"176 674 LINE {name = hr00;}",
"160 546 LINE",
"554 546 LINE",
"502 124 LINE"
);
}
);
width = 1136;
},
{
layerId = "5E1C92F4-866D-4CC0-BA00-538F5374015A";
paths = (
{
closed = 1;
nodes = (
"680 124 LINE",
"728 514 LINE",
"1092 514 LINE",
"1116 706 LINE",
"752 706 LINE",
"800 1092 LINE",
"588 1092 LINE",
"540 706 LINE",
"180 706 LINE {name = hr00;}",
"156 514 LINE",
"516 514 LINE",
"468 124 LINE"
);
}
);
width = 1136;
}
);
unicode = 002B;
},
{
glyphname = minus;
layers = (
{
layerId = "5E1C92F4-866D-4CC0-BA00-538F5374015A";
paths = (
{
closed = 1;
nodes = (
"942 514 LINE",
"966 706 LINE",
"180 706 LINE",
"156 514 LINE"
);
}
);
width = 986;
},
{
layerId = "3BBF7C5C-CA4C-45AB-AE18-0528A0ACCA90";
paths = (
{
closed = 1;
nodes = (
"946 546 LINE",
"962 674 LINE",
"176 674 LINE {name = hr00;}",
"160 546 LINE"
);
}
);
width = 986;
}
);
unicode = 2212;
},
{
color = 6;
glyphname = multiply;
layers = (
{
layerId = "3BBF7C5C-CA4C-45AB-AE18-0528A0ACCA90";
paths = (
{
closed = 1;
nodes = (
"624 520 LINE",
"942 158 LINE",
"1044 248 LINE",
"726 612 LINE",
"1128 972 LINE",
"1050 1062 LINE",
"648 702 LINE",
"330 1062 LINE",
"226 972 LINE",
"544 612 LINE",
"138 248 LINE {name = hr00;}",
"216 158 LINE"
);
}
);
width = 1136;
},
{
layerId = "5E1C92F4-866D-4CC0-BA00-538F5374015A";
paths = (
{
closed = 1;
nodes = (
"618 460 LINE",
"908 128 LINE",
"1078 278 LINE",
"786 612 LINE",
"1154 942 LINE",
"1024 1092 LINE",
"654 762 LINE",
"364 1092 LINE",
"192 942 LINE",
"484 612 LINE",
"112 278 LINE {name = hr00;}",
"242 128 LINE"
);
}
);
width = 1136;
}
);
unicode = 00D7;
userData = {
com.typemytype.robofont.guides = (
{
angle = 0;
isGlobal = 0;
magnetic = 5;
x = 0;
y = 305;
},
{
angle = 90;
isGlobal = 0;
magnetic = 5;
x = 280;
y = 0;
}
);
};
},
{
color = 6;
glyphname = divide;
layers = (
{
layerId = "3BBF7C5C-CA4C-45AB-AE18-0528A0ACCA90";
paths = (
{
closed = 1;
nodes = (
"1096 546 LINE",
"1112 674 LINE",
"176 674 LINE {name = hr00;}",
"160 546 LINE"
);
},
{
closed = 1;
nodes = (
"634 124 OFFCURVE",
"684 166 OFFCURVE",
"690 224 CURVE SMOOTH",
"698 284 OFFCURVE",
"660 328 OFFCURVE",
"600 328 CURVE SMOOTH",
"542 328 OFFCURVE",
"494 284 OFFCURVE",
"486 224 CURVE SMOOTH",
"480 166 OFFCURVE",
"516 124 OFFCURVE",
"574 124 CURVE SMOOTH"
);
},
{
closed = 1;
nodes = (
"728 888 OFFCURVE",
"778 930 OFFCURVE",
"784 988 CURVE SMOOTH",
"792 1048 OFFCURVE",
"754 1092 OFFCURVE",
"694 1092 CURVE SMOOTH",
"636 1092 OFFCURVE",
"588 1048 OFFCURVE",
"580 988 CURVE SMOOTH",
"574 930 OFFCURVE",
"610 888 OFFCURVE",
"668 888 CURVE SMOOTH"
);
}
);
width = 1136;
},
{
layerId = "5E1C92F4-866D-4CC0-BA00-538F5374015A";
paths = (
{
closed = 1;
nodes = (
"1092 514 LINE",
"1116 706 LINE",
"180 706 LINE",
"156 514 LINE"
);
},
{
closed = 1;
nodes = (
"646 102 OFFCURVE",
"704 152 OFFCURVE",
"712 224 CURVE SMOOTH",
"722 298 OFFCURVE",
"676 350 OFFCURVE",
"602 350 CURVE SMOOTH",
"530 350 OFFCURVE",
"474 298 OFFCURVE",
"464 224 CURVE SMOOTH {name = hr00;}",
"456 152 OFFCURVE",
"500 102 OFFCURVE",
"572 102 CURVE SMOOTH"
);
},
{
closed = 1;
nodes = (
"738 868 OFFCURVE",
"796 918 OFFCURVE",
"804 988 CURVE SMOOTH",
"814 1060 OFFCURVE",
"768 1112 OFFCURVE",
"696 1112 CURVE SMOOTH",
"626 1112 OFFCURVE",
"570 1060 OFFCURVE",
"560 988 CURVE SMOOTH",
"552 918 OFFCURVE",
"596 868 OFFCURVE",
"666 868 CURVE SMOOTH"
);
}
);
width = 1136;
}
);
unicode = 00F7;
},
{
color = 6;
glyphname = equal;
layers = (
{
layerId = "3BBF7C5C-CA4C-45AB-AE18-0528A0ACCA90";
paths = (
{
closed = 1;
nodes = (
"1174 794 LINE",
"1192 930 LINE",
"248 930 LINE",
"230 794 LINE"
);
},
{
closed = 1;
nodes = (
"1120 352 LINE",
"1136 488 LINE",
"192 488 LINE {name = hr00;}",
"176 352 LINE"
);
}
);
width = 1212;
},
{
layerId = "5E1C92F4-866D-4CC0-BA00-538F5374015A";
paths = (
{
closed = 1;
nodes = (
"1170 764 LINE",
"1194 960 LINE",
"250 960 LINE",
"226 764 LINE"
);
},
{
closed = 1;
nodes = (
"1116 322 LINE",
"1140 518 LINE",
"196 518 LINE {name = hr00;}",
"172 322 LINE"
);
}
);
width = 1212;
}
);
unicode = 003D;
},
{
color = 6;
glyphname = greater;
layers = (
{
layerId = "3BBF7C5C-CA4C-45AB-AE18-0528A0ACCA90";
paths = (
{
closed = 1;
nodes = (
"1168 502 LINE",
"1180 602 LINE",
"208 1104 LINE",
"188 944 LINE",
"956 566 LINE",
"1006 552 LINE",
"954 540 LINE {name = hr00;}",
"92 162 LINE",
"74 0 LINE"
);
}
);
width = 1226;
},
{
layerId = "5E1C92F4-866D-4CC0-BA00-538F5374015A";
paths = (
{
closed = 1;
nodes = (
"1200 462 LINE",
"1222 642 LINE",
"244 1104 LINE",
"212 844 LINE",
"872 566 LINE",
"922 552 LINE",
"870 540 LINE {name = hr00;}",
"142 262 LINE",
"110 0 LINE"
);
}
);
width = 1226;
}
);
unicode = 003E;
},
{
color = 6;
glyphname = less;
layers = (
{
layerId = "3BBF7C5C-CA4C-45AB-AE18-0528A0ACCA90";
paths = (
{
closed = 1;
nodes = (
"1126 162 LINE {name = hr00;}",
"360 540 LINE",
"308 552 LINE",
"362 566 LINE",
"1222 944 LINE",
"1242 1104 LINE",
"146 602 LINE",
"134 502 LINE",
"1108 0 LINE"
);
}
);
width = 1226;
},
{
layerId = "5E1C92F4-866D-4CC0-BA00-538F5374015A";
paths = (
{
closed = 1;
nodes = (
"1140 262 LINE {name = hr00;}",
"480 540 LINE",
"428 552 LINE",
"482 566 LINE",
"1210 844 LINE",
"1242 1104 LINE",
"152 642 LINE",
"130 462 LINE",
"1108 0 LINE"
);
}
);
width = 1226;
}
);
unicode = 003C;
},
{
color = 6;
glyphname = plusminus;
layers = (
{
layerId = "3BBF7C5C-CA4C-45AB-AE18-0528A0ACCA90";
paths = (
{
closed = 1;
nodes = (
"662 244 LINE",
"708 606 LINE",
"1104 606 LINE",
"1120 734 LINE",
"724 734 LINE",
"768 1092 LINE",
"622 1092 LINE",
"578 734 LINE",
"184 734 LINE {name = hr00;}",
"168 606 LINE",
"562 606 LINE",
"516 244 LINE"
);
},
{
closed = 1;
nodes = (
"1030 0 LINE",
"1044 126 LINE",
"108 126 LINE",
"94 0 LINE"
);
}
);
width = 1136;
},
{
layerId = "5E1C92F4-866D-4CC0-BA00-538F5374015A";
paths = (
{
closed = 1;
nodes = (
"700 284 LINE",
"736 574 LINE",
"1100 574 LINE",
"1124 766 LINE",
"760 766 LINE",
"794 1052 LINE",
"582 1052 LINE",
"548 766 LINE",
"188 766 LINE {name = hr00;}",
"164 574 LINE",
"524 574 LINE",
"488 284 LINE"
);
},
{
closed = 1;
nodes = (
"1030 0 LINE",
"1054 196 LINE",
"118 196 LINE",
"94 0 LINE"
);
}
);
width = 1136;
}
);
unicode = 00B1;
},
{
color = 6;
glyphname = logicalnot;
layers = (
{
layerId = "3BBF7C5C-CA4C-45AB-AE18-0528A0ACCA90";
paths = (
{
closed = 1;
nodes = (
"1096 312 LINE",
"1164 876 LINE {name = hr00;}",
"192 876 LINE",
"176 748 LINE",
"1002 748 LINE",
"950 312 LINE"
);
}
);
width = 1138;
},
{
layerId = "5E1C92F4-866D-4CC0-BA00-538F5374015A";
paths = (
{
closed = 1;
nodes = (
"1130 312 LINE",
"1202 910 LINE {name = hr00;}",
"196 910 LINE",
"172 714 LINE",
"964 714 LINE",
"916 312 LINE"
);
}
);
width = 1182;
}
);
unicode = 00AC;
},
{
color = 6;
glyphname = asciitilde;
layers = (
{
layerId = "3BBF7C5C-CA4C-45AB-AE18-0528A0ACCA90";
paths = (
{
closed = 1;
nodes = (
"362 568 OFFCURVE",
"420 626 OFFCURVE",
"484 628 CURVE SMOOTH {name = hr02;}",
"566 628 OFFCURVE",
"618 588 OFFCURVE",
"678 544 CURVE SMOOTH",
"734 500 OFFCURVE",
"812 458 OFFCURVE",
"902 460 CURVE SMOOTH",
"1062 462 OFFCURVE",
"1188 526 OFFCURVE",
"1230 752 CURVE",
"1070 768 LINE {name = hr01;}",
"1050 668 OFFCURVE",
"1004 596 OFFCURVE",
"940 596 CURVE SMOOTH",
"850 596 OFFCURVE",
"794 636 OFFCURVE",
"736 680 CURVE SMOOTH",
"680 724 OFFCURVE",
"604 764 OFFCURVE",
"518 764 CURVE SMOOTH",
"346 762 OFFCURVE",
"216 672 OFFCURVE",
"182 472 CURVE",
"340 456 LINE"
);
}
);
width = 1228;
},
{
layerId = "5E1C92F4-866D-4CC0-BA00-538F5374015A";
paths = (
{
closed = 1;
nodes = (
"438 548 OFFCURVE",
"498 578 OFFCURVE",
"542 578 CURVE SMOOTH {name = hr02;}",
"584 578 OFFCURVE",
"616 554 OFFCURVE",
"652 526 CURVE SMOOTH",
"706 484 OFFCURVE",
"768 434 OFFCURVE",
"894 434 CURVE SMOOTH",
"1014 434 OFFCURVE",
"1190 526 OFFCURVE",
"1230 754 CURVE",
"1002 770 LINE",
"982 698 OFFCURVE",
"942 648 OFFCURVE",
"888 648 CURVE SMOOTH {name = hr01;}",
"848 648 OFFCURVE",
"812 674 OFFCURVE",
"770 704 CURVE SMOOTH",
"712 744 OFFCURVE",
"642 792 OFFCURVE",
"534 792 CURVE",
"382 790 OFFCURVE",
"214 676 OFFCURVE",
"182 472 CURVE",
"416 456 LINE"
);
}
);
width = 1228;
}
);
unicode = 007E;
userData = {
com.typemytype.robofont.guides = (
{
angle = 0;
isGlobal = 0;
magnetic = 5;
x = 0;
y = 230;
}
);
};
},
{
color = 6;
glyphname = asciicircum;
layers = (
{
layerId = "3BBF7C5C-CA4C-45AB-AE18-0528A0ACCA90";
paths = (
{
closed = 1;
nodes = (
"376 420 LINE {name = hr00;}",
"762 1160 LINE",
"780 1212 LINE",
"786 1160 LINE",
"990 420 LINE",
"1144 420 LINE",
"860 1454 LINE",
"758 1454 LINE",
"218 420 LINE"
);
}
);
width = 1256;
},
{
layerId = "5E1C92F4-866D-4CC0-BA00-538F5374015A";
paths = (
{
closed = 1;
nodes = (
"416 420 LINE {name = hr00;}",
"750 1086 LINE",
"772 1148 LINE",
"778 1086 LINE",
"950 420 LINE",
"1204 420 LINE",
"910 1454 LINE",
"708 1454 LINE",
"158 420 LINE"
);
}
);
width = 1256;
}
);
unicode = 005E;
},
{
color = 6;
glyphname = micro;
layers = (
{
layerId = "3BBF7C5C-CA4C-45AB-AE18-0528A0ACCA90";
paths = (
{
closed = 1;
nodes = (
"268 -422 LINE",
"322 30 LINE",
"326 94 LINE",
"352 50 LINE",
"388 6 OFFCURVE",
"450 -20 OFFCURVE",
"526 -20 CURVE SMOOTH",
"658 -20 OFFCURVE",
"748 52 OFFCURVE",
"806 122 CURVE",
"836 170 LINE",
"838 122 LINE",
"852 20 OFFCURVE",
"916 -16 OFFCURVE",
"998 -16 CURVE SMOOTH",
"1028 -16 OFFCURVE",
"1062 -10 OFFCURVE",
"1108 6 CURVE",
"1106 134 LINE",
"1022 130 OFFCURVE",
"1000 170 OFFCURVE",
"1014 282 CURVE SMOOTH",
"1106 1034 LINE",
"920 1034 LINE",
"842 398 LINE SMOOTH",
"824 254 OFFCURVE",
"686 130 OFFCURVE",
"562 130 CURVE SMOOTH {name = hr01;}",
"414 130 OFFCURVE",
"364 262 OFFCURVE",
"382 420 CURVE SMOOTH",
"458 1034 LINE",
"274 1034 LINE",
"96 -422 LINE"
);
}
);
width = 1106;
},
{
layerId = "5E1C92F4-866D-4CC0-BA00-538F5374015A";
paths = (
{
closed = 1;
nodes = (
"304 -422 LINE",
"356 14 LINE",
"360 62 LINE",
"384 28 LINE",
"422 -4 OFFCURVE",
"482 -20 OFFCURVE",
"526 -20 CURVE SMOOTH",
"644 -20 OFFCURVE",
"724 22 OFFCURVE",
"792 104 CURVE",
"814 142 LINE",
"820 106 LINE",
"850 20 OFFCURVE",
"936 -16 OFFCURVE",
"1004 -16 CURVE SMOOTH",
"1034 -16 OFFCURVE",
"1104 -8 OFFCURVE",
"1150 10 CURVE",
"1148 180 LINE",
"1064 176 OFFCURVE",
"1042 216 OFFCURVE",
"1056 328 CURVE SMOOTH",
"1142 1034 LINE",
"884 1034 LINE",
"806 398 LINE SMOOTH",
"790 270 OFFCURVE",
"692 176 OFFCURVE",
"568 176 CURVE SMOOTH {name = hr01;}",
"462 176 OFFCURVE",
"400 262 OFFCURVE",
"418 420 CURVE SMOOTH",
"494 1034 LINE",
"238 1034 LINE",
"60 -422 LINE"
);
}
);
width = 1106;
}
);
unicode = 00B5;
},
{
color = 6;
glyphname = percent;
layers = (
{
layerId = "3BBF7C5C-CA4C-45AB-AE18-0528A0ACCA90";
paths = (
{
closed = 1;
nodes = (
"456 0 LINE",
"1504 1404 LINE",
"1364 1404 LINE",
"316 0 LINE"
);
},
{
closed = 1;
nodes = (
"640 618 OFFCURVE",
"794 768 OFFCURVE",
"824 1026 CURVE",
"856 1284 OFFCURVE",
"742 1434 OFFCURVE",
"556 1434 CURVE",
"366 1434 OFFCURVE",
"214 1284 OFFCURVE",
"182 1026 CURVE",
"152 766 OFFCURVE",
"264 618 OFFCURVE",
"454 618 CURVE SMOOTH"
);
},
{
closed = 1;
nodes = (
"376 738 OFFCURVE",
"328 830 OFFCURVE",
"352 1026 CURVE",
"376 1220 OFFCURVE",
"446 1314 OFFCURVE",
"540 1314 CURVE",
"634 1314 OFFCURVE",
"678 1220 OFFCURVE",
"654 1026 CURVE",
"630 830 OFFCURVE",
"564 738 OFFCURVE",
"470 738 CURVE SMOOTH"
);
},
{
closed = 1;
nodes = (
"1452 -26 OFFCURVE",
"1604 124 OFFCURVE",
"1636 382 CURVE SMOOTH",
"1668 638 OFFCURVE",
"1552 788 OFFCURVE",
"1364 788 CURVE SMOOTH",
"1176 788 OFFCURVE",
"1026 638 OFFCURVE",
"994 382 CURVE SMOOTH",
"962 122 OFFCURVE",
"1076 -26 OFFCURVE",
"1264 -26 CURVE SMOOTH {name = hr01;}"
);
},
{
closed = 1;
nodes = (
"1186 92 OFFCURVE",
"1140 186 OFFCURVE",
"1164 382 CURVE SMOOTH",
"1188 574 OFFCURVE",
"1258 670 OFFCURVE",
"1350 670 CURVE SMOOTH",
"1446 670 OFFCURVE",
"1490 574 OFFCURVE",
"1466 382 CURVE SMOOTH",
"1442 186 OFFCURVE",
"1374 92 OFFCURVE",
"1278 92 CURVE SMOOTH"
);
}
);
width = 1628;
},
{
layerId = "5E1C92F4-866D-4CC0-BA00-538F5374015A";
paths = (
{
closed = 1;
nodes = (
"498 0 LINE",
"1546 1404 LINE",
"1324 1404 LINE",
"276 0 LINE"
);
},
{
closed = 1;
nodes = (
"644 620 OFFCURVE",
"798 770 OFFCURVE",
"830 1028 CURVE SMOOTH",
"860 1284 OFFCURVE",
"744 1434 OFFCURVE",
"532 1434 CURVE SMOOTH",
"320 1434 OFFCURVE",
"168 1284 OFFCURVE",
"138 1028 CURVE SMOOTH",
"106 768 OFFCURVE",
"220 620 OFFCURVE",
"432 620 CURVE SMOOTH"
);
},
{
closed = 1;
nodes = (
"378 778 OFFCURVE",
"336 862 OFFCURVE",
"358 1028 CURVE SMOOTH",
"378 1190 OFFCURVE",
"440 1276 OFFCURVE",
"512 1276 CURVE SMOOTH",
"588 1276 OFFCURVE",
"628 1190 OFFCURVE",
"608 1028 CURVE SMOOTH",
"586 862 OFFCURVE",
"526 778 OFFCURVE",
"450 778 CURVE SMOOTH"
);
},
{
closed = 1;
nodes = (
"1502 -26 OFFCURVE",
"1656 124 OFFCURVE",
"1688 382 CURVE SMOOTH",
"1720 638 OFFCURVE",
"1602 788 OFFCURVE",
"1390 788 CURVE SMOOTH",
"1178 788 OFFCURVE",
"1028 638 OFFCURVE",
"996 382 CURVE SMOOTH",
"964 122 OFFCURVE",
"1078 -26 OFFCURVE",
"1290 -26 CURVE SMOOTH {name = hr01;}"
);
},
{
closed = 1;
nodes = (
"1238 132 OFFCURVE",
"1196 216 OFFCURVE",
"1216 382 CURVE SMOOTH",
"1236 544 OFFCURVE",
"1298 630 OFFCURVE",
"1370 630 CURVE SMOOTH",
"1446 630 OFFCURVE",
"1486 544 OFFCURVE",
"1466 382 CURVE SMOOTH",
"1446 216 OFFCURVE",
"1386 132 OFFCURVE",
"1310 132 CURVE SMOOTH"
);
}
);
width = 1628;
}
);
unicode = 0025;
},
